<?xml version="1.0" standalone="no"?><!DOCTYPE svg PUBLIC "-//W3C//DTD SVG 1.1//EN" "http://www.w3.org/Graphics/SVG/1.1/DTD/svg11.dtd"><svg t="1559111232155" class="icon" style="" viewBox="0 0 1024 1024" version="1.1" xmlns="http://www.w3.org/2000/svg" p-id="2648" xmlns:xlink="http://www.w3.org/1999/xlink" width="200" height="200"><defs><style type="text/css"></style></defs><path d="M511.985371 0.007314C229.675886 0.007314 0 229.688076 0 512.004876c0 282.311924 229.675886 511.98781 511.985371 511.98781C794.311924 1023.992686 1024 794.3168 1024 512.004876 1024 229.688076 794.311924 0.007314 511.985371 0.007314z" fill="" p-id="2655"></path><path d="M442.016914 711.767771c27.55779-57.502476 43.427352-120.7808 45.370515-186.097371-73.632914-45.326629-134.685257-108.500114-177.091048-183.517867-36.3008-64.214552-58.268038-135.716571-64.577829-208.991085a466.839162 466.839162 0 0 0-131.5328 141.748419c2.49661 201.801143 135.521524 378.165638 327.831162 436.857904z" fill="#FFEBD4" p-id="2649"></path><path d="M511.985371 48.769219c-79.247848 0-153.904762 20.0192-219.19939 55.2448 2.321067 72.647924 21.76 142.735848 55.330133 205.097448 140.575695-126.200686 337.859048-163.637638 512.660724-101.622248-84.984686-97.209295-209.832229-158.72-348.791467-158.72z" fill="#FFEBD4" p-id="2650"></path><path d="M373.991619 351.519695c36.013105 52.611657 82.870857 97.987048 138.456991 132.327619 76.078324-41.111162 161.348267-62.405486 247.498361-61.5936 73.820648 0.670476 146.7904 17.425067 213.445486 48.647315a459.776 459.776 0 0 0-57.134324-184.849067c-176.008533-98.757486-395.278629-71.736076-542.266514 65.467733z" fill="#FFEBD4" p-id="2651"></path><path d="M769.657905 471.527619c39.038781 185.000229-27.331048 374.735238-168.686934 495.094248 208.513219-40.733257 367.416076-221.756952 374.030629-440.427277-64.09021-34.338133-134.531657-52.558019-205.343695-54.666971z" fill="#FFEBD4" p-id="2652"></path><path d="M719.989029 472.734476c-63.568457 4.883505-126.293333 22.776686-183.827505 53.740495-2.435657 86.43779-26.641067 170.903162-70.407314 245.138286-37.483276 63.580648-88.46141 118.381714-148.809143 160.492495 57.453714 26.780038 121.265981 42.108343 188.501333 43.042134 173.602133-103.036343 259.87901-306.475886 214.542629-502.41341z" fill="#FFEBD4" p-id="2653"></path><path d="M268.344076 905.806019c61.722819-38.329295 112.67901-90.192457 149.886781-150.423162C238.484724 696.688152 107.349333 544.329143 73.801143 361.720686 57.585371 408.868571 48.761905 459.424914 48.761905 512.004876c0 166.095238 87.888457 312.02499 219.582171 393.801143z" fill="#FFEBD4" p-id="2654"></path></svg>