<?xml version="1.0" standalone="no"?><!DOCTYPE svg PUBLIC "-//W3C//DTD SVG 1.1//EN" "http://www.w3.org/Graphics/SVG/1.1/DTD/svg11.dtd"><svg t="1559111232155" class="icon" style="" viewBox="0 0 1024 1024" version="1.1" xmlns="http://www.w3.org/2000/svg" p-id="2648" xmlns:xlink="http://www.w3.org/1999/xlink" width="200" height="200"><defs><style type="text/css"></style></defs><path d="M442.016914 711.767771c27.55779-57.502476 43.427352-120.7808 45.370515-186.097371-73.632914-45.326629-134.685257-108.500114-177.091048-183.517867-36.3008-64.214552-58.268038-135.716571-64.577829-208.991085a466.839162 466.839162 0 0 0-131.5328 141.748419c2.49661 201.801143 135.521524 378.165638 327.831162 436.857904z" fill="#FFEBD4" p-id="2649"></path><path d="M511.985371 48.769219c-79.247848 0-153.904762 20.0192-219.19939 55.2448 2.321067 72.647924 21.76 142.735848 55.330133 205.097448 140.575695-126.200686 337.859048-163.637638 512.660724-101.622248-84.984686-97.209295-209.832229-158.72-348.791467-158.72z" fill="#FFEBD4" p-id="2650"></path><path d="M373.991619 351.519695c36.013105 52.611657 82.870857 97.987048 138.456991 132.327619 76.078324-41.111162 161.348267-62.405486 247.498361-61.5936 73.820648 0.670476 146.7904 17.425067 213.445486 48.647315a459.776 459.776 0 0 0-57.134324-184.849067c-176.008533-98.757486-395.278629-71.736076-542.266514 65.467733z" fill="#FFEBD4" p-id="2651"></path><path d="M769.657905 471.527619c39.038781 185.000229-27.331048 374.735238-168.686934 495.094248 208.513219-40.733257 367.416076-221.756952 374.030629-440.427277-64.09021-34.338133-134.531657-52.558019-205.343695-54.666971z" fill="#FFEBD4" p-id="2652"></path><path d="M719.989029 472.734476c-63.568457 4.883505-126.293333 22.776686-183.827505 53.740495-2.435657 86.43779-26.641067 170.903162-70.407314 245.138286-37.483276 63.580648-88.46141 118.381714-148.809143 160.492495 57.453714 26.780038 121.265981 42.108343 188.501333 43.042134 173.602133-103.036343 259.87901-306.475886 214.542629-502.41341z" fill="#FFEBD4" p-id="2653"></path><path d="M268.344076 905.806019c61.722819-38.329295 112.67901-90.192457 149.886781-150.423162C238.484724 696.688152 107.349333 544.329143 73.801143 361.720686 57.585371 408.868571 48.761905 459.424914 48.761905 512.004876c0 166.095238 87.888457 312.02499 219.582171 393.801143z" fill="#FFEBD4" p-id="2654"></path><path d="M511.985371 0.007314C229.675886 0.007314 0 229.688076 0 512.004876c0 282.311924 229.675886 511.98781 511.985371 511.98781C794.311924 1023.992686 1024 794.3168 1024 512.004876 1024 229.688076 794.311924 0.007314 511.985371 0.007314z m461.407086 470.893715c-66.657524-31.222248-139.624838-47.976838-213.445486-48.647315-86.150095-0.809448-171.420038 20.482438-247.498361 61.5936-55.586133-34.34301-102.443886-79.7184-138.456991-132.327619 146.987886-137.20381 366.257981-164.222781 542.268952-65.467733a459.783314 459.783314 0 0 1 57.131886 184.849067z m-625.278781-161.792c-33.570133-62.3616-53.006629-132.449524-55.330133-205.097448 65.297067-35.2256 139.951543-55.2448 219.19939-55.2448 138.9568 0 263.806781 61.510705 348.789029 158.717562-174.7968-62.010514-372.08259-24.576-512.658286 101.624686z m-102.392686-175.947581c6.30979 73.274514 28.277029 144.776533 64.577829 208.991085 42.40579 75.015314 103.458133 138.191238 177.091048 183.517867-1.9456 65.31901-17.812724 128.597333-45.370515 186.097371-192.309638-58.694705-325.33699-235.0592-327.831162-436.857904a466.807467 466.807467 0 0 1 131.5328-141.748419zM73.801143 361.720686c33.54819 182.608457 164.683581 334.967467 344.427276 393.662171-37.207771 60.230705-88.161524 112.093867-149.886781 150.423162C136.650362 824.029867 48.761905 678.100114 48.761905 512.004876c0-52.579962 8.823467-103.136305 25.039238-150.28419z m243.146362 570.385066c60.347733-42.108343 111.325867-96.911848 148.809143-160.492495 43.766248-74.237562 67.971657-158.700495 70.407314-245.138286 57.534171-30.966248 120.259048-48.85699 183.827505-53.740495 45.338819 195.939962-40.940495 399.379505-214.540191 502.41341-67.240229-0.936229-131.052495-16.262095-188.503771-43.042134z m284.023466 34.516115C742.324419 846.262857 808.694248 656.527848 769.657905 471.527619c70.814476 2.108952 141.253486 20.328838 205.343695 54.664533-6.614552 218.670324-165.51741 399.696457-374.030629 440.429715z" fill="" p-id="2655"></path></svg>