<?xml version="1.0" standalone="no"?><!DOCTYPE svg PUBLIC "-//W3C//DTD SVG 1.1//EN" "http://www.w3.org/Graphics/SVG/1.1/DTD/svg11.dtd"><svg t="1542964336602" class="icon" style="" viewBox="0 0 1024 1024" version="1.1" xmlns="http://www.w3.org/2000/svg" p-id="2125" xmlns:xlink="http://www.w3.org/1999/xlink" width="32" height="32"><defs><style type="text/css"></style></defs><path d="M877.65333333 689.28l43.2-240.85333333c0-203.62666667-165.12-368.74666667-368.74666666-368.74666667h-78.18666667c-203.62666667 0-368.74666667 165.12-368.74666667 368.74666667L148.26666667 688.10666667c-59.62666667 12.48-104.42666667 65.28-104.42666667 128.64 0 46.93333333 25.06666667 90.34666667 65.70666667 113.81333333s90.77333333 23.46666667 131.41333333 0c29.22666667-16.85333333 50.45333333-44.05333333 60.05333333-75.52 55.78666667 47.46666667 128.42666667 76.05333333 207.78666667 76.05333333 80.64 0 154.24-29.54666667 210.34666667-78.29333333 15.68 55.04 66.34666667 95.36 126.4 95.36 72.64 0 131.41333333-58.88 131.41333333-131.41333333 0-61.54666667-42.24-113.17333333-99.30666667-127.46666667z m-73.06666666 87.68c-10.02666667 0-19.94666667-2.13333333-29.12-6.29333333-55.68 88-153.81333333 146.45333333-265.6 146.45333333-110.82666667 0-208.32-57.49333333-264.10666667-144.21333333-7.68 2.77333333-15.68 4.16-23.78666667 4.16-38.72 0-70.08-31.36-70.08-70.08 0-30.4 19.30666667-56.32 46.4-66.02666667-1.28-10.45333333-2.02666667-21.12-2.24-31.78666667 11.2 1.28 22.61333333 2.02666667 34.13333334 2.02666667 154.88 0 281.70666667-84.37333333 292.37333333-236.58666667C533.22666667 526.82666667 660.05333333 611.2 814.93333333 611.2c2.98666667 0 5.86666667-0.10666667 8.74666667-0.10666667-0.21333333 9.38666667-0.85333333 18.66666667-1.92 27.94666667 30.4 7.68 52.90666667 35.2 52.90666667 67.94666667 0 38.61333333-31.36 69.97333333-70.08 69.97333333z" fill="#322B2C" p-id="2126"></path><path d="M821.76 638.93333333c1.06666667-9.28 1.70666667-18.66666667 1.92-27.94666666-2.88 0.10666667-5.86666667 0.10666667-8.74666667 0.10666666-154.88 0-281.70666667-84.37333333-292.37333333-236.58666666-10.66666667 152.21333333-137.49333333 236.58666667-292.37333333 236.58666666-11.52 0-22.93333333-0.64-34.13333334-2.02666666 0.21333333 10.77333333 0.96 21.33333333 2.24 31.78666666-27.09333333 9.70666667-46.4 35.62666667-46.4 66.02666667 0 38.72 31.36 70.08 70.08 70.08 8.10666667 0 16.21333333-1.38666667 23.78666667-4.16 55.89333333 86.72 153.28 144.21333333 264.10666667 144.21333333 111.78666667 0 209.92-58.45333333 265.49333333-146.45333333 9.17333333 4.16 19.09333333 6.4 29.12 6.29333333 38.72 0 70.08-31.36 70.08-70.08 0.10666667-32.64-22.4-60.16-52.8-67.84zM357.22666667 775.46666667h-68.26666667c-5.54666667 0-10.13333333-5.65333333-10.13333333-12.69333334 0-6.93333333 4.48-12.69333333 10.13333333-12.69333333h68.26666667c5.54666667 0 10.13333333 5.65333333 10.13333333 12.69333333-0.10666667 7.04-4.58666667 12.69333333-10.13333333 12.69333334z m17.17333333-51.2c-27.30666667 0-49.38666667-22.08-49.38666667-49.38666667 0-5.76 1.06666667-11.62666667 2.98666667-17.06666667-9.06666667-7.36-16-17.17333333-19.94666667-28.16l11.2-4.05333333c2.98666667 8.21333333 7.89333333 15.46666667 14.4 21.33333333 8.85333333-12.90666667 23.78666667-21.44 40.74666667-21.44 27.30666667 0 49.38666667 22.08 49.38666667 49.38666667 0 27.30666667-22.08 49.38666667-49.38666667 49.38666667z m138.66666667 135.46666666c-36.05333333 0-65.49333333-29.33333333-65.49333334-65.49333333h11.94666667c0 29.54666667 24 53.54666667 53.54666667 53.54666667 29.54666667 0 53.54666667-24 53.54666666-53.54666667h11.94666667c0 36.16-29.44 65.49333333-65.49333333 65.49333333z m85.22666666-183.57333333c0-27.30666667 22.08-49.38666667 49.38666667-49.38666667 16.96 0 31.78666667 8.53333333 40.74666667 21.44 6.50666667-5.86666667 11.41333333-13.12 14.4-21.33333333l11.2 4.05333333c-4.05333333 10.98666667-10.88 20.69333333-19.94666667 28.16 2.02666667 5.44 2.98666667 11.2 2.98666667 17.06666667 0 27.30666667-22.08 49.38666667-49.38666667 49.38666667-27.30666667 0-49.38666667-22.18666667-49.38666667-49.38666667z m133.01333334 94.4h-68.26666667c-5.54666667 0-10.13333333-5.65333333-10.13333333-12.69333333 0-6.93333333 4.48-12.69333333 10.13333333-12.69333334h68.26666667c5.54666667 0 10.13333333 5.65333333 10.13333333 12.69333334 0 7.04-4.58666667 12.69333333-10.13333333 12.69333333z" fill="#F9E5E5" p-id="2127"></path><path d="M821.76 638.93333333c1.06666667-9.28 1.70666667-18.66666667 1.92-27.94666666-2.88 0.10666667-5.86666667 0.10666667-8.74666667 0.10666666-154.88 0-281.70666667-84.37333333-292.37333333-236.58666666-10.66666667 152.21333333-137.49333333 236.58666667-292.37333333 236.58666666-11.52 0-22.93333333-0.64-34.13333334-2.02666666 0.21333333 10.77333333 0.96 21.33333333 2.24 31.78666666-27.09333333 9.70666667-46.4 35.62666667-46.4 66.02666667 0 38.72 31.36 70.08 70.08 70.08 8.10666667 0 16.21333333-1.38666667 23.78666667-4.16 55.89333333 86.72 153.28 144.21333333 264.10666667 144.21333333 111.78666667 0 209.92-58.45333333 265.49333333-146.45333333 9.17333333 4.16 19.09333333 6.4 29.12 6.29333333 38.72 0 70.08-31.36 70.08-70.08 0.10666667-32.64-22.4-60.16-52.8-67.84zM357.22666667 775.46666667h-68.26666667c-5.54666667 0-10.13333333-5.65333333-10.13333333-12.69333334 0-6.93333333 4.48-12.69333333 10.13333333-12.69333333h68.26666667c5.54666667 0 10.13333333 5.65333333 10.13333333 12.69333333-0.10666667 7.04-4.58666667 12.69333333-10.13333333 12.69333334z m17.17333333-51.2c-27.30666667 0-49.38666667-22.08-49.38666667-49.38666667 0-5.76 1.06666667-11.62666667 2.98666667-17.06666667-9.06666667-7.36-16-17.17333333-19.94666667-28.16l11.2-4.05333333c2.98666667 8.21333333 7.89333333 15.46666667 14.4 21.33333333 8.85333333-12.90666667 23.78666667-21.44 40.74666667-21.44 27.30666667 0 49.38666667 22.08 49.38666667 49.38666667 0 27.30666667-22.08 49.38666667-49.38666667 49.38666667z m138.66666667 135.46666666c-36.05333333 0-65.49333333-29.33333333-65.49333334-65.49333333h11.94666667c0 29.54666667 24 53.54666667 53.54666667 53.54666667 29.54666667 0 53.54666667-24 53.54666666-53.54666667h11.94666667c0 36.16-29.44 65.49333333-65.49333333 65.49333333z m85.22666666-183.57333333c0-27.30666667 22.08-49.38666667 49.38666667-49.38666667 16.96 0 31.78666667 8.53333333 40.74666667 21.44 6.50666667-5.86666667 11.41333333-13.12 14.4-21.33333333l11.2 4.05333333c-4.05333333 10.98666667-10.88 20.69333333-19.94666667 28.16 2.02666667 5.44 2.98666667 11.2 2.98666667 17.06666667 0 27.30666667-22.08 49.38666667-49.38666667 49.38666667-27.30666667 0-49.38666667-22.18666667-49.38666667-49.38666667z m133.01333334 94.4h-68.26666667c-5.54666667 0-10.13333333-5.65333333-10.13333333-12.69333333 0-6.93333333 4.48-12.69333333 10.13333333-12.69333334h68.26666667c5.54666667 0 10.13333333 5.65333333 10.13333333 12.69333334 0 7.04-4.58666667 12.69333333-10.13333333 12.69333333z" fill="#F9E5E5" p-id="2128"></path><path d="M821.76 638.93333333c1.06666667-9.28 1.70666667-18.66666667 1.92-27.94666666-2.88 0.10666667-5.86666667 0.10666667-8.74666667 0.10666666-154.88 0-281.70666667-84.37333333-292.37333333-236.58666666-10.66666667 152.21333333-137.49333333 236.58666667-292.37333333 236.58666666-11.52 0-22.93333333-0.64-34.13333334-2.02666666 0.21333333 10.77333333 0.96 21.33333333 2.24 31.78666666-27.09333333 9.70666667-46.4 35.62666667-46.4 66.02666667 0 38.72 31.36 70.08 70.08 70.08 8.10666667 0 16.21333333-1.38666667 23.78666667-4.16 55.89333333 86.72 153.28 144.21333333 264.10666667 144.21333333 111.78666667 0 209.92-58.45333333 265.49333333-146.45333333 9.17333333 4.16 19.09333333 6.4 29.12 6.29333333 38.72 0 70.08-31.36 70.08-70.08 0.10666667-32.64-22.4-60.16-52.8-67.84zM357.22666667 775.46666667h-68.26666667c-5.54666667 0-10.13333333-5.65333333-10.13333333-12.69333334 0-6.93333333 4.48-12.69333333 10.13333333-12.69333333h68.26666667c5.54666667 0 10.13333333 5.65333333 10.13333333 12.69333333-0.10666667 7.04-4.58666667 12.69333333-10.13333333 12.69333334z m17.17333333-51.2c-27.30666667 0-49.38666667-22.08-49.38666667-49.38666667 0-5.76 1.06666667-11.62666667 2.98666667-17.06666667-9.06666667-7.36-16-17.17333333-19.94666667-28.16l11.2-4.05333333c2.98666667 8.21333333 7.89333333 15.46666667 14.4 21.33333333 8.85333333-12.90666667 23.78666667-21.44 40.74666667-21.44 27.30666667 0 49.38666667 22.08 49.38666667 49.38666667 0 27.30666667-22.08 49.38666667-49.38666667 49.38666667z m138.66666667 135.46666666c-36.05333333 0-65.49333333-29.33333333-65.49333334-65.49333333h11.94666667c0 29.54666667 24 53.54666667 53.54666667 53.54666667 29.54666667 0 53.54666667-24 53.54666666-53.54666667h11.94666667c0 36.16-29.44 65.49333333-65.49333333 65.49333333z m85.22666666-183.57333333c0-27.30666667 22.08-49.38666667 49.38666667-49.38666667 16.96 0 31.78666667 8.53333333 40.74666667 21.44 6.50666667-5.86666667 11.41333333-13.12 14.4-21.33333333l11.2 4.05333333c-4.05333333 10.98666667-10.88 20.69333333-19.94666667 28.16 2.02666667 5.44 2.98666667 11.2 2.98666667 17.06666667 0 27.30666667-22.08 49.38666667-49.38666667 49.38666667-27.30666667 0-49.38666667-22.18666667-49.38666667-49.38666667z m133.01333334 94.4h-68.26666667c-5.54666667 0-10.13333333-5.65333333-10.13333333-12.69333333 0-6.93333333 4.48-12.69333333 10.13333333-12.69333334h68.26666667c5.54666667 0 10.13333333 5.65333333 10.13333333 12.69333334 0 7.04-4.58666667 12.69333333-10.13333333 12.69333333z" fill="#F9E5E5" p-id="2129"></path><path d="M821.76 638.93333333c1.06666667-9.28 1.70666667-18.66666667 1.92-27.94666666-2.88 0.10666667-5.86666667 0.10666667-8.74666667 0.10666666-154.88 0-281.70666667-84.37333333-292.37333333-236.58666666-10.66666667 152.21333333-137.49333333 236.58666667-292.37333333 236.58666666-11.52 0-22.93333333-0.64-34.13333334-2.02666666 0.21333333 10.77333333 0.96 21.33333333 2.24 31.78666666-27.09333333 9.70666667-46.4 35.62666667-46.4 66.02666667 0 38.72 31.36 70.08 70.08 70.08 8.10666667 0 16.21333333-1.38666667 23.78666667-4.16 55.89333333 86.72 153.28 144.21333333 264.10666667 144.21333333 111.78666667 0 209.92-58.45333333 265.49333333-146.45333333 9.17333333 4.16 19.09333333 6.4 29.12 6.29333333 38.72 0 70.08-31.36 70.08-70.08 0.10666667-32.64-22.4-60.16-52.8-67.84zM357.22666667 775.46666667h-68.26666667c-5.54666667 0-10.13333333-5.65333333-10.13333333-12.69333334 0-6.93333333 4.48-12.69333333 10.13333333-12.69333333h68.26666667c5.54666667 0 10.13333333 5.65333333 10.13333333 12.69333333-0.10666667 7.04-4.58666667 12.69333333-10.13333333 12.69333334z m17.17333333-51.2c-27.30666667 0-49.38666667-22.08-49.38666667-49.38666667 0-5.76 1.06666667-11.62666667 2.98666667-17.06666667-9.06666667-7.36-16-17.17333333-19.94666667-28.16l11.2-4.05333333c2.98666667 8.21333333 7.89333333 15.46666667 14.4 21.33333333 8.85333333-12.90666667 23.78666667-21.44 40.74666667-21.44 27.30666667 0 49.38666667 22.08 49.38666667 49.38666667 0 27.30666667-22.08 49.38666667-49.38666667 49.38666667z m138.66666667 135.46666666c-36.05333333 0-65.49333333-29.33333333-65.49333334-65.49333333h11.94666667c0 29.54666667 24 53.54666667 53.54666667 53.54666667 29.54666667 0 53.54666667-24 53.54666666-53.54666667h11.94666667c0 36.16-29.44 65.49333333-65.49333333 65.49333333z m85.22666666-183.57333333c0-27.30666667 22.08-49.38666667 49.38666667-49.38666667 16.96 0 31.78666667 8.53333333 40.74666667 21.44 6.50666667-5.86666667 11.41333333-13.12 14.4-21.33333333l11.2 4.05333333c-4.05333333 10.98666667-10.88 20.69333333-19.94666667 28.16 2.02666667 5.44 2.98666667 11.2 2.98666667 17.06666667 0 27.30666667-22.08 49.38666667-49.38666667 49.38666667-27.30666667 0-49.38666667-22.18666667-49.38666667-49.38666667z m133.01333334 94.4h-68.26666667c-5.54666667 0-10.13333333-5.65333333-10.13333333-12.69333333 0-6.93333333 4.48-12.69333333 10.13333333-12.69333334h68.26666667c5.54666667 0 10.13333333 5.65333333 10.13333333 12.69333334 0 7.04-4.58666667 12.69333333-10.13333333 12.69333333z" fill="#F9E5E5" p-id="2130"></path><path d="M821.76 638.93333333c1.06666667-9.28 1.70666667-18.66666667 1.92-27.94666666-2.88 0.10666667-5.86666667 0.10666667-8.74666667 0.10666666-154.88 0-281.70666667-84.37333333-292.37333333-236.58666666-10.66666667 152.21333333-137.49333333 236.58666667-292.37333333 236.58666666-11.52 0-22.93333333-0.64-34.13333334-2.02666666 0.21333333 10.77333333 0.96 21.33333333 2.24 31.78666666-27.09333333 9.70666667-46.4 35.62666667-46.4 66.02666667 0 38.72 31.36 70.08 70.08 70.08 8.10666667 0 16.21333333-1.38666667 23.78666667-4.16 55.89333333 86.72 153.28 144.21333333 264.10666667 144.21333333 111.78666667 0 209.92-58.45333333 265.49333333-146.45333333 9.17333333 4.16 19.09333333 6.4 29.12 6.29333333 38.72 0 70.08-31.36 70.08-70.08 0.10666667-32.64-22.4-60.16-52.8-67.84zM357.22666667 775.46666667h-68.26666667c-5.54666667 0-10.13333333-5.65333333-10.13333333-12.69333334 0-6.93333333 4.48-12.69333333 10.13333333-12.69333333h68.26666667c5.54666667 0 10.13333333 5.65333333 10.13333333 12.69333333-0.10666667 7.04-4.58666667 12.69333333-10.13333333 12.69333334z m17.17333333-51.2c-27.30666667 0-49.38666667-22.08-49.38666667-49.38666667 0-5.76 1.06666667-11.62666667 2.98666667-17.06666667-9.06666667-7.36-16-17.17333333-19.94666667-28.16l11.2-4.05333333c2.98666667 8.21333333 7.89333333 15.46666667 14.4 21.33333333 8.85333333-12.90666667 23.78666667-21.44 40.74666667-21.44 27.30666667 0 49.38666667 22.08 49.38666667 49.38666667 0 27.30666667-22.08 49.38666667-49.38666667 49.38666667z m138.66666667 135.46666666c-36.05333333 0-65.49333333-29.33333333-65.49333334-65.49333333h11.94666667c0 29.54666667 24 53.54666667 53.54666667 53.54666667 29.54666667 0 53.54666667-24 53.54666666-53.54666667h11.94666667c0 36.16-29.44 65.49333333-65.49333333 65.49333333z m85.22666666-183.57333333c0-27.30666667 22.08-49.38666667 49.38666667-49.38666667 16.96 0 31.78666667 8.53333333 40.74666667 21.44 6.50666667-5.86666667 11.41333333-13.12 14.4-21.33333333l11.2 4.05333333c-4.05333333 10.98666667-10.88 20.69333333-19.94666667 28.16 2.02666667 5.44 2.98666667 11.2 2.98666667 17.06666667 0 27.30666667-22.08 49.38666667-49.38666667 49.38666667-27.30666667 0-49.38666667-22.18666667-49.38666667-49.38666667z m133.01333334 94.4h-68.26666667c-5.54666667 0-10.13333333-5.65333333-10.13333333-12.69333333 0-6.93333333 4.48-12.69333333 10.13333333-12.69333334h68.26666667c5.54666667 0 10.13333333 5.65333333 10.13333333 12.69333334 0 7.04-4.58666667 12.69333333-10.13333333 12.69333333z" fill="#F9E5E5" p-id="2131"></path><path d="M513.06666667 847.78666667c-29.54666667 0-53.54666667-24-53.54666667-53.54666667h-11.94666667c0 36.05333333 29.33333333 65.49333333 65.49333334 65.49333333 36.05333333 0 65.49333333-29.33333333 65.49333333-65.49333333h-11.94666667c0 29.54666667-24.10666667 53.54666667-53.54666666 53.54666667zM697.06666667 676.16c0-5.76-1.06666667-11.62666667-2.98666667-17.06666667 9.06666667-7.36 16-17.06666667 19.94666667-28.16l-11.2-4.05333333c-2.98666667 8.21333333-7.89333333 15.46666667-14.4 21.33333333-8.85333333-13.01333333-23.78666667-21.44-40.74666667-21.44-27.30666667 0-49.38666667 22.08-49.38666667 49.38666667 0 27.30666667 22.08 49.38666667 49.38666667 49.38666667 27.30666667 0 49.38666667-22.18666667 49.38666667-49.38666667zM374.4 625.49333333c-16.96 0-31.78666667 8.53333333-40.74666667 21.44-6.50666667-5.86666667-11.41333333-13.12-14.4-21.33333333l-11.2 4.05333333c4.05333333 10.98666667 10.88 20.69333333 19.94666667 28.16-2.02666667 5.44-2.98666667 11.2-2.98666667 17.06666667 0 27.30666667 22.08 49.38666667 49.38666667 49.38666667s49.38666667-22.08 49.38666667-49.38666667c0-27.2-22.08-49.38666667-49.38666667-49.38666667z" fill="#322B2C" p-id="2132"></path><path d="M357.22666667 750.18666667h-68.26666667c-5.54666667 0-10.13333333 5.65333333-10.13333333 12.69333333 0 7.04 4.48 12.69333333 10.13333333 12.69333333h68.26666667c5.54666667 0 10.13333333-5.65333333 10.13333333-12.69333333-0.10666667-7.04-4.58666667-12.69333333-10.13333333-12.69333333zM731.30666667 745.28h-68.26666667c-5.54666667 0-10.13333333 5.65333333-10.13333333 12.69333333 0 7.04 4.48 12.69333333 10.13333333 12.69333334h68.26666667c5.54666667 0 10.13333333-5.65333333 10.13333333-12.69333334 0-7.04-4.58666667-12.69333333-10.13333333-12.69333333z" fill="#F3A089" p-id="2133"></path></svg>