<?xml version="1.0" standalone="no"?><!DOCTYPE svg PUBLIC "-//W3C//DTD SVG 1.1//EN" "http://www.w3.org/Graphics/SVG/1.1/DTD/svg11.dtd"><svg t="1628585642444" class="icon" viewBox="0 0 1024 1024" version="1.1" xmlns="http://www.w3.org/2000/svg" p-id="31406" xmlns:xlink="http://www.w3.org/1999/xlink" width="200" height="200"><defs><style type="text/css"></style></defs><path d="M884.736 542.72H506.88c-8.192 0-15.36-7.168-15.36-15.36v-184.32c0-8.192 7.168-15.36 15.36-15.36h193.536c4.096 0 8.192 2.048 11.264 4.096l184.32 184.32c4.096 4.096 6.144 11.264 3.072 16.384s-8.192 10.24-14.336 10.24zM522.24 512h325.632l-153.6-153.6H522.24v153.6z" fill="#251C4E" p-id="31408"></path><path d="M506.88 542.72h-184.32c-8.192 0-15.36-7.168-15.36-15.36V323.584c0-4.096 2.048-8.192 4.096-11.264l184.32-184.32c4.096-4.096 11.264-6.144 16.384-3.072 6.144 2.048 9.216 8.192 9.216 14.336v388.096c1.024 8.192-6.144 15.36-14.336 15.36zM337.92 512h153.6V176.128l-153.6 153.6V512z" fill="#251C4E" p-id="31410"></path><path d="M506.88 727.04H323.584c-4.096 0-8.192-2.048-11.264-4.096l-184.32-184.32c-4.096-4.096-6.144-11.264-3.072-16.384s8.192-10.24 14.336-10.24h367.616c8.192 0 15.36 7.168 15.36 15.36v184.32c0 8.192-7.168 15.36-15.36 15.36z m-177.152-30.72H491.52V542.72H176.128l153.6 153.6z" fill="#251C4E" p-id="31412"></path><path d="M506.88 900.096c-2.048 0-4.096 0-6.144-1.024-5.12-2.048-9.216-8.192-9.216-14.336V527.36c0-8.192 7.168-15.36 15.36-15.36h184.32c8.192 0 15.36 7.168 15.36 15.36v173.056c0 4.096-2.048 8.192-4.096 11.264l-184.32 184.32c-3.072 3.072-7.168 4.096-11.264 4.096zM522.24 542.72v305.152l153.6-153.6V542.72H522.24z" fill="#251C4E" p-id="31414"></path><path d="M501.76 532.48h382.976l-184.32-184.32H501.76z" fill="#72C69C" p-id="31407"></path><path d="M501.76 532.48V139.264l-184.32 184.32V532.48z" fill="#FDD838" p-id="31409"></path><path d="M501.76 532.48H139.264l184.32 184.32H501.76z" fill="#72C69C" p-id="31411"></path><path d="M501.76 532.48v352.256l184.32-184.32V532.48z" fill="#FDD838" p-id="31413"></path></svg>