<?xml version="1.0" standalone="no"?><!DOCTYPE svg PUBLIC "-//W3C//DTD SVG 1.1//EN" "http://www.w3.org/Graphics/SVG/1.1/DTD/svg11.dtd"><svg t="1542964532683" class="icon" style="" viewBox="0 0 1024 1024" version="1.1" xmlns="http://www.w3.org/2000/svg" p-id="3150" xmlns:xlink="http://www.w3.org/1999/xlink" width="32" height="32"><defs><style type="text/css"></style></defs><path d="M389.551692 624.101147m-31.518854 0a30.801 30.801 0 1 0 63.037708 0 30.801 30.801 0 1 0-63.037708 0Z" p-id="3151"></path><path d="M652.540362 624.101147m-31.518854 0a30.801 30.801 0 1 0 63.037708 0 30.801 30.801 0 1 0-63.037708 0Z" p-id="3152"></path><path d="M902.843104 405.38275c0 0-9.282411-79.593779-51.964512-125.764332 0 0 30.007431-16.164145-2.302439-43.842531 0 0-28.825512-6.92369-34.614355-4.602831 0 0-14.973016-50.785663-44.978401-63.476707 0 0-25.40153-6.160303-31.188326 18.464537 0 0-67.462484-34.32169-116.247584-42.98807 0 0-124.576273-23.941272-158.028153-81.907475 0 0-7.225565-14.702863-30.847565-6.064113 0 0-22.539342 17.877159-15.629979 89.412402 0 0 1.925862 14.629185-94.235245-46.910403 0 0-23.828708-6.15007-30.737048 12.299117 0 0-12.277628 43.839461 3.069919 76.157517 0 0-55.372122 9.988492-79.258135 33.845853 0 0-26.881231 34.621519 18.459421 40.003086 0 0-67.6344 38.458917-79.220273 146.908908 0 0-1.352811 76.092026 23.042809 160.503531-5.201465 13.784958-7.291057 28.891004-5.623068 44.325531 4.76349 44.065612 38.811957 79.014588 82.892919 85.201497 13.906731 42.314735 37.644365 81.08269 70.054519 113.492844 54.438866 54.43989 126.81936 84.420715 203.807802 84.420715s149.368936-29.980825 203.807802-84.420715c33.103956-33.103956 57.142441-72.847122 70.917166-116.219955 42.515303-5.446036 76.43688-37.905308 83.272565-80.361259 3.315512-20.59813-0.158612-40.962947-9.029654-58.588373C893.430734 510.723937 906.577149 455.697693 902.843104 405.38275zM249.33009 682.281221c-34.119075-8.148587-59.747779-36.671201-63.562665-71.965032-0.681522-6.302543-0.624217-12.541641 0.088004-18.627243 6.145977 17.761526 13.511735 35.603893 22.354124 52.91721 0 0 18.251689 18.251689 37.06722 11.517311 0.793062 4.607948 1.697665 9.187243 2.710738 13.734816L249.33009 682.281221zM529.296433 881.558847c-130.877793 0-240.674455-91.932806-268.243347-214.608799l-2.24411-20.760836c2.158153-2.558265 4.264117-5.611811 6.28617-9.259898 0 0 2.37714-85.404112 53.145407-136.171356 0 0 44.60694 12.345166 101.533464-19.235087 0 0-23.86657 29.237905-45.412282 44.620243 0 0-12.31856 30.005384 15.386432 33.093722 0 0 85.378529 16.156982 170.757059-40.003086 0 0-4.604878 28.464285 36.18513 19.984147 0 0 33.020044-0.757247 86.126566-41.538045 0 0 11.550057 19.230993 54.978149-4.596691 0 0-1.12359 38.054711 33.489742 96.899934 0 0 15.009855 24.477484 15.009855 67.613934 0 0 3.941775 3.251044 9.851369 6.099928l-3.554966 22.082948C758.519068 798.912545 653.386636 881.558847 529.296433 881.558847zM874.159832 611.744725c-5.579065 34.649148-32.109302 61.567217-66.044182 68.327178 1.058099-4.046153 2.030239-8.120958 2.913353-12.220323 10.411117 0.582261 21.852704-4.29277 29.481452-23.61586 0 0 15.436574-28.598338 31.023574-70.148663C875.205651 585.976852 876.243283 598.807065 874.159832 611.744725z" p-id="3153"></path></svg>