<?xml version="1.0" standalone="no"?><!DOCTYPE svg PUBLIC "-//W3C//DTD SVG 1.1//EN" "http://www.w3.org/Graphics/SVG/1.1/DTD/svg11.dtd"><svg t="1542618931959" class="icon" style="" viewBox="0 0 1024 1024" version="1.1" xmlns="http://www.w3.org/2000/svg" p-id="8212" xmlns:xlink="http://www.w3.org/1999/xlink" width="16" height="16"><defs><style type="text/css"></style></defs><path d="M523.091616 694.242647c-105.277742 0-151.851477-27.444049-173.902702-40.603767-22.051225-13.159718-66.207911-55.0682-91.219561-83.10065-20.064988-5.497201-38.127366-16.667611-51.140751-32.034601-16.270569-18.314111-26.038026-42.665729-26.038026-69.390393 0-31.850405 14.824637-62.234413 39.404452-82.179674C234.646158 221.810828 335.14813 73.900104 512.271176 73.900104l0 0 0 0c176.767959 0 277.266861 147.910725 291.537889 313.032436 24.765033 19.945261 39.400359 50.329269 39.400359 82.175581 0 26.728758-9.56689 51.080376-25.648147 69.390393-13.378705 15.370059-31.279401 26.713408-51.157123 32.034601-24.950252 44.296879-83.968413 82.433454-118.059859 100.470249C616.872512 682.5964 621.255333 688.907129 523.091616 694.242647zM435.809737 452.822203 435.809737 452.822203c13.922081 0 25.488511 11.543917 25.488511 25.809829 0 14.470573-11.567453 25.624611-25.488511 25.624611-13.912871 0-25.483394-11.154038-25.483394-25.624611C410.326343 464.365096 421.897889 452.822203 435.809737 452.822203L435.809737 452.822203 435.809737 452.822203zM607.330182 452.822203 607.330182 452.822203c13.752212 0 25.315572 11.543917 25.315572 25.809829 0 14.470573-11.56336 25.624611-25.315572 25.624611-14.270005 0-25.65224-11.154038-25.65224-25.624611C581.677942 464.365096 593.060177 452.822203 607.330182 452.822203L607.330182 452.822203 607.330182 452.822203zM467.466738 589.871555 467.466738 589.871555c-4.133134-2.752694-5.433756-5.90857-2.827395-10.31902 2.617617-4.297886 8.374738-5.730515 12.617365-2.864234 7.185656 4.50971 14.791891 7.9296 22.623253 10.241248 7.843642 2.423189 16.10684 3.641947 24.583908 3.641947 8.372691 0 16.539698-1.218758 24.367991-3.641947 7.831362-2.310625 15.549138-5.730515 22.621207-10.241248 4.353145-2.866281 10.014074-1.433652 12.617365 2.864234 2.830465 4.411473 1.416256 7.566326-2.825348 10.31902-8.488325 5.288446-17.622356 9.689686-27.41335 12.440333-9.351995 2.866281-19.355837 4.52199-29.366841 4.52199-10.214642 0-20.230764-1.655709-29.584806-4.52199C485.090117 599.561241 475.846592 595.160002 467.466738 589.871555L467.466738 589.871555 467.466738 589.871555zM774.803451 405.962965 774.803451 405.962965c-100.481506 20.502963-78.926584-53.320393-128.822994-78.025051-43.73406-20.862143-103.607706 36.642548-133.980457-4.726651-7.960299 35.147498-100.647281-0.053212-159.00234-0.420579s-60.457954 81.490989-104.213503 83.516112c-1.441838 6.767124-5.406127 12.44238-11.736299 16.291035-16.078187 9.521864-25.853831 26.897603-25.853831 45.569872 0 13.551644 5.069459 25.998117 13.19758 35.331693 8.141424 9.333576 19.712971 33.700543 32.721239 35.161824l0 0.188288c7.940856 0.895393 15.548114 4.288676 19.34765 11.972683 37.639249 30.221302 66.680678 68.032466 107.760283 90.617857 36.332487 22.884197 96.141664 30.746258 142.414547 30.746258 45.914726 0 89.01843-10.201339 125.518738-33.085536 37.236066-23.239284 57.918108-51.204196 94.273107-83.391269 3.445472-8.598842 11.028171-15.013949 20.435425-16.101723 13.012362-1.462305 24.575722-25.824155 32.885991-35.161824 7.956206-9.333576 13.012362-21.780049 13.012362-35.331693 0-18.672268-9.751085-36.046984-26.021653-45.569872C780.77649 419.698804 776.265756 413.288814 774.803451 405.962965L774.803451 405.962965 774.803451 405.962965zM272.605701 376.136659" p-id="8213"></path><path d="M217.73807 948.256922l70.588685-174.835957c0 0 23.805172-53.646827 80.274278-53.646827l285.175995 0c53.646827 0 80.679507 31.206746 93.189426 53.646827 12.508895 22.441105 59.295478 174.835957 59.295478 174.835957L217.73807 948.256922 217.73807 948.256922z" p-id="8214"></path></svg>