<?xml version="1.0" standalone="no"?><!DOCTYPE svg PUBLIC "-//W3C//DTD SVG 1.1//EN" "http://www.w3.org/Graphics/SVG/1.1/DTD/svg11.dtd"><svg t="1543051814676" class="icon" style="" viewBox="0 0 1024 1024" version="1.1" xmlns="http://www.w3.org/2000/svg" p-id="2098" xmlns:xlink="http://www.w3.org/1999/xlink" width="32" height="32"><defs><style type="text/css"></style></defs><path d="M512 512m-512 0a512 512 0 1 0 1024 0 512 512 0 1 0-1024 0Z" fill="#DE2910" p-id="2099"></path><path d="M264.533333 149.333333l38.4 81.066667 89.6 17.066667-64 59.733333 17.066667 93.866667-81.066667-42.666667-81.066666 42.666667 12.8-93.866667-64-59.733333 89.6-17.066667zM576 51.2l4.266667 34.133333 29.866666 17.066667-34.133333 12.8-4.266667 34.133333-21.333333-25.6h-34.133333l17.066666-25.6-12.8-34.133333 29.866667 8.533333zM712.533333 183.466667l-12.8 29.866666 17.066667 29.866667-29.866667-4.266667-21.333333 29.866667-8.533333-34.133333-34.133334-8.533334 29.866667-21.333333V170.666667l25.6 21.333333zM678.4 362.666667l12.8 29.866666 34.133333 4.266667-25.6 21.333333 8.533334 34.133334-29.866667-12.8-29.866667 12.8 4.266667-34.133334-25.6-21.333333 34.133333-4.266667zM520.533333 507.733333l34.133334 4.266667 25.6-25.6 4.266666 34.133333 29.866667 12.8-29.866667 17.066667-4.266666 34.133333-25.6-25.6-29.866667 8.533334 12.8-29.866667z" fill="#FFDE00" p-id="2100"></path></svg>
