<?xml version="1.0" standalone="no"?><!DOCTYPE svg PUBLIC "-//W3C//DTD SVG 1.1//EN" "http://www.w3.org/Graphics/SVG/1.1/DTD/svg11.dtd"><svg t="1542618922500" class="icon" style="" viewBox="0 0 1024 1024" version="1.1" xmlns="http://www.w3.org/2000/svg" p-id="7373" xmlns:xlink="http://www.w3.org/1999/xlink" width="32" height="32"><defs><style type="text/css"></style></defs><path d="M180.735361 567.411257c-13.643992-123.604218 45.393754-198.193528 68.155295-222.11901 21.047959 128.001334 131.525493 226.225141 265.346538 226.225141 126.80506 0 232.594492-88.233301 261.434399-206.405788 21.694593 38.60409 58.55277 117.590515 49.596879 202.299658 224.802544-1.842909 114.066356-258.815528-43.550845-286.976468-1.131611-13.159016-2.166226-26.285699-5.108414-38.959739-9.311539-81.217315-82.025608-246.303147-290.306637-241.227065C306.570469 4.45111 267.352076 139.66242 257.943541 222.076009c-6.33702 20.368992-10.378487 41.481614-11.801083 63.434862C12.190034 326.248855 38.023089 563.563781 180.735361 567.411257zM387.884779 225.567836c0 0 23.052526 7.82428 23.052526 82.930897 39.703369 13.902645 108.634625-116.5559 108.634625-116.5559L519.57193 294.693083c44.132816 11.865746 182.286315-4.009135 182.286315-4.009135l5.140746 4.461779c0.161659 2.166226 0.646635 4.300121 0.646635 6.595674 0 106.694721-86.843037 193.537758-193.376099 193.537758-105.207461 0-190.757229-84.547484-193.02045-189.269969C359.659176 292.009549 387.884779 225.567836 387.884779 225.567836z" p-id="7374"></path><path d="M574.180229 607.017631 460.857502 607.017631 365.640546 607.017631 87.490641 942.200714 147.918652 1024 355.520714 786.23243 367.515787 880.414771 330.301961 962.925355 707.322308 956.620667 657.369779 880.414771 666.648987 764.40851 829.051285 982.001078 936.74829 955.295066 679.1937 607.017631Z" p-id="7375"></path></svg>
