<?xml version="1.0" standalone="no"?><!DOCTYPE svg PUBLIC "-//W3C//DTD SVG 1.1//EN" "http://www.w3.org/Graphics/SVG/1.1/DTD/svg11.dtd"><svg t="1542252631698" class="icon" style="" viewBox="0 0 1024 1024" version="1.1" xmlns="http://www.w3.org/2000/svg" p-id="2637" xmlns:xlink="http://www.w3.org/1999/xlink" width="32" height="32"><defs><style type="text/css"></style></defs><path d="M447.012555 615.653695q-1.023424 1.982885-7.48379 3.006309t-17.462177-6.972078l-12.025236-4.989194q-25.009932-11.001811-48.99644-28.016241l-23.474795-17.97389q-19.445062-14.967581-22.515335-15.991005-37.994628 58.974827-75.989256 102.918109-45.990131 54.945093-59.998251 62.940596-1.982885 1.023424-11.001812 2.494597t-11.001811-0.511713q4.029733-1.982885 46.949591-52.002748 12.025236-14.00812 48.996439-65.946905t44.966706-66.970329q9.018927-17.014429 28.463989-56.48023t20.468487-44.454994q-4.029733 0-61.981136 18.997314-4.989194 1.023424-15.991005 4.029733t-19.509026 5.500906-10.490099 3.518021q-1.023424 1.023424-1.023425 5.500906v5.500906q-3.006309 6.012618-17.973889 9.018926-12.984696 4.029733-26.992817 0-9.978387-3.006309-15.991005-12.025235-1.982885-4.029733-3.006309-14.008121 4.029733-1.023424 14.519833-2.494597t16.502717-3.518021q33.005434-9.018927 59.998251-17.973889 56.991942-20.020738 57.951402-20.020739 6.012618-1.023424 25.009932-11.001811t25.009932-12.984696q4.989194-1.023424 12.472984-4.029734t8.507215-3.518021 3.006309 3.518021q1.023424 6.012618 0 17.97389 0 1.982885-7.483791 15.991005t-15.479293 30.510838-9.018927 19.509026q-14.967581 28.016241-44.007245 73.942407l36.011743 15.991005q6.972078 4.029733 42.472109 18.997314t38.506341 15.991006q3.006309 0 6.52433 14.00812t2.494596 17.97389v-6.012618zM330.086326 337.793991q1.023424 9.018927-3.006309 15.991005-6.012618 12.984696-28.01624 22.003623-17.014429 6.972078-33.964895 6.972078-14.967581-1.982885-28.016241-14.967581-7.995503-9.018927-11.001811-22.963083l1.023424-1.982885q1.982885 1.982885 11.001811 3.006309t14.967581 0 33.005435-9.018926q20.980199-6.972078 31.98201-7.995503 9.018927 0 12.025235 9.018927z m398.815667 74.006371l36.011743 129.910925-79.955025-23.986507z m-633.691549 456.703105l396.768818-131.957774V146.86139L95.210444 279.778625v588.660878z m709.616841-180.890249l57.951402 17.973889-103.941533-375.788619-56.991942-17.014429-122.938847 305.811981 57.951403 17.973889 25.969392-62.940596 119.932538 36.971204z m-287.838091-549.70679l327.815603 104.964957V25.969392z m177.88394 755.606971l89.933412 7.995502-30.958585 90.956837-22.963084-37.994628q-73.942407 47.973015-156.903741 61.981136-33.005434 6.972078-52.002749 6.972078h-47.973015q-44.966706 0-113.91992-22.515335t-104.964957-48.484728q-4.989194-4.029733-4.989194-9.018927t3.006309-7.995502 7.995503-3.006309q1.982885 0 9.978387 4.477481t17.462177 9.466675 11.513524 6.012618q41.960397 20.980199 91.468549 34.988319t89.4217 14.008121q53.985633 0 95.434318-7.995503t89.421701-28.975701q9.018927-4.029733 17.973889-9.018927t19.509027-11.001811 15.479292-9.018927z m255.856081-615.653695v615.653695l-441.735524-139.953277q-7.995503 3.006309-214.407396 72.471235T84.208633 895.496283q-6.972078 0-9.978388-6.972078 0-1.023424-1.023424-1.982884V270.887626q1.982885-4.989194 1.982885-6.012618 3.006309-3.006309 12.025236-6.012618 59.998251-20.020738 84.944218-28.975701V11.001811l318.796677 112.96046q1.023424 0 91.468549-31.470298t180.378537-61.981135T854.783184 0q12.025236 0 12.025236 12.025236v238.841651z" p-id="2638"></path></svg>
