<?xml version="1.0" standalone="no"?><!DOCTYPE svg PUBLIC "-//W3C//DTD SVG 1.1//EN" "http://www.w3.org/Graphics/SVG/1.1/DTD/svg11.dtd"><svg t="1542618835017" class="icon" style="" viewBox="0 0 1024 1024" version="1.1" xmlns="http://www.w3.org/2000/svg" p-id="2908" xmlns:xlink="http://www.w3.org/1999/xlink" width="32" height="32"><defs><style type="text/css"></style></defs><path d="M462.208 827.819a21.355 21.355 0 0 0 1.984-30.102L232.597 533.333h618.07a21.333 21.333 0 0 0 0-42.666H232.49l231.701-264.384a21.333 21.333 0 1 0-32.085-28.118L169.45 497.856c-0.96 1.11-1.472 2.41-2.176 3.648-0.47 0.832-1.067 1.536-1.43 2.39a21.333 21.333 0 0 0-1.685 8 21.333 21.333 0 0 0 1.685 8c0.342 0.853 0.96 1.578 1.43 2.389 0.704 1.237 1.194 2.538 2.176 3.648l262.656 299.861a21.29 21.29 0 0 0 30.101 2.027z" p-id="2909"></path></svg>
