<?xml version="1.0" standalone="no"?><!DOCTYPE svg PUBLIC "-//W3C//DTD SVG 1.1//EN" "http://www.w3.org/Graphics/SVG/1.1/DTD/svg11.dtd"><svg t="1542618855041" class="icon" style="" viewBox="0 0 1024 1024" version="1.1" xmlns="http://www.w3.org/2000/svg" p-id="3158" xmlns:xlink="http://www.w3.org/1999/xlink" width="32" height="32"><defs><style type="text/css"></style></defs><path d="M513.066 17.421c-267.859 0-485 217.142-485 485.001 0 267.857 217.142 485 485 485 267.857 0 485-217.143 485-485 0-267.859-217.142-485.001-485-485.001z m0 934.003c-247.978 0-449.002-201.025-449.002-449.002S265.089 53.419 513.066 53.419s449.002 201.025 449.002 449.002-201.025 449.003-449.002 449.003zM579.21 436.28c-10.876-10.259-24.208-17.94-39.022-22.069-58.796-33.093-170.698-95.437-241.085-130.63 16.413 39.39 87.538 172.957 124.82 242.343 3.834 16.263 11.912 30.886 23 42.641a93.832 93.832 0 0 0 3.884 3.894c12.181 11.49 27.447 19.743 44.422 23.396 60.688 34.089 164.961 91.989 231.802 125.41-15.707-37.695-81.52-161.638-119.827-233.043-3.534-20.317-13.616-38.38-27.994-51.942z m-20.149 119.982l-0.022 0.008-0.004 0.015c-11.872 10.077-27.233 16.168-44.025 16.168-37.604 0-68.087-30.483-68.087-68.087s30.483-68.087 68.087-68.087 68.087 30.483 68.087 68.087c-0.001 20.799-9.338 39.407-24.036 51.896z" p-id="3159"></path></svg>
