<?xml version="1.0" standalone="no"?><!DOCTYPE svg PUBLIC "-//W3C//DTD SVG 1.1//EN" "http://www.w3.org/Graphics/SVG/1.1/DTD/svg11.dtd"><svg t="1542618849166" class="icon" style="" viewBox="0 0 1024 1024" version="1.1" xmlns="http://www.w3.org/2000/svg" p-id="3033" xmlns:xlink="http://www.w3.org/1999/xlink" width="32" height="32"><defs><style type="text/css"></style></defs><path d="M932.736 364.992a70.208 70.208 0 0 0-49.472-20.096h-68.224c-14.528-37.568-44.544-50.176-62.656-51.072h-76.608c-14.656-42.368-49.536-58.496-70.272-60.992l-1.664-0.256H525.44V85.504a77.568 77.568 0 0 0-19.328-54.848C487.872 10.304 459.776 0 422.528 0c-36.352 0-64.576 10.048-83.776 30.016-22.272 23.04-23.296 50.688-23.232 56.768V440.96c-37.632-38.016-73.088-57.472-105.152-57.472-82.496 0-94.72 47.936-94.72 76.48 0 24.192 10.304 58.048 11.52 61.888l1.088 3.584 236.16 377.536V1024h482.304L960 728.576V441.6c0-33.536-9.152-59.264-27.264-76.608z m-31.744 352.704l-94.784 247.296h-382.72v-78.912L182.4 500.672c-3.072-10.624-7.872-30.08-7.872-40.704 0-8.448 1.664-9.984 2.176-10.56 3.072-3.136 13.696-6.848 33.664-6.848 29.568 0 79.552 53.12 104.128 89.088l1.024-0.64v98.368h59.008v-542.72l-0.064-1.088c0-0.064 0.576-8.192 6.784-14.656 7.552-7.808 21.76-11.968 41.28-11.968 18.752 0 32.768 3.712 39.232 10.56 4.352 4.48 4.736 10.24 4.864 12.032l-0.192 0.512v351.36h59.008V291.584h74.048c4.736 1.28 24.128 8.32 24.128 46.016v95.872h58.88v-80.64h68.416l-1.984 0.064c6.08 1.664 15.424 12.224 15.424 41.728v95.936h58.944V403.84h60.288l1.28-0.128s3.968 0.96 7.04 3.904c5.888 5.568 9.088 17.728 9.088 34.048v276.032z" p-id="3034"></path></svg>
