<?xml version="1.0" standalone="no"?><!DOCTYPE svg PUBLIC "-//W3C//DTD SVG 1.1//EN" "http://www.w3.org/Graphics/SVG/1.1/DTD/svg11.dtd"><svg t="1542618773090" class="icon" style="" viewBox="0 0 1024 1024" version="1.1" xmlns="http://www.w3.org/2000/svg" p-id="1908" xmlns:xlink="http://www.w3.org/1999/xlink" width="32" height="32"><defs><style type="text/css"></style></defs><path d="M932.736 364.992c-20.096-19.328-43.072-20.352-49.472-20.096l-68.224 0c-14.528-37.568-44.544-50.176-62.656-51.072l-76.608 0C661.12 251.456 626.24 235.328 605.504 232.832L603.84 232.576 525.44 232.576 525.44 85.504c0.448-8 0.064-33.152-19.328-54.848C487.872 10.304 459.776 0 422.528 0 386.176 0 357.952 10.048 338.752 30.016 316.48 53.056 315.456 80.704 315.52 86.784l0 354.176C277.888 402.944 242.432 383.488 210.368 383.488c-82.496 0-94.72 47.936-94.72 76.48 0 24.192 10.304 58.048 11.52 61.888L128.256 525.44l236.16 377.536L364.416 1024l482.304 0L960 728.576 960 441.6C960 408.064 950.848 382.336 932.736 364.992zM900.992 717.696l-94.784 247.296-382.72 0 0-78.912L182.4 500.672c-3.072-10.624-7.872-30.08-7.872-40.704 0-8.448 1.664-9.984 2.176-10.56 3.072-3.136 13.696-6.848 33.664-6.848 29.568 0 79.552 53.12 104.128 89.088l1.024-0.64 0 98.368 59.008 0 0-542.72L374.464 85.568c0-0.064 0.576-8.192 6.784-14.656 7.552-7.808 21.76-11.968 41.28-11.968 18.752 0 32.768 3.712 39.232 10.56 4.352 4.48 4.736 10.24 4.864 12.032L466.432 82.048l0 351.36L525.44 433.408 525.44 291.584l74.048 0c4.736 1.28 24.128 8.32 24.128 46.016l0 95.872 58.88 0 0-80.64L748.8 352.832l0.064 0 2.048 0-1.984 0.064c6.08 1.664 15.424 12.224 15.424 41.728l0 95.936 58.944 0L823.296 403.84l60.288 0 1.28-0.128c0 0 3.968 0.96 7.04 3.904 5.888 5.568 9.088 17.728 9.088 34.048L900.992 717.696 900.992 717.696z" p-id="1909"></path></svg>
