<?xml version="1.0" standalone="no"?><!DOCTYPE svg PUBLIC "-//W3C//DTD SVG 1.1//EN" "http://www.w3.org/Graphics/SVG/1.1/DTD/svg11.dtd"><svg t="1628585277113" class="icon" viewBox="0 0 1024 1024" version="1.1" xmlns="http://www.w3.org/2000/svg" p-id="21214" xmlns:xlink="http://www.w3.org/1999/xlink" width="200" height="200"><defs><style type="text/css"></style></defs><path d="M921.514667 76.8H102.485333A68.539733 68.539733 0 0 0 34.133333 145.152v563.029333A68.539733 68.539733 0 0 0 102.485333 776.533333h187.511467c30.429867 0 45.653333 36.8128 24.098133 58.299734l-61.405866 61.218133c-13.073067 22.749867 3.345067 51.1488 29.5936 51.1488h467.165866c26.248533 0 42.666667-28.381867 29.5936-51.131733l-61.405866-61.218134c-21.5552-21.486933-6.331733-58.299733 24.098133-58.299733h179.780267A68.539733 68.539733 0 0 0 989.866667 708.1984V145.152A68.539733 68.539733 0 0 0 921.514667 76.8z m-91.477334 563.387733h-648.533333c-18.773333 0-34.133333-15.36-34.133333-34.133333s15.36-34.133333 34.133333-34.133333h648.533333c18.773333 0 34.133333 15.36 34.133334 34.133333s-15.36 34.133333-34.133334 34.133333z" fill="#cccccc" p-id="21215"></path></svg>