<?xml version="1.0" encoding="UTF-8" standalone="no"?>
<!DOCTYPE svg PUBLIC "-//W3C//DTD SVG 1.1//EN"
 "http://www.w3.org/Graphics/SVG/1.1/DTD/svg11.dtd">
<!-- Generated by graphviz version 2.38.0 (20140413.2041)
 -->
<!-- Title: UML Pages: 1 -->
<svg width="525pt" height="237pt"
 viewBox="0.00 0.00 525.00 237.00" xmlns="http://www.w3.org/2000/svg" xmlns:xlink="http://www.w3.org/1999/xlink">
<g id="graph0" class="graph" transform="scale(1 1) rotate(0) translate(4 233)">
<title>UML</title>
<polygon fill="white" stroke="none" points="-4,4 -4,-233 521,-233 521,4 -4,4"/>
<g id="clust1" class="cluster"><title>clusterAssetsManager</title>
<polygon fill="none" stroke="black" points="220.5,-65 220.5,-164 457.5,-164 457.5,-65 220.5,-65"/>
</g>
<!-- asset_info_t -->
<g id="node1" class="node"><title>asset_info_t</title>
<polygon fill="none" stroke="black" points="360,-73.5 360,-155.5 449,-155.5 449,-73.5 360,-73.5"/>
<text text-anchor="middle" x="404.5" y="-143.5" font-family="Courier New" font-size="10.00">asset_info_t</text>
<polyline fill="none" stroke="black" points="360,-136.5 449,-136.5 "/>
<text text-anchor="start" x="368" y="-124.5" font-family="Courier New" font-size="10.00">+name</text>
<text text-anchor="start" x="368" y="-113.5" font-family="Courier New" font-size="10.00">+data</text>
<text text-anchor="start" x="368" y="-102.5" font-family="Courier New" font-size="10.00">+size</text>
<text text-anchor="start" x="368" y="-91.5" font-family="Courier New" font-size="10.00">+type</text>
<text text-anchor="start" x="368" y="-80.5" font-family="Courier New" font-size="10.00">+subtype</text>
</g>
<!-- assets_manager_t -->
<g id="node2" class="node"><title>assets_manager_t</title>
<polygon fill="none" stroke="black" points="229,-96.5 229,-132.5 342,-132.5 342,-96.5 229,-96.5"/>
<text text-anchor="middle" x="285.5" y="-112" font-family="Courier New" font-size="10.00">assets_manager_t</text>
</g>
<!-- assets_manager_t&#45;&gt;asset_info_t -->
<g id="edge1" class="edge"><title>assets_manager_t&#45;&gt;asset_info_t</title>
<path fill="none" stroke="black" d="M342.211,-114.5C348.051,-114.5 353.89,-114.5 359.73,-114.5"/>
</g>
<!-- fs -->
<g id="node8" class="node"><title>fs</title>
<polygon fill="none" stroke="black" points="180.5,-0.5 180.5,-36.5 234.5,-36.5 234.5,-0.5 180.5,-0.5"/>
<text text-anchor="middle" x="207.5" y="-16" font-family="Courier New" font-size="10.00">fs</text>
</g>
<!-- assets_manager_t&#45;&gt;fs -->
<g id="edge7" class="edge"><title>assets_manager_t&#45;&gt;fs</title>
<path fill="none" stroke="black" d="M271.194,-96.259C259.209,-81.8159 241.939,-61.0037 228.405,-44.6932"/>
<polygon fill="black" stroke="black" points="221.716,-36.6317 231.565,-41.4538 224.909,-40.4796 228.101,-44.3274 228.101,-44.3274 228.101,-44.3274 224.909,-40.4796 224.638,-47.201 221.716,-36.6317 221.716,-36.6317"/>
</g>
<!-- rom_data -->
<g id="node9" class="node"><title>rom_data</title>
<polygon fill="none" stroke="black" points="253,-0.5 253,-36.5 318,-36.5 318,-0.5 253,-0.5"/>
<text text-anchor="middle" x="285.5" y="-16" font-family="Courier New" font-size="10.00">rom_data</text>
</g>
<!-- assets_manager_t&#45;&gt;rom_data -->
<g id="edge8" class="edge"><title>assets_manager_t&#45;&gt;rom_data</title>
<path fill="none" stroke="black" d="M285.5,-96.259C285.5,-82.4784 285.5,-62.8997 285.5,-46.9651"/>
<polygon fill="black" stroke="black" points="285.5,-36.6317 290,-46.6317 285.5,-41.6317 285.5,-46.6317 285.5,-46.6317 285.5,-46.6317 285.5,-41.6317 281,-46.6318 285.5,-36.6317 285.5,-36.6317"/>
</g>
<!-- network -->
<g id="node10" class="node"><title>network</title>
<polygon fill="none" stroke="black" points="336,-0.5 336,-36.5 395,-36.5 395,-0.5 336,-0.5"/>
<text text-anchor="middle" x="365.5" y="-16" font-family="Courier New" font-size="10.00">network</text>
</g>
<!-- assets_manager_t&#45;&gt;network -->
<g id="edge9" class="edge"><title>assets_manager_t&#45;&gt;network</title>
<path fill="none" stroke="black" d="M300.173,-96.259C312.465,-81.8159 330.178,-61.0037 344.059,-44.6932"/>
<polygon fill="black" stroke="black" points="350.92,-36.6317 347.866,-47.1637 347.679,-40.4395 344.439,-44.2472 344.439,-44.2472 344.439,-44.2472 347.679,-40.4395 341.012,-41.3306 350.92,-36.6317 350.92,-36.6317"/>
</g>
<!-- locale_info_t -->
<g id="node3" class="node"><title>locale_info_t</title>
<polygon fill="none" stroke="black" points="0,-192.5 0,-228.5 95,-228.5 95,-192.5 0,-192.5"/>
<text text-anchor="middle" x="47.5" y="-208" font-family="Courier New" font-size="10.00">locale_info_t</text>
</g>
<!-- locale_info_t&#45;&gt;assets_manager_t -->
<g id="edge2" class="edge"><title>locale_info_t&#45;&gt;assets_manager_t</title>
<path fill="none" stroke="black" d="M90.6,-192.477C130.576,-176.688 190.165,-153.153 232.923,-136.266"/>
<polygon fill="black" stroke="black" points="242.319,-132.555 234.671,-140.414 237.669,-134.391 233.018,-136.228 233.018,-136.228 233.018,-136.228 237.669,-134.391 231.365,-132.043 242.319,-132.555 242.319,-132.555"/>
</g>
<!-- font_manager_t -->
<g id="node4" class="node"><title>font_manager_t</title>
<polygon fill="none" stroke="black" points="113,-192.5 113,-228.5 214,-228.5 214,-192.5 113,-192.5"/>
<text text-anchor="middle" x="163.5" y="-208" font-family="Courier New" font-size="10.00">font_manager_t</text>
</g>
<!-- font_manager_t&#45;&gt;assets_manager_t -->
<g id="edge3" class="edge"><title>font_manager_t&#45;&gt;assets_manager_t</title>
<path fill="none" stroke="black" d="M185.593,-192.477C204.991,-177.531 233.399,-155.644 254.968,-139.025"/>
<polygon fill="black" stroke="black" points="263.159,-132.714 257.984,-142.382 259.198,-135.765 255.237,-138.817 255.237,-138.817 255.237,-138.817 259.198,-135.765 252.491,-135.252 263.159,-132.714 263.159,-132.714"/>
</g>
<!-- image_manager_t -->
<g id="node5" class="node"><title>image_manager_t</title>
<polygon fill="none" stroke="black" points="232,-192.5 232,-228.5 339,-228.5 339,-192.5 232,-192.5"/>
<text text-anchor="middle" x="285.5" y="-208" font-family="Courier New" font-size="10.00">image_manager_t</text>
</g>
<!-- image_manager_t&#45;&gt;assets_manager_t -->
<g id="edge4" class="edge"><title>image_manager_t&#45;&gt;assets_manager_t</title>
<path fill="none" stroke="black" d="M285.5,-192.259C285.5,-178.478 285.5,-158.9 285.5,-142.965"/>
<polygon fill="black" stroke="black" points="285.5,-132.632 290,-142.632 285.5,-137.632 285.5,-142.632 285.5,-142.632 285.5,-142.632 285.5,-137.632 281,-142.632 285.5,-132.632 285.5,-132.632"/>
</g>
<!-- theme_t -->
<g id="node6" class="node"><title>theme_t</title>
<polygon fill="none" stroke="black" points="357,-192.5 357,-228.5 416,-228.5 416,-192.5 357,-192.5"/>
<text text-anchor="middle" x="386.5" y="-208" font-family="Courier New" font-size="10.00">theme_t</text>
</g>
<!-- theme_t&#45;&gt;assets_manager_t -->
<g id="edge5" class="edge"><title>theme_t&#45;&gt;assets_manager_t</title>
<path fill="none" stroke="black" d="M367.975,-192.259C352.172,-177.551 329.271,-156.238 311.61,-139.8"/>
<polygon fill="black" stroke="black" points="303.908,-132.632 314.294,-136.151 307.568,-136.038 311.228,-139.445 311.228,-139.445 311.228,-139.445 307.568,-136.038 308.162,-142.739 303.908,-132.632 303.908,-132.632"/>
</g>
<!-- ui_loader_t -->
<g id="node7" class="node"><title>ui_loader_t</title>
<polygon fill="none" stroke="black" points="434,-192.5 434,-228.5 517,-228.5 517,-192.5 434,-192.5"/>
<text text-anchor="middle" x="475.5" y="-208" font-family="Courier New" font-size="10.00">ui_loader_t</text>
</g>
<!-- ui_loader_t&#45;&gt;assets_manager_t -->
<g id="edge6" class="edge"><title>ui_loader_t&#45;&gt;assets_manager_t</title>
<path fill="none" stroke="black" d="M433.88,-194.882C400.898,-183.189 359.127,-168.095 351.5,-164 338.422,-156.979 325.035,-147.619 313.766,-138.996"/>
<polygon fill="black" stroke="black" points="305.601,-132.595 316.248,-135.223 309.537,-135.68 313.472,-138.765 313.472,-138.765 313.472,-138.765 309.537,-135.68 310.695,-142.306 305.601,-132.595 305.601,-132.595"/>
</g>
</g>
</svg>
