<?xml version="1.0" encoding="UTF-8" standalone="no"?>
<!DOCTYPE svg PUBLIC "-//W3C//DTD SVG 1.1//EN"
 "http://www.w3.org/Graphics/SVG/1.1/DTD/svg11.dtd">
<!-- Generated by graphviz version 2.28.0 (20111028.1807)
 -->
<!-- Title: UML Pages: 1 -->
<svg width="520pt" height="256pt"
 viewBox="0.00 0.00 520.00 256.00" xmlns="http://www.w3.org/2000/svg" xmlns:xlink="http://www.w3.org/1999/xlink">
<g id="graph1" class="graph" transform="scale(1 1) rotate(0) translate(4 252)">
<title>UML</title>
<polygon fill="white" stroke="white" points="-4,5 -4,-252 517,-252 517,5 -4,5"/>
<g id="graph2" class="cluster"><title>clusterAssetsManager</title>
<polygon fill="none" stroke="black" points="219,-66 219,-182 453,-182 453,-66 219,-66"/>
</g>
<!-- asset_info_t -->
<g id="node2" class="node"><title>asset_info_t</title>
<polygon fill="none" stroke="black" points="356.994,-75.2188 356.994,-172.781 445.006,-172.781 445.006,-75.2188 356.994,-75.2188"/>
<text text-anchor="middle" x="401" y="-158.781" font-family="Courier New" font-size="10.00">asset_info_t</text>
<polyline fill="none" stroke="black" points="356.994,-151.188 445.006,-151.188 "/>
<text text-anchor="start" x="364.994" y="-137.188" font-family="Courier New" font-size="10.00">+name</text>
<text text-anchor="start" x="364.994" y="-123.594" font-family="Courier New" font-size="10.00">+data</text>
<text text-anchor="start" x="364.994" y="-110" font-family="Courier New" font-size="10.00">+size</text>
<text text-anchor="start" x="364.994" y="-96.4062" font-family="Courier New" font-size="10.00">+type</text>
<text text-anchor="start" x="364.994" y="-82.8125" font-family="Courier New" font-size="10.00">+subtype</text>
</g>
<!-- assets_manager_t -->
<g id="node3" class="node"><title>assets_manager_t</title>
<polygon fill="none" stroke="black" points="226.992,-106 226.992,-142 339.008,-142 339.008,-106 226.992,-106"/>
<text text-anchor="middle" x="283" y="-120.797" font-family="Courier New" font-size="10.00">assets_manager_t</text>
</g>
<!-- assets_manager_t&#45;&gt;asset_info_t -->
<g id="edge3" class="edge"><title>assets_manager_t&#45;&gt;asset_info_t</title>
<path fill="none" stroke="black" d="M339.234,-124C345.025,-124 350.815,-124 356.606,-124"/>
</g>
<!-- fs -->
<g id="node16" class="node"><title>fs</title>
<polygon fill="none" stroke="black" points="179,-1 179,-37 233,-37 233,-1 179,-1"/>
<text text-anchor="middle" x="205.501" y="-15.7969" font-family="Courier New" font-size="10.00">fs</text>
</g>
<!-- assets_manager_t&#45;&gt;fs -->
<g id="edge15" class="edge"><title>assets_manager_t&#45;&gt;fs</title>
<path fill="none" stroke="black" d="M270.285,-105.992C257.913,-89.442 238.966,-64.0976 224.843,-45.2052"/>
<polygon fill="black" stroke="black" points="218.734,-37.0336 228.326,-42.3485 221.728,-41.0383 224.721,-45.043 224.721,-45.043 224.721,-45.043 221.728,-41.0383 221.117,-47.7374 218.734,-37.0336 218.734,-37.0336"/>
</g>
<!-- rom_data -->
<g id="node18" class="node"><title>rom_data</title>
<polygon fill="none" stroke="black" points="250.996,-1 250.996,-37 315.004,-37 315.004,-1 250.996,-1"/>
<text text-anchor="middle" x="283" y="-15.7969" font-family="Courier New" font-size="10.00">rom_data</text>
</g>
<!-- assets_manager_t&#45;&gt;rom_data -->
<g id="edge17" class="edge"><title>assets_manager_t&#45;&gt;rom_data</title>
<path fill="none" stroke="black" d="M283,-105.992C283,-90.0384 283,-65.9128 283,-47.272"/>
<polygon fill="black" stroke="black" points="283,-37.0336 287.5,-47.0336 283,-42.0336 283,-47.0336 283,-47.0336 283,-47.0336 283,-42.0336 278.5,-47.0337 283,-37.0336 283,-37.0336"/>
</g>
<!-- network -->
<g id="node20" class="node"><title>network</title>
<polygon fill="none" stroke="black" points="332.997,-1 332.997,-37 391.003,-37 391.003,-1 332.997,-1"/>
<text text-anchor="middle" x="362" y="-15.7969" font-family="Courier New" font-size="10.00">network</text>
</g>
<!-- assets_manager_t&#45;&gt;network -->
<g id="edge19" class="edge"><title>assets_manager_t&#45;&gt;network</title>
<path fill="none" stroke="black" d="M296.045,-105.992C308.739,-89.442 328.178,-64.0976 342.668,-45.2052"/>
<polygon fill="black" stroke="black" points="348.935,-37.0336 346.42,-47.7072 345.892,-41.001 342.849,-44.9685 342.849,-44.9685 342.849,-44.9685 345.892,-41.001 339.279,-42.2298 348.935,-37.0336 348.935,-37.0336"/>
</g>
<!-- locale_info_t -->
<g id="node5" class="node"><title>locale_info_t</title>
<polygon fill="none" stroke="black" points="-0.00634766,-211 -0.00634766,-247 94.0063,-247 94.0063,-211 -0.00634766,-211"/>
<text text-anchor="middle" x="47" y="-225.797" font-family="Courier New" font-size="10.00">locale_info_t</text>
</g>
<!-- locale_info_t&#45;&gt;assets_manager_t -->
<g id="edge5" class="edge"><title>locale_info_t&#45;&gt;assets_manager_t</title>
<path fill="none" stroke="black" d="M85.9706,-210.992C126.708,-193.212 190.704,-165.282 234.641,-146.106"/>
<polygon fill="black" stroke="black" points="243.972,-142.034 236.606,-150.158 239.389,-144.034 234.806,-146.034 234.806,-146.034 234.806,-146.034 239.389,-144.034 233.006,-141.909 243.972,-142.034 243.972,-142.034"/>
</g>
<!-- font_manager_t -->
<g id="node7" class="node"><title>font_manager_t</title>
<polygon fill="none" stroke="black" points="111.993,-211 111.993,-247 212.007,-247 212.007,-211 111.993,-211"/>
<text text-anchor="middle" x="162" y="-225.797" font-family="Courier New" font-size="10.00">font_manager_t</text>
</g>
<!-- font_manager_t&#45;&gt;assets_manager_t -->
<g id="edge7" class="edge"><title>font_manager_t&#45;&gt;assets_manager_t</title>
<path fill="none" stroke="black" d="M181.981,-210.992C201.948,-193.995 232.813,-167.721 255.173,-148.688"/>
<polygon fill="black" stroke="black" points="262.99,-142.034 258.292,-151.942 259.182,-145.275 255.375,-148.516 255.375,-148.516 255.375,-148.516 259.182,-145.275 252.458,-145.089 262.99,-142.034 262.99,-142.034"/>
</g>
<!-- image_manager_t -->
<g id="node9" class="node"><title>image_manager_t</title>
<polygon fill="none" stroke="black" points="229.993,-211 229.993,-247 336.007,-247 336.007,-211 229.993,-211"/>
<text text-anchor="middle" x="283" y="-225.797" font-family="Courier New" font-size="10.00">image_manager_t</text>
</g>
<!-- image_manager_t&#45;&gt;assets_manager_t -->
<g id="edge9" class="edge"><title>image_manager_t&#45;&gt;assets_manager_t</title>
<path fill="none" stroke="black" d="M283,-210.992C283,-195.038 283,-170.913 283,-152.272"/>
<polygon fill="black" stroke="black" points="283,-142.034 287.5,-152.034 283,-147.034 283,-152.034 283,-152.034 283,-152.034 283,-147.034 278.5,-152.034 283,-142.034 283,-142.034"/>
</g>
<!-- theme_t -->
<g id="node11" class="node"><title>theme_t</title>
<polygon fill="none" stroke="black" points="353.997,-211 353.997,-247 412.003,-247 412.003,-211 353.997,-211"/>
<text text-anchor="middle" x="383" y="-225.797" font-family="Courier New" font-size="10.00">theme_t</text>
</g>
<!-- theme_t&#45;&gt;assets_manager_t -->
<g id="edge11" class="edge"><title>theme_t&#45;&gt;assets_manager_t</title>
<path fill="none" stroke="black" d="M366.487,-210.992C350.202,-194.218 325.147,-168.411 306.731,-149.443"/>
<polygon fill="black" stroke="black" points="299.537,-142.034 309.732,-146.074 303.02,-145.621 306.503,-149.208 306.503,-149.208 306.503,-149.208 303.02,-145.621 303.275,-152.343 299.537,-142.034 299.537,-142.034"/>
</g>
<!-- ui_loader_t -->
<g id="node13" class="node"><title>ui_loader_t</title>
<polygon fill="none" stroke="black" points="429.995,-211 429.995,-247 512.005,-247 512.005,-211 429.995,-211"/>
<text text-anchor="middle" x="471" y="-225.797" font-family="Courier New" font-size="10.00">ui_loader_t</text>
</g>
<!-- ui_loader_t&#45;&gt;assets_manager_t -->
<g id="edge13" class="edge"><title>ui_loader_t&#45;&gt;assets_manager_t</title>
<path fill="none" stroke="black" d="M429.775,-212.984C395.513,-200.441 351.767,-184.252 348,-182 332.889,-172.965 317.978,-160.241 306.258,-149.107"/>
<polygon fill="black" stroke="black" points="299.046,-142.075 309.347,-145.835 302.626,-145.566 306.205,-149.056 306.205,-149.056 306.205,-149.056 302.626,-145.566 303.064,-152.278 299.046,-142.075 299.046,-142.075"/>
</g>
</g>
</svg>
