<?xml version="1.0" encoding="UTF-8" standalone="no"?>
<!DOCTYPE svg PUBLIC "-//W3C//DTD SVG 1.1//EN"
 "http://www.w3.org/Graphics/SVG/1.1/DTD/svg11.dtd">
<!-- Generated by graphviz version 2.38.0 (20140413.2041)
 -->
<!-- Title: UML Pages: 1 -->
<svg width="225pt" height="255pt"
 viewBox="0.00 0.00 225.00 255.00" xmlns="http://www.w3.org/2000/svg" xmlns:xlink="http://www.w3.org/1999/xlink">
<g id="graph0" class="graph" transform="scale(1 1) rotate(0) translate(4 251)">
<title>UML</title>
<polygon fill="white" stroke="none" points="-4,4 -4,-251 221,-251 221,4 -4,4"/>
<g id="clust1" class="cluster"><title>clusterImageManager</title>
<polygon fill="none" stroke="black" points="8,-65 8,-239 209,-239 209,-65 8,-65"/>
</g>
<!-- bitmap_t -->
<g id="node1" class="node"><title>bitmap_t</title>
<polygon fill="none" stroke="black" points="135.5,-73.5 135.5,-155.5 200.5,-155.5 200.5,-73.5 135.5,-73.5"/>
<text text-anchor="middle" x="168" y="-143.5" font-family="Courier New" font-size="10.00">bitmap_t</text>
<polyline fill="none" stroke="black" points="135.5,-136.5 200.5,-136.5 "/>
<text text-anchor="start" x="143.5" y="-124.5" font-family="Courier New" font-size="10.00">+x</text>
<text text-anchor="start" x="143.5" y="-113.5" font-family="Courier New" font-size="10.00">+y</text>
<text text-anchor="start" x="143.5" y="-102.5" font-family="Courier New" font-size="10.00">+w</text>
<text text-anchor="start" x="143.5" y="-91.5" font-family="Courier New" font-size="10.00">+h</text>
<text text-anchor="start" x="143.5" y="-80.5" font-family="Courier New" font-size="10.00">+data</text>
</g>
<!-- image_manager_t -->
<g id="node2" class="node"><title>image_manager_t</title>
<polygon fill="none" stroke="black" points="16.5,-192.5 16.5,-230.5 135.5,-230.5 135.5,-192.5 16.5,-192.5"/>
<text text-anchor="middle" x="76" y="-218.5" font-family="Courier New" font-size="10.00">image_manager_t</text>
<polyline fill="none" stroke="black" points="16.5,-211.5 135.5,-211.5 "/>
<text text-anchor="start" x="24.5" y="-199.5" font-family="Courier New" font-size="10.00">+ get_bitmap(...)</text>
</g>
<!-- image_manager_t&#45;&gt;bitmap_t -->
<g id="edge1" class="edge"><title>image_manager_t&#45;&gt;bitmap_t</title>
<path fill="none" stroke="black" d="M93.6161,-192.309C105.398,-180.144 121.257,-163.767 135.305,-149.261"/>
</g>
<!-- image_loader_t -->
<g id="node3" class="node"><title>image_loader_t</title>
<polygon fill="none" stroke="black" points="16.5,-95.5 16.5,-133.5 117.5,-133.5 117.5,-95.5 16.5,-95.5"/>
<text text-anchor="middle" x="67" y="-121.5" font-family="Courier New" font-size="10.00">image_loader_t</text>
<polyline fill="none" stroke="black" points="16.5,-114.5 117.5,-114.5 "/>
<text text-anchor="start" x="24.5" y="-102.5" font-family="Courier New" font-size="10.00">+ load(...)</text>
</g>
<!-- image_loader_t&#45;&gt;image_manager_t -->
<g id="edge2" class="edge"><title>image_loader_t&#45;&gt;image_manager_t</title>
<path fill="none" stroke="black" d="M68.7353,-133.817C70.0302,-147.485 71.8237,-166.417 73.3047,-182.049"/>
<polygon fill="black" stroke="black" points="74.27,-192.239 68.8469,-182.708 73.7984,-187.262 73.3268,-182.284 73.3268,-182.284 73.3268,-182.284 73.7984,-187.262 77.8067,-181.859 74.27,-192.239 74.27,-192.239"/>
</g>
<!-- image_loader_stb_t -->
<g id="node4" class="node"><title>image_loader_stb_t</title>
<polygon fill="none" stroke="black" points="4.5,-0.5 4.5,-36.5 129.5,-36.5 129.5,-0.5 4.5,-0.5"/>
<text text-anchor="middle" x="67" y="-16" font-family="Courier New" font-size="10.00">image_loader_stb_t</text>
</g>
<!-- image_loader_stb_t&#45;&gt;image_loader_t -->
<g id="edge3" class="edge"><title>image_loader_stb_t&#45;&gt;image_loader_t</title>
<path fill="none" stroke="black" stroke-dasharray="5,2" d="M67,-36.741C67,-50.2632 67,-69.3682 67,-85.1348"/>
<polygon fill="none" stroke="black" points="63.5001,-85.4071 67,-95.4072 70.5001,-85.4072 63.5001,-85.4071"/>
</g>
</g>
</svg>
