<?xml version="1.0" encoding="UTF-8" standalone="no"?>
<!DOCTYPE svg PUBLIC "-//W3C//DTD SVG 1.1//EN"
 "http://www.w3.org/Graphics/SVG/1.1/DTD/svg11.dtd">
<!-- Generated by graphviz version 2.38.0 (20140413.2041)
 -->
<!-- Title: UML Pages: 1 -->
<svg width="759pt" height="264pt"
 viewBox="0.00 0.00 759.00 264.00" xmlns="http://www.w3.org/2000/svg" xmlns:xlink="http://www.w3.org/1999/xlink">
<g id="graph0" class="graph" transform="scale(1 1) rotate(0) translate(4 260)">
<title>UML</title>
<polygon fill="white" stroke="none" points="-4,4 -4,-260 755,-260 755,4 -4,4"/>
<g id="clust1" class="cluster"><title>cluster_1</title>
<polygon fill="none" stroke="black" points="316.5,-138 316.5,-191 553.5,-191 553.5,-138 316.5,-138"/>
</g>
<!-- input_method_t -->
<g id="node1" class="node"><title>input_method_t</title>
<polygon fill="none" stroke="black" points="325,-146.5 325,-182.5 426,-182.5 426,-146.5 325,-146.5"/>
<text text-anchor="middle" x="375.5" y="-162" font-family="Courier New" font-size="10.00">input_method_t</text>
</g>
<!-- edit_t -->
<g id="node2" class="node"><title>edit_t</title>
<polygon fill="none" stroke="black" points="348.5,-219.5 348.5,-255.5 402.5,-255.5 402.5,-219.5 348.5,-219.5"/>
<text text-anchor="middle" x="375.5" y="-235" font-family="Courier New" font-size="10.00">edit_t</text>
</g>
<!-- input_method_t&#45;&gt;edit_t -->
<g id="edge1" class="edge"><title>input_method_t&#45;&gt;edit_t</title>
<path fill="none" stroke="black" d="M375.5,-182.687C375.5,-193.85 375.5,-208.34 375.5,-219.471"/>
</g>
<!-- input_engine_t -->
<g id="node3" class="node"><title>input_engine_t</title>
<polygon fill="none" stroke="black" points="444,-146.5 444,-182.5 545,-182.5 545,-146.5 444,-146.5"/>
<text text-anchor="middle" x="494.5" y="-162" font-family="Courier New" font-size="10.00">input_engine_t</text>
</g>
<!-- input_method_t&#45;&gt;input_engine_t -->
<g id="edge2" class="edge"><title>input_method_t&#45;&gt;input_engine_t</title>
<path fill="none" stroke="black" stroke-dasharray="5,2" d="M426.168,-164.5C428.645,-164.5 431.123,-164.5 433.6,-164.5"/>
<polygon fill="black" stroke="black" points="443.785,-164.5 433.785,-169 438.785,-164.5 433.785,-164.5 433.785,-164.5 433.785,-164.5 438.785,-164.5 433.785,-160 443.785,-164.5 443.785,-164.5"/>
</g>
<!-- input_method_default_t -->
<g id="node4" class="node"><title>input_method_default_t</title>
<polygon fill="none" stroke="black" points="0,-73.5 0,-109.5 149,-109.5 149,-73.5 0,-73.5"/>
<text text-anchor="middle" x="74.5" y="-89" font-family="Courier New" font-size="10.00">input_method_default_t</text>
</g>
<!-- input_method_default_t&#45;&gt;input_method_t -->
<g id="edge3" class="edge"><title>input_method_default_t&#45;&gt;input_method_t</title>
<path fill="none" stroke="black" stroke-dasharray="5,2" d="M146.597,-109.506C198.014,-121.635 266.37,-137.758 314.961,-149.22"/>
<polygon fill="none" stroke="black" points="314.174,-152.63 324.711,-151.52 315.781,-145.817 314.174,-152.63"/>
</g>
<!-- input_method_sdl_t -->
<g id="node5" class="node"><title>input_method_sdl_t</title>
<polygon fill="none" stroke="black" points="167,-73.5 167,-109.5 292,-109.5 292,-73.5 167,-73.5"/>
<text text-anchor="middle" x="229.5" y="-89" font-family="Courier New" font-size="10.00">input_method_sdl_t</text>
</g>
<!-- input_method_sdl_t&#45;&gt;input_method_t -->
<g id="edge4" class="edge"><title>input_method_sdl_t&#45;&gt;input_method_t</title>
<path fill="none" stroke="black" stroke-dasharray="5,2" d="M264.471,-109.506C284.459,-119.227 309.725,-131.513 331.103,-141.91"/>
<polygon fill="none" stroke="black" points="329.785,-145.161 340.309,-146.386 332.846,-138.866 329.785,-145.161"/>
</g>
<!-- input_method_null_t -->
<g id="node6" class="node"><title>input_method_null_t</title>
<polygon fill="none" stroke="black" points="310,-73.5 310,-109.5 441,-109.5 441,-73.5 310,-73.5"/>
<text text-anchor="middle" x="375.5" y="-89" font-family="Courier New" font-size="10.00">input_method_null_t</text>
</g>
<!-- input_method_null_t&#45;&gt;input_method_t -->
<g id="edge5" class="edge"><title>input_method_null_t&#45;&gt;input_method_t</title>
<path fill="none" stroke="black" stroke-dasharray="5,2" d="M375.5,-109.687C375.5,-117.711 375.5,-127.453 375.5,-136.431"/>
<polygon fill="none" stroke="black" points="372,-136.471 375.5,-146.471 379,-136.471 372,-136.471"/>
</g>
<!-- input_engine_pinyin_t -->
<g id="node7" class="node"><title>input_engine_pinyin_t</title>
<polygon fill="none" stroke="black" points="459,-73.5 459,-109.5 602,-109.5 602,-73.5 459,-73.5"/>
<text text-anchor="middle" x="530.5" y="-89" font-family="Courier New" font-size="10.00">input_engine_pinyin_t</text>
</g>
<!-- input_engine_pinyin_t&#45;&gt;input_engine_t -->
<g id="edge6" class="edge"><title>input_engine_pinyin_t&#45;&gt;input_engine_t</title>
<path fill="none" stroke="black" stroke-dasharray="5,2" d="M521.785,-109.687C517.585,-117.972 512.455,-128.09 507.781,-137.307"/>
<polygon fill="none" stroke="black" points="504.535,-135.969 503.134,-146.471 510.778,-139.135 504.535,-135.969"/>
</g>
<!-- input_engine_null_t -->
<g id="node8" class="node"><title>input_engine_null_t</title>
<polygon fill="none" stroke="black" points="620,-73.5 620,-109.5 751,-109.5 751,-73.5 620,-73.5"/>
<text text-anchor="middle" x="685.5" y="-89" font-family="Courier New" font-size="10.00">input_engine_null_t</text>
</g>
<!-- input_engine_null_t&#45;&gt;input_engine_t -->
<g id="edge7" class="edge"><title>input_engine_null_t&#45;&gt;input_engine_t</title>
<path fill="none" stroke="black" stroke-dasharray="5,2" d="M639.751,-109.506C612.781,-119.532 578.467,-132.287 549.963,-142.883"/>
<polygon fill="none" stroke="black" points="548.692,-139.621 540.538,-146.386 551.131,-146.183 548.692,-139.621"/>
</g>
<!-- keyboard_t -->
<g id="node9" class="node"><title>keyboard_t</title>
<polygon fill="none" stroke="black" points="36,-0.5 36,-36.5 113,-36.5 113,-0.5 36,-0.5"/>
<text text-anchor="middle" x="74.5" y="-16" font-family="Courier New" font-size="10.00">keyboard_t</text>
</g>
<!-- keyboard_t&#45;&gt;input_method_default_t -->
<g id="edge8" class="edge"><title>keyboard_t&#45;&gt;input_method_default_t</title>
<path fill="none" stroke="black" d="M74.5,-36.6871C74.5,-47.8501 74.5,-62.3398 74.5,-73.4712"/>
</g>
</g>
</svg>
