<?xml version="1.0" encoding="UTF-8" standalone="no"?>
<!DOCTYPE svg PUBLIC "-//W3C//DTD SVG 1.1//EN"
 "http://www.w3.org/Graphics/SVG/1.1/DTD/svg11.dtd">
<!-- Generated by graphviz version 2.28.0 (20111028.1807)
 -->
<!-- Title: G Pages: 1 -->
<svg width="242pt" height="99pt"
 viewBox="0.00 0.00 242.00 99.00" xmlns="http://www.w3.org/2000/svg" xmlns:xlink="http://www.w3.org/1999/xlink">
<g id="graph1" class="graph" transform="scale(1 1) rotate(0) translate(4 95)">
<title>G</title>
<polygon fill="white" stroke="white" points="-4,5 -4,-95 239,-95 239,5 -4,5"/>
<!-- self_layout -->
<g id="node1" class="node"><title>self_layout</title>
<polygon fill="none" stroke="black" points="124.394,-55 124.394,-91 219.606,-91 219.606,-55 124.394,-55"/>
<text text-anchor="middle" x="172" y="-69.5" font-family="Courier New" font-size="12.00">self_layout</text>
</g>
<!-- widget_t -->
<g id="node3" class="node"><title>widget_t</title>
<polygon fill="none" stroke="black" points="0.195312,-27 0.195312,-63 73.8047,-63 73.8047,-27 0.195312,-27"/>
<text text-anchor="middle" x="37" y="-41.5" font-family="Courier New" font-size="12.00">widget_t</text>
</g>
<!-- self_layout&#45;&gt;widget_t -->
<g id="edge2" class="edge"><title>self_layout&#45;&gt;widget_t</title>
<path fill="none" stroke="black" d="M124.109,-63.1282C111.769,-60.5303 98.4398,-57.7242 86.0403,-55.1137"/>
<polygon fill="none" stroke="black" points="85.7645,-55.0558 79.0691,-57.7338 74.0219,-52.5835 80.7172,-49.9054 85.7645,-55.0558"/>
</g>
<!-- children_layout -->
<g id="node4" class="node"><title>children_layout</title>
<polygon fill="none" stroke="black" points="109.991,-0 109.991,-36 234.009,-36 234.009,-0 109.991,-0"/>
<text text-anchor="middle" x="172" y="-14.5" font-family="Courier New" font-size="12.00">children_layout</text>
</g>
<!-- children_layout&#45;&gt;widget_t -->
<g id="edge4" class="edge"><title>children_layout&#45;&gt;widget_t</title>
<path fill="none" stroke="black" d="M109.95,-30.3937C101.883,-32.0312 93.7089,-33.6907 85.9061,-35.2747"/>
<polygon fill="none" stroke="black" points="85.7792,-35.3004 80.695,-40.4142 74.0191,-37.6878 79.1033,-32.5741 85.7792,-35.3004"/>
</g>
</g>
</svg>
