<?xml version="1.0" encoding="UTF-8" standalone="no"?>
<!DOCTYPE svg PUBLIC "-//W3C//DTD SVG 1.1//EN"
 "http://www.w3.org/Graphics/SVG/1.1/DTD/svg11.dtd">
<!-- Generated by graphviz version 2.28.0 (20111028.1807)
 -->
<!-- Title: G Pages: 1 -->
<svg width="809pt" height="136pt"
 viewBox="0.00 0.00 809.00 136.00" xmlns="http://www.w3.org/2000/svg" xmlns:xlink="http://www.w3.org/1999/xlink">
<g id="graph1" class="graph" transform="scale(1 1) rotate(0) translate(4 132)">
<title>G</title>
<polygon fill="white" stroke="white" points="-4,5 -4,-132 806,-132 806,5 -4,5"/>
<g id="graph2" class="cluster"><title>clusterFontManager</title>
<polygon fill="none" stroke="black" points="347,-66 347,-120 715,-120 715,-66 347,-66"/>
</g>
<!-- children_layouter_factory -->
<g id="node2" class="node"><title>children_layouter_factory</title>
<polygon fill="none" stroke="black" points="510.985,-75 510.985,-111 707.015,-111 707.015,-75 510.985,-75"/>
<text text-anchor="middle" x="609" y="-89.1562" font-family="Courier New" font-size="12.00">children_layouter_factory</text>
</g>
<!-- children_layouter -->
<g id="node4" class="node"><title>children_layouter</title>
<polygon fill="none" stroke="black" points="354.79,-75 354.79,-111 493.21,-111 493.21,-75 354.79,-75"/>
<text text-anchor="middle" x="424" y="-89.1562" font-family="Courier New" font-size="12.00">children_layouter</text>
</g>
<!-- children_layouter_factory&#45;&gt;children_layouter -->
<g id="edge3" class="edge"><title>children_layouter_factory&#45;&gt;children_layouter</title>
<path fill="none" stroke="black" d="M510.538,-93C508.214,-93 505.89,-93 503.566,-93"/>
<polygon fill="black" stroke="black" points="503.375,-89.5001 493.375,-93 503.375,-96.5001 503.375,-89.5001"/>
</g>
<!-- children_layouter_default -->
<g id="node5" class="node"><title>children_layouter_default</title>
<polygon fill="none" stroke="black" points="-0.0146484,-1 -0.0146484,-37 196.015,-37 196.015,-1 -0.0146484,-1"/>
<text text-anchor="middle" x="98" y="-15.1562" font-family="Courier New" font-size="12.00">children_layouter_default</text>
</g>
<!-- children_layouter_default&#45;&gt;children_layouter -->
<g id="edge5" class="edge"><title>children_layouter_default&#45;&gt;children_layouter</title>
<path fill="none" stroke="black" stroke-dasharray="5,2" d="M175.257,-37.063C226.466,-48.3729 293.458,-63.1687 345.016,-74.5558"/>
<polygon fill="none" stroke="black" points="344.265,-77.974 354.784,-76.7131 345.774,-71.1388 344.265,-77.974"/>
</g>
<!-- children_layouter_list_view -->
<g id="node7" class="node"><title>children_layouter_list_view</title>
<polygon fill="none" stroke="black" points="213.784,-1 213.784,-37 424.216,-37 424.216,-1 213.784,-1"/>
<text text-anchor="middle" x="319" y="-15.1562" font-family="Courier New" font-size="12.00">children_layouter_list_view</text>
</g>
<!-- children_layouter_list_view&#45;&gt;children_layouter -->
<g id="edge7" class="edge"><title>children_layouter_list_view&#45;&gt;children_layouter</title>
<path fill="none" stroke="black" stroke-dasharray="5,2" d="M343.884,-37.063C357.774,-46.5878 375.27,-58.5851 390.366,-68.9365"/>
<polygon fill="none" stroke="black" points="388.705,-72.0412 398.931,-74.81 392.663,-66.2681 388.705,-72.0412"/>
</g>
<!-- children_layouter_flex -->
<g id="node9" class="node"><title>children_layouter_flex</title>
<polygon fill="none" stroke="black" points="441.787,-1 441.787,-37 616.213,-37 616.213,-1 441.787,-1"/>
<text text-anchor="middle" x="529" y="-15.1562" font-family="Courier New" font-size="12.00">children_layouter_flex</text>
</g>
<!-- children_layouter_flex&#45;&gt;children_layouter -->
<g id="edge9" class="edge"><title>children_layouter_flex&#45;&gt;children_layouter</title>
<path fill="none" stroke="black" stroke-dasharray="5,2" d="M504.116,-37.063C490.226,-46.5878 472.73,-58.5851 457.634,-68.9365"/>
<polygon fill="none" stroke="black" points="455.337,-66.2681 449.069,-74.81 459.295,-72.0412 455.337,-66.2681"/>
</g>
<!-- children_layouter_xxx -->
<g id="node11" class="node"><title>children_layouter_xxx</title>
<polygon fill="none" stroke="black" points="634.388,-1 634.388,-37 801.612,-37 801.612,-1 634.388,-1"/>
<text text-anchor="middle" x="718" y="-15.1562" font-family="Courier New" font-size="12.00">children_layouter_xxx</text>
</g>
<!-- children_layouter_xxx&#45;&gt;children_layouter -->
<g id="edge11" class="edge"><title>children_layouter_xxx&#45;&gt;children_layouter</title>
<path fill="none" stroke="black" stroke-dasharray="5,2" d="M634.198,-36.8436C584.589,-47.0111 526.74,-59.265 502,-66 495.522,-67.7634 488.792,-69.7564 482.121,-71.8351"/>
<polygon fill="none" stroke="black" points="480.89,-68.5539 472.425,-74.9253 483.016,-75.2233 480.89,-68.5539"/>
</g>
</g>
</svg>
