<?xml version="1.0" encoding="UTF-8" standalone="no"?>
<!DOCTYPE svg PUBLIC "-//W3C//DTD SVG 1.1//EN"
 "http://www.w3.org/Graphics/SVG/1.1/DTD/svg11.dtd">
<!-- Generated by graphviz version 2.38.0 (20140413.2041)
 -->
<!-- Title: G Pages: 1 -->
<svg width="842pt" height="134pt"
 viewBox="0.00 0.00 842.00 134.00" xmlns="http://www.w3.org/2000/svg" xmlns:xlink="http://www.w3.org/1999/xlink">
<g id="graph0" class="graph" transform="scale(1 1) rotate(0) translate(4 130)">
<title>G</title>
<polygon fill="white" stroke="none" points="-4,4 -4,-130 838,-130 838,4 -4,4"/>
<g id="clust1" class="cluster"><title>clusterFontManager</title>
<polygon fill="none" stroke="black" points="361,-65 361,-118 743,-118 743,-65 361,-65"/>
</g>
<!-- children_layouter_factory -->
<g id="node1" class="node"><title>children_layouter_factory</title>
<polygon fill="none" stroke="black" points="531,-73.5 531,-109.5 735,-109.5 735,-73.5 531,-73.5"/>
<text text-anchor="middle" x="633" y="-88.4" font-family="Courier New" font-size="12.00">children_layouter_factory</text>
</g>
<!-- children_layouter -->
<g id="node2" class="node"><title>children_layouter</title>
<polygon fill="none" stroke="black" points="369,-73.5 369,-109.5 513,-109.5 513,-73.5 369,-73.5"/>
<text text-anchor="middle" x="441" y="-88.4" font-family="Courier New" font-size="12.00">children_layouter</text>
</g>
<!-- children_layouter_factory&#45;&gt;children_layouter -->
<g id="edge1" class="edge"><title>children_layouter_factory&#45;&gt;children_layouter</title>
<path fill="none" stroke="black" d="M530.665,-91.5C528.323,-91.5 525.982,-91.5 523.641,-91.5"/>
<polygon fill="black" stroke="black" points="523.375,-88.0001 513.375,-91.5 523.375,-95.0001 523.375,-88.0001"/>
</g>
<!-- children_layouter_default -->
<g id="node3" class="node"><title>children_layouter_default</title>
<polygon fill="none" stroke="black" points="0,-0.5 0,-36.5 204,-36.5 204,-0.5 0,-0.5"/>
<text text-anchor="middle" x="102" y="-15.4" font-family="Courier New" font-size="12.00">children_layouter_default</text>
</g>
<!-- children_layouter_default&#45;&gt;children_layouter -->
<g id="edge2" class="edge"><title>children_layouter_default&#45;&gt;children_layouter</title>
<path fill="none" stroke="black" stroke-dasharray="5,2" d="M183.199,-36.5063C236.289,-47.6253 305.413,-62.1026 358.718,-73.267"/>
<polygon fill="none" stroke="black" points="358.314,-76.7582 368.819,-75.3825 359.749,-69.9068 358.314,-76.7582"/>
</g>
<!-- children_layouter_list_view -->
<g id="node4" class="node"><title>children_layouter_list_view</title>
<polygon fill="none" stroke="black" points="222.5,-0.5 222.5,-36.5 441.5,-36.5 441.5,-0.5 222.5,-0.5"/>
<text text-anchor="middle" x="332" y="-15.4" font-family="Courier New" font-size="12.00">children_layouter_list_view</text>
</g>
<!-- children_layouter_list_view&#45;&gt;children_layouter -->
<g id="edge3" class="edge"><title>children_layouter_list_view&#45;&gt;children_layouter</title>
<path fill="none" stroke="black" stroke-dasharray="5,2" d="M358.108,-36.5063C372.563,-45.9215 390.713,-57.7446 406.343,-67.9252"/>
<polygon fill="none" stroke="black" points="404.438,-70.8611 414.727,-73.3864 408.258,-64.9957 404.438,-70.8611"/>
</g>
<!-- children_layouter_flex -->
<g id="node5" class="node"><title>children_layouter_flex</title>
<polygon fill="none" stroke="black" points="460,-0.5 460,-36.5 642,-36.5 642,-0.5 460,-0.5"/>
<text text-anchor="middle" x="551" y="-15.4" font-family="Courier New" font-size="12.00">children_layouter_flex</text>
</g>
<!-- children_layouter_flex&#45;&gt;children_layouter -->
<g id="edge4" class="edge"><title>children_layouter_flex&#45;&gt;children_layouter</title>
<path fill="none" stroke="black" stroke-dasharray="5,2" d="M524.652,-36.5063C510.065,-45.9215 491.748,-57.7446 475.975,-67.9252"/>
<polygon fill="none" stroke="black" points="474.018,-65.0227 467.514,-73.3864 477.814,-70.904 474.018,-65.0227"/>
</g>
<!-- children_layouter_xxx -->
<g id="node6" class="node"><title>children_layouter_xxx</title>
<polygon fill="none" stroke="black" points="660,-0.5 660,-36.5 834,-36.5 834,-0.5 660,-0.5"/>
<text text-anchor="middle" x="747" y="-15.4" font-family="Courier New" font-size="12.00">children_layouter_xxx</text>
</g>
<!-- children_layouter_xxx&#45;&gt;children_layouter -->
<g id="edge5" class="edge"><title>children_layouter_xxx&#45;&gt;children_layouter</title>
<path fill="none" stroke="black" stroke-dasharray="5,2" d="M659.732,-36.1671C608.066,-46.2267 547.808,-58.3478 522,-65 515.478,-66.6812 508.703,-68.5745 501.975,-70.5506"/>
<polygon fill="none" stroke="black" points="500.755,-67.2623 492.184,-73.4902 502.768,-73.9667 500.755,-67.2623"/>
</g>
</g>
</svg>
