<?xml version="1.0" encoding="UTF-8" standalone="no"?>
<!DOCTYPE svg PUBLIC "-//W3C//DTD SVG 1.1//EN"
 "http://www.w3.org/Graphics/SVG/1.1/DTD/svg11.dtd">
<!-- Generated by graphviz version 2.38.0 (20140413.2041)
 -->
<!-- Title: G Pages: 1 -->
<svg width="700pt" height="150pt"
 viewBox="0.00 0.00 700.00 150.00" xmlns="http://www.w3.org/2000/svg" xmlns:xlink="http://www.w3.org/1999/xlink">
<g id="graph0" class="graph" transform="scale(1 1) rotate(0) translate(4 146)">
<title>G</title>
<polygon fill="white" stroke="none" points="-4,4 -4,-146 696,-146 696,4 -4,4"/>
<g id="clust1" class="cluster"><title>clusterFontManager</title>
<polygon fill="none" stroke="black" points="8,-8 8,-134 198,-134 198,-8 8,-8"/>
</g>
<!-- self_layouter_default -->
<g id="node1" class="node"><title>self_layouter_default</title>
<polygon fill="none" stroke="black" points="16,-16.5 16,-52.5 190,-52.5 190,-16.5 16,-16.5"/>
<text text-anchor="middle" x="103" y="-31.4" font-family="Courier New" font-size="12.00">self_layouter_default</text>
</g>
<!-- self_layouter -->
<g id="node2" class="node"><title>self_layouter</title>
<polygon fill="none" stroke="black" points="76,-89.5 76,-125.5 190,-125.5 190,-89.5 76,-89.5"/>
<text text-anchor="middle" x="133" y="-104.4" font-family="Courier New" font-size="12.00">self_layouter</text>
</g>
<!-- self_layouter_default&#45;&gt;self_layouter -->
<g id="edge1" class="edge"><title>self_layouter_default&#45;&gt;self_layouter</title>
<path fill="none" stroke="black" d="M104.384,-52.6871C107.018,-60.9721 111.072,-71.0897 115.393,-80.3067"/>
<polygon fill="black" stroke="black" points="112.361,-82.0709 119.943,-89.4712 118.631,-78.9579 112.361,-82.0709"/>
</g>
<!-- self_layouter_default&#45;&gt;self_layouter -->
<g id="edge2" class="edge"><title>self_layouter_default&#45;&gt;self_layouter</title>
<path fill="none" stroke="black" stroke-dasharray="5,2" d="M116.14,-52.6871C120.462,-60.8849 124.909,-70.8769 128.362,-80.0153"/>
<polygon fill="none" stroke="black" points="125.063,-81.1856 131.666,-89.4712 131.671,-78.8763 125.063,-81.1856"/>
</g>
<!-- self_layouter_menu -->
<g id="node3" class="node"><title>self_layouter_menu</title>
<polygon fill="none" stroke="black" points="208,-16.5 208,-52.5 360,-52.5 360,-16.5 208,-16.5"/>
<text text-anchor="middle" x="284" y="-31.4" font-family="Courier New" font-size="12.00">self_layouter_menu</text>
</g>
<!-- self_layouter_menu&#45;&gt;self_layouter -->
<g id="edge3" class="edge"><title>self_layouter_menu&#45;&gt;self_layouter</title>
<path fill="none" stroke="black" stroke-dasharray="5,2" d="M247.832,-52.5063C227.066,-62.2702 200.793,-74.6237 178.62,-85.0494"/>
<polygon fill="none" stroke="black" points="176.957,-81.9639 169.396,-89.3864 179.935,-88.2986 176.957,-81.9639"/>
</g>
<!-- self_layouter_flex -->
<g id="node4" class="node"><title>self_layouter_flex</title>
<polygon fill="none" stroke="black" points="378,-16.5 378,-52.5 530,-52.5 530,-16.5 378,-16.5"/>
<text text-anchor="middle" x="454" y="-31.4" font-family="Courier New" font-size="12.00">self_layouter_flex</text>
</g>
<!-- self_layouter_flex&#45;&gt;self_layouter -->
<g id="edge4" class="edge"><title>self_layouter_flex&#45;&gt;self_layouter</title>
<path fill="none" stroke="black" stroke-dasharray="5,2" d="M377.927,-52.326C323.847,-64.2878 251.888,-80.204 199.976,-91.686"/>
<polygon fill="none" stroke="black" points="199.207,-88.2714 190.199,-93.8485 200.719,-95.1062 199.207,-88.2714"/>
</g>
<!-- self_layouter_xxx -->
<g id="node5" class="node"><title>self_layouter_xxx</title>
<polygon fill="none" stroke="black" points="548,-16.5 548,-52.5 692,-52.5 692,-16.5 548,-16.5"/>
<text text-anchor="middle" x="620" y="-31.4" font-family="Courier New" font-size="12.00">self_layouter_xxx</text>
</g>
<!-- self_layouter_xxx&#45;&gt;self_layouter -->
<g id="edge5" class="edge"><title>self_layouter_xxx&#45;&gt;self_layouter</title>
<path fill="none" stroke="black" stroke-dasharray="5,2" d="M547.634,-51.4414C544.721,-51.9857 541.835,-52.5078 539,-53 420.269,-73.6132 280.777,-90.3838 200.067,-99.3637"/>
<polygon fill="none" stroke="black" points="199.595,-95.8945 190.04,-100.473 200.365,-102.852 199.595,-95.8945"/>
</g>
</g>
</svg>
