<?xml version="1.0" encoding="UTF-8" standalone="no"?>
<!DOCTYPE svg PUBLIC "-//W3C//DTD SVG 1.1//EN"
 "http://www.w3.org/Graphics/SVG/1.1/DTD/svg11.dtd">
<!-- Generated by graphviz version 2.28.0 (20111028.1807)
 -->
<!-- Title: G Pages: 1 -->
<svg width="675pt" height="152pt"
 viewBox="0.00 0.00 675.00 152.00" xmlns="http://www.w3.org/2000/svg" xmlns:xlink="http://www.w3.org/1999/xlink">
<g id="graph1" class="graph" transform="scale(1 1) rotate(0) translate(4 148)">
<title>G</title>
<polygon fill="white" stroke="white" points="-4,5 -4,-148 672,-148 672,5 -4,5"/>
<g id="graph2" class="cluster"><title>clusterFontManager</title>
<polygon fill="none" stroke="black" points="8,-8 8,-136 192,-136 192,-8 8,-8"/>
</g>
<!-- self_layouter_default -->
<g id="node2" class="node"><title>self_layouter_default</title>
<polygon fill="none" stroke="black" points="16.3877,-17 16.3877,-53 183.612,-53 183.612,-17 16.3877,-17"/>
<text text-anchor="middle" x="100" y="-31.1562" font-family="Courier New" font-size="12.00">self_layouter_default</text>
</g>
<!-- self_layouter -->
<g id="node4" class="node"><title>self_layouter</title>
<polygon fill="none" stroke="black" points="74.1924,-91 74.1924,-127 183.808,-127 183.808,-91 74.1924,-91"/>
<text text-anchor="middle" x="129" y="-105.156" font-family="Courier New" font-size="12.00">self_layouter</text>
</g>
<!-- self_layouter_default&#45;&gt;self_layouter -->
<g id="edge3" class="edge"><title>self_layouter_default&#45;&gt;self_layouter</title>
<path fill="none" stroke="black" d="M101.033,-53.063C103.549,-61.5463 107.524,-71.9908 111.784,-81.487"/>
<polygon fill="black" stroke="black" points="108.642,-83.03 116.096,-90.5593 114.964,-80.0251 108.642,-83.03"/>
</g>
<!-- self_layouter_default&#45;&gt;self_layouter -->
<g id="edge5" class="edge"><title>self_layouter_default&#45;&gt;self_layouter</title>
<path fill="none" stroke="black" stroke-dasharray="5,2" d="M112.713,-53.063C116.94,-61.3695 121.284,-71.5565 124.645,-80.8923"/>
<polygon fill="none" stroke="black" points="121.382,-82.1716 127.855,-90.5593 128.025,-79.9659 121.382,-82.1716"/>
</g>
<!-- self_layouter_menu -->
<g id="node6" class="node"><title>self_layouter_menu</title>
<polygon fill="none" stroke="black" points="201.189,-17 201.189,-53 346.811,-53 346.811,-17 201.189,-17"/>
<text text-anchor="middle" x="274" y="-31.1562" font-family="Courier New" font-size="12.00">self_layouter_menu</text>
</g>
<!-- self_layouter_menu&#45;&gt;self_layouter -->
<g id="edge7" class="edge"><title>self_layouter_menu&#45;&gt;self_layouter</title>
<path fill="none" stroke="black" stroke-dasharray="5,2" d="M233.797,-53.063C212.85,-62.9439 187.45,-75.4856 166.856,-86.0903"/>
<polygon fill="none" stroke="black" points="165.028,-83.0958 157.765,-90.81 168.253,-89.3084 165.028,-83.0958"/>
</g>
<!-- self_layouter_menu&#45;&gt;self_layouter -->
<g id="edge11" class="edge"><title>self_layouter_menu&#45;&gt;self_layouter</title>
<path fill="none" stroke="black" stroke-dasharray="5,2" d="M245.477,-53.063C226.302,-63.114 200.645,-75.9181 178.252,-86.6362"/>
<polygon fill="none" stroke="black" points="176.737,-83.481 169.207,-90.9349 179.742,-89.8033 176.737,-83.481"/>
</g>
<!-- self_layouter_flex -->
<g id="node8" class="node"><title>self_layouter_flex</title>
<polygon fill="none" stroke="black" points="365.189,-17 365.189,-53 510.811,-53 510.811,-17 365.189,-17"/>
<text text-anchor="middle" x="438" y="-31.1562" font-family="Courier New" font-size="12.00">self_layouter_flex</text>
</g>
<!-- self_layouter_flex&#45;&gt;self_layouter -->
<g id="edge9" class="edge"><title>self_layouter_flex&#45;&gt;self_layouter</title>
<path fill="none" stroke="black" stroke-dasharray="5,2" d="M365.163,-52.9718C313.14,-65.0935 243.784,-81.2543 193.705,-92.9231"/>
<polygon fill="none" stroke="black" points="192.902,-89.5164 183.957,-95.1945 194.491,-96.3338 192.902,-89.5164"/>
</g>
<!-- self_layouter_xxx -->
<g id="node11" class="node"><title>self_layouter_xxx</title>
<polygon fill="none" stroke="black" points="528.79,-17 528.79,-53 667.21,-53 667.21,-17 528.79,-17"/>
<text text-anchor="middle" x="598" y="-31.1562" font-family="Courier New" font-size="12.00">self_layouter_xxx</text>
</g>
<!-- self_layouter_xxx&#45;&gt;self_layouter -->
<g id="edge13" class="edge"><title>self_layouter_xxx&#45;&gt;self_layouter</title>
<path fill="none" stroke="black" stroke-dasharray="5,2" d="M528.708,-52.1444C525.431,-52.7957 522.183,-53.4182 519,-54 405.26,-74.7919 271.553,-91.6836 193.926,-100.751"/>
<polygon fill="none" stroke="black" points="193.346,-97.2951 183.816,-101.925 194.153,-104.248 193.346,-97.2951"/>
</g>
</g>
</svg>
