<?xml version="1.0" encoding="UTF-8" standalone="no"?>
<!DOCTYPE svg PUBLIC "-//W3C//DTD SVG 1.1//EN"
 "http://www.w3.org/Graphics/SVG/1.1/DTD/svg11.dtd">
<!-- Generated by graphviz version 2.28.0 (20111028.1807)
 -->
<!-- Title: G Pages: 1 -->
<svg width="619pt" height="194pt"
 viewBox="0.00 0.00 619.00 194.00" xmlns="http://www.w3.org/2000/svg" xmlns:xlink="http://www.w3.org/1999/xlink">
<g id="graph1" class="graph" transform="scale(1 1) rotate(0) translate(4 190)">
<title>G</title>
<polygon fill="white" stroke="white" points="-4,5 -4,-190 616,-190 616,5 -4,5"/>
<!-- lcd_mem_fragment_t -->
<g id="node1" class="node"><title>lcd_mem_fragment_t</title>
<polygon fill="none" stroke="black" points="-0.810547,-75 -0.810547,-111 144.811,-111 144.811,-75 -0.810547,-75"/>
<text text-anchor="middle" x="72" y="-89.1562" font-family="Courier New" font-size="12.00">lcd_mem_fragment_t</text>
</g>
<!-- lcd_t -->
<g id="node3" class="node"><title>lcd_t</title>
<polygon fill="none" stroke="black" points="282.997,-149 282.997,-185 335.003,-185 335.003,-149 282.997,-149"/>
<text text-anchor="middle" x="309" y="-163.156" font-family="Courier New" font-size="12.00">lcd_t</text>
</g>
<!-- lcd_mem_fragment_t&#45;&gt;lcd_t -->
<g id="edge2" class="edge"><title>lcd_mem_fragment_t&#45;&gt;lcd_t</title>
<path fill="none" stroke="black" d="M128.166,-111.063C173.024,-124.691 234.543,-143.38 273.017,-155.068"/>
<polygon fill="none" stroke="black" points="272.165,-158.468 282.751,-158.026 274.2,-151.77 272.165,-158.468"/>
</g>
<!-- lcd_mono_t -->
<g id="node4" class="node"><title>lcd_mono_t</title>
<polygon fill="none" stroke="black" points="162.994,-75 162.994,-111 251.006,-111 251.006,-75 162.994,-75"/>
<text text-anchor="middle" x="207" y="-89.1562" font-family="Courier New" font-size="12.00">lcd_mono_t</text>
</g>
<!-- lcd_mono_t&#45;&gt;lcd_t -->
<g id="edge4" class="edge"><title>lcd_mono_t&#45;&gt;lcd_t</title>
<path fill="none" stroke="black" d="M231.173,-111.063C244.666,-120.588 261.662,-132.585 276.327,-142.937"/>
<polygon fill="none" stroke="black" points="274.459,-145.902 284.647,-148.81 278.496,-140.184 274.459,-145.902"/>
</g>
<!-- lcd_mem_t -->
<g id="node6" class="node"><title>lcd_mem_t</title>
<polygon fill="none" stroke="black" points="268.595,-75 268.595,-111 349.405,-111 349.405,-75 268.595,-75"/>
<text text-anchor="middle" x="309" y="-89.1562" font-family="Courier New" font-size="12.00">lcd_mem_t</text>
</g>
<!-- lcd_mem_t&#45;&gt;lcd_t -->
<g id="edge6" class="edge"><title>lcd_mem_t&#45;&gt;lcd_t</title>
<path fill="none" stroke="black" d="M309,-111.063C309,-119.193 309,-129.124 309,-138.295"/>
<polygon fill="none" stroke="black" points="305.5,-138.559 309,-148.559 312.5,-138.559 305.5,-138.559"/>
</g>
<!-- lcd_vgcanvas_t -->
<g id="node8" class="node"><title>lcd_vgcanvas_t</title>
<polygon fill="none" stroke="black" points="367.592,-75 367.592,-111 484.408,-111 484.408,-75 367.592,-75"/>
<text text-anchor="middle" x="426" y="-89.1562" font-family="Courier New" font-size="12.00">lcd_vgcanvas_t</text>
</g>
<!-- lcd_vgcanvas_t&#45;&gt;lcd_t -->
<g id="edge8" class="edge"><title>lcd_vgcanvas_t&#45;&gt;lcd_t</title>
<path fill="none" stroke="black" d="M398.273,-111.063C382.045,-121.049 361.401,-133.753 344.054,-144.429"/>
<polygon fill="none" stroke="black" points="342.005,-141.579 335.323,-149.801 345.674,-147.541 342.005,-141.579"/>
</g>
<!-- lcd_profile_t -->
<g id="node10" class="node"><title>lcd_profile_t</title>
<polygon fill="none" stroke="black" points="502.192,-75 502.192,-111 611.808,-111 611.808,-75 502.192,-75"/>
<text text-anchor="middle" x="557" y="-89.1562" font-family="Courier New" font-size="12.00">lcd_profile_t</text>
</g>
<!-- lcd_profile_t&#45;&gt;lcd_t -->
<g id="edge10" class="edge"><title>lcd_profile_t&#45;&gt;lcd_t</title>
<path fill="none" stroke="black" d="M501.961,-109.979C454.076,-123.881 386.073,-143.624 344.891,-155.58"/>
<polygon fill="none" stroke="black" points="343.655,-152.294 335.028,-158.444 345.607,-159.017 343.655,-152.294"/>
</g>
<!-- lcd_mem_xxx -->
<g id="node12" class="node"><title>lcd_mem_xxx</title>
<polygon fill="none" stroke="black" points="197.394,-1 197.394,-37 292.606,-37 292.606,-1 197.394,-1"/>
<text text-anchor="middle" x="245" y="-15.1562" font-family="Courier New" font-size="12.00">lcd_mem_xxx</text>
</g>
<!-- lcd_mem_xxx&#45;&gt;lcd_mem_t -->
<g id="edge12" class="edge"><title>lcd_mem_xxx&#45;&gt;lcd_mem_t</title>
<path fill="none" stroke="black" d="M260.167,-37.063C270.221,-48.374 283.375,-63.1718 293.497,-74.5593"/>
</g>
<!-- lcd_mem_special -->
<g id="node14" class="node"><title>lcd_mem_special</title>
<polygon fill="none" stroke="black" points="310.991,-1 310.991,-37 435.009,-37 435.009,-1 310.991,-1"/>
<text text-anchor="middle" x="373" y="-15.1562" font-family="Courier New" font-size="12.00">lcd_mem_special</text>
</g>
<!-- lcd_mem_special&#45;&gt;lcd_mem_t -->
<g id="edge14" class="edge"><title>lcd_mem_special&#45;&gt;lcd_mem_t</title>
<path fill="none" stroke="black" d="M357.833,-37.063C347.779,-48.374 334.625,-63.1718 324.503,-74.5593"/>
</g>
</g>
</svg>
