<?xml version="1.0" encoding="UTF-8" standalone="no"?>
<!DOCTYPE svg PUBLIC "-//W3C//DTD SVG 1.1//EN"
 "http://www.w3.org/Graphics/SVG/1.1/DTD/svg11.dtd">
<!-- Generated by graphviz version 2.38.0 (20140413.2041)
 -->
<!-- Title: UML Pages: 1 -->
<svg width="277pt" height="264pt"
 viewBox="0.00 0.00 277.00 264.00" xmlns="http://www.w3.org/2000/svg" xmlns:xlink="http://www.w3.org/1999/xlink">
<g id="graph0" class="graph" transform="scale(1 1) rotate(0) translate(4 260)">
<title>UML</title>
<polygon fill="white" stroke="none" points="-4,4 -4,-260 273,-260 273,4 -4,4"/>
<g id="clust2" class="cluster"><title>cluster_1</title>
<polygon fill="none" stroke="black" points="24,-65 24,-118 261,-118 261,-65 24,-65"/>
</g>
<g id="clust1" class="cluster"><title>cluster_0</title>
<polygon fill="none" stroke="black" points="8,-138 8,-191 209,-191 209,-138 8,-138"/>
</g>
<!-- style_t -->
<g id="node1" class="node"><title>style_t</title>
<polygon fill="none" stroke="black" points="141.5,-146.5 141.5,-182.5 200.5,-182.5 200.5,-146.5 141.5,-146.5"/>
<text text-anchor="middle" x="171" y="-162" font-family="Courier New" font-size="10.00">style_t</text>
</g>
<!-- widget_t -->
<g id="node2" class="node"><title>widget_t</title>
<polygon fill="none" stroke="black" points="87.5,-219.5 87.5,-255.5 152.5,-255.5 152.5,-219.5 87.5,-219.5"/>
<text text-anchor="middle" x="120" y="-235" font-family="Courier New" font-size="10.00">widget_t</text>
</g>
<!-- style_t&#45;&gt;widget_t -->
<g id="edge1" class="edge"><title>style_t&#45;&gt;widget_t</title>
<path fill="none" stroke="black" d="M158.654,-182.687C150.636,-193.85 140.228,-208.34 132.232,-219.471"/>
</g>
<!-- style_factory_t -->
<g id="node3" class="node"><title>style_factory_t</title>
<polygon fill="none" stroke="black" points="16.5,-146.5 16.5,-182.5 123.5,-182.5 123.5,-146.5 16.5,-146.5"/>
<text text-anchor="middle" x="70" y="-162" font-family="Courier New" font-size="10.00">style_factory_t</text>
</g>
<!-- style_factory_t&#45;&gt;style_t -->
<g id="edge3" class="edge"><title>style_factory_t&#45;&gt;style_t</title>
<path fill="none" stroke="black" d="M123.656,-164.5C126.153,-164.5 128.65,-164.5 131.146,-164.5"/>
<polygon fill="black" stroke="black" points="141.41,-164.5 131.41,-169 136.41,-164.5 131.41,-164.5 131.41,-164.5 131.41,-164.5 136.41,-164.5 131.41,-160 141.41,-164.5 141.41,-164.5"/>
</g>
<!-- style_factory_t&#45;&gt;widget_t -->
<g id="edge2" class="edge"><title>style_factory_t&#45;&gt;widget_t</title>
<path fill="none" stroke="black" d="M82.1036,-182.687C89.9649,-193.85 100.169,-208.34 108.008,-219.471"/>
</g>
<!-- style_const_t -->
<g id="node4" class="node"><title>style_const_t</title>
<polygon fill="none" stroke="black" points="157.5,-73.5 157.5,-109.5 252.5,-109.5 252.5,-73.5 157.5,-73.5"/>
<text text-anchor="middle" x="205" y="-89" font-family="Courier New" font-size="10.00">style_const_t</text>
</g>
<!-- style_const_t&#45;&gt;style_t -->
<g id="edge5" class="edge"><title>style_const_t&#45;&gt;style_t</title>
<path fill="none" stroke="black" stroke-dasharray="5,2" d="M196.77,-109.687C192.802,-117.972 187.957,-128.09 183.543,-137.307"/>
<polygon fill="none" stroke="black" points="180.317,-135.94 179.155,-146.471 186.63,-138.964 180.317,-135.94"/>
</g>
<!-- style_mutable_t -->
<g id="node5" class="node"><title>style_mutable_t</title>
<polygon fill="none" stroke="black" points="32.5,-73.5 32.5,-109.5 139.5,-109.5 139.5,-73.5 32.5,-73.5"/>
<text text-anchor="middle" x="86" y="-89" font-family="Courier New" font-size="10.00">style_mutable_t</text>
</g>
<!-- style_const_t&#45;&gt;style_mutable_t -->
<g id="edge4" class="edge"><title>style_const_t&#45;&gt;style_mutable_t</title>
<path fill="none" stroke="black" d="M157.462,-91.5C155.635,-91.5 153.808,-91.5 151.981,-91.5"/>
<polygon fill="none" stroke="black" points="151.922,-91.5001 145.922,-95.5 139.922,-91.5 145.922,-87.5 151.922,-91.5001"/>
</g>
<!-- style_mutable_t&#45;&gt;style_t -->
<g id="edge6" class="edge"><title>style_mutable_t&#45;&gt;style_t</title>
<path fill="none" stroke="black" stroke-dasharray="5,2" d="M106.576,-109.687C117.434,-118.757 130.922,-130.023 142.746,-139.9"/>
<polygon fill="none" stroke="black" points="140.695,-142.747 150.613,-146.471 145.182,-137.374 140.695,-142.747"/>
</g>
<!-- theme_t -->
<g id="node6" class="node"><title>theme_t</title>
<polygon fill="none" stroke="black" points="175.5,-0.5 175.5,-36.5 234.5,-36.5 234.5,-0.5 175.5,-0.5"/>
<text text-anchor="middle" x="205" y="-16" font-family="Courier New" font-size="10.00">theme_t</text>
</g>
<!-- theme_t&#45;&gt;style_const_t -->
<g id="edge7" class="edge"><title>theme_t&#45;&gt;style_const_t</title>
<path fill="none" stroke="black" d="M205,-36.6871C205,-47.8501 205,-62.3398 205,-73.4712"/>
</g>
</g>
</svg>
