<?xml version="1.0" encoding="UTF-8" standalone="no"?>
<!DOCTYPE svg PUBLIC "-//W3C//DTD SVG 1.1//EN"
 "http://www.w3.org/Graphics/SVG/1.1/DTD/svg11.dtd">
<!-- Generated by graphviz version 2.38.0 (20140413.2041)
 -->
<!-- Title: UML Pages: 1 -->
<svg width="192pt" height="45pt"
 viewBox="0.00 0.00 192.00 45.00" xmlns="http://www.w3.org/2000/svg" xmlns:xlink="http://www.w3.org/1999/xlink">
<g id="graph0" class="graph" transform="scale(1 1) rotate(0) translate(4 41)">
<title>UML</title>
<polygon fill="white" stroke="none" points="-4,4 -4,-41 188,-41 188,4 -4,4"/>
<!-- timer_t -->
<g id="node1" class="node"><title>timer_t</title>
<polygon fill="none" stroke="black" points="0,-0.5 0,-36.5 59,-36.5 59,-0.5 0,-0.5"/>
<text text-anchor="middle" x="29.5" y="-16" font-family="Courier New" font-size="10.00">timer_t</text>
</g>
<!-- timer_info_t -->
<g id="node2" class="node"><title>timer_info_t</title>
<polygon fill="none" stroke="black" points="95,-0.5 95,-36.5 184,-36.5 184,-0.5 95,-0.5"/>
<text text-anchor="middle" x="139.5" y="-16" font-family="Courier New" font-size="10.00">timer_info_t</text>
</g>
<!-- timer_t&#45;&gt;timer_info_t -->
<g id="edge1" class="edge"><title>timer_t&#45;&gt;timer_info_t</title>
<path fill="none" stroke="black" d="M59.1585,-18.5C66.9738,-18.5 75.705,-18.5 84.4383,-18.5"/>
<polygon fill="black" stroke="black" points="94.6367,-18.5 84.6368,-23.0001 89.6367,-18.5 84.6367,-18.5001 84.6367,-18.5001 84.6367,-18.5001 89.6367,-18.5 84.6367,-14.0001 94.6367,-18.5 94.6367,-18.5"/>
</g>
</g>
</svg>
