<?xml version="1.0" encoding="UTF-8" standalone="no"?>
<!DOCTYPE svg PUBLIC "-//W3C//DTD SVG 1.1//EN"
 "http://www.w3.org/Graphics/SVG/1.1/DTD/svg11.dtd">
<!-- Generated by graphviz version 2.38.0 (20140413.2041)
 -->
<!-- Title: UML Pages: 1 -->
<svg width="687pt" height="180pt"
 viewBox="0.00 0.00 687.00 180.00" xmlns="http://www.w3.org/2000/svg" xmlns:xlink="http://www.w3.org/1999/xlink">
<g id="graph0" class="graph" transform="scale(1 1) rotate(0) translate(4 176)">
<title>UML</title>
<polygon fill="white" stroke="none" points="-4,4 -4,-176 683,-176 683,4 -4,4"/>
<g id="clust1" class="cluster"><title>cluster_1</title>
<polygon fill="none" stroke="black" points="161.5,-65 161.5,-164 422.5,-164 422.5,-65 161.5,-65"/>
</g>
<!-- ui_builder_t -->
<g id="node1" class="node"><title>ui_builder_t</title>
<polygon fill="none" stroke="black" points="271,-73.5 271,-155.5 414,-155.5 414,-73.5 271,-73.5"/>
<text text-anchor="middle" x="342.5" y="-143.5" font-family="Courier New" font-size="10.00">ui_builder_t</text>
<polyline fill="none" stroke="black" points="271,-136.5 414,-136.5 "/>
<text text-anchor="start" x="279" y="-124.5" font-family="Courier New" font-size="10.00">+on_start(...)</text>
<text text-anchor="start" x="279" y="-113.5" font-family="Courier New" font-size="10.00">+on_widget_start(...)</text>
<text text-anchor="start" x="279" y="-102.5" font-family="Courier New" font-size="10.00">+on_widget_prop(...)</text>
<text text-anchor="start" x="279" y="-91.5" font-family="Courier New" font-size="10.00">+on_widget_end(...)</text>
<text text-anchor="start" x="279" y="-80.5" font-family="Courier New" font-size="10.00">+on_end(...)</text>
</g>
<!-- ui_loader_t -->
<g id="node2" class="node"><title>ui_loader_t</title>
<polygon fill="none" stroke="black" points="170,-95.5 170,-133.5 253,-133.5 253,-95.5 170,-95.5"/>
<text text-anchor="middle" x="211.5" y="-121.5" font-family="Courier New" font-size="10.00">ui_loader_t</text>
<polyline fill="none" stroke="black" points="170,-114.5 253,-114.5 "/>
<text text-anchor="start" x="178" y="-102.5" font-family="Courier New" font-size="10.00">+load(...)</text>
</g>
<!-- ui_loader_t&#45;&gt;ui_builder_t -->
<g id="edge1" class="edge"><title>ui_loader_t&#45;&gt;ui_builder_t</title>
<path fill="none" stroke="black" d="M253.205,-114.5C255.799,-114.5 258.394,-114.5 260.988,-114.5"/>
<polygon fill="black" stroke="black" points="270.994,-114.5 260.994,-119 265.994,-114.5 260.994,-114.5 260.994,-114.5 260.994,-114.5 265.994,-114.5 260.994,-110 270.994,-114.5 270.994,-114.5"/>
</g>
<!-- ui_loader_default_t -->
<g id="node3" class="node"><title>ui_loader_default_t</title>
<polygon fill="none" stroke="black" points="0,-0.5 0,-36.5 131,-36.5 131,-0.5 0,-0.5"/>
<text text-anchor="middle" x="65.5" y="-16" font-family="Courier New" font-size="10.00">ui_loader_default_t</text>
</g>
<!-- ui_loader_default_t&#45;&gt;ui_loader_t -->
<g id="edge2" class="edge"><title>ui_loader_default_t&#45;&gt;ui_loader_t</title>
<path fill="none" stroke="black" stroke-dasharray="5,2" d="M91.9395,-36.5227C115.195,-51.4957 149.272,-73.4351 175.101,-90.0648"/>
<polygon fill="none" stroke="black" points="173.214,-93.0125 183.516,-95.4832 177.003,-87.1269 173.214,-93.0125"/>
</g>
<!-- ui_loader_xml_t -->
<g id="node4" class="node"><title>ui_loader_xml_t</title>
<polygon fill="none" stroke="black" points="149,-0.5 149,-36.5 256,-36.5 256,-0.5 149,-0.5"/>
<text text-anchor="middle" x="202.5" y="-16" font-family="Courier New" font-size="10.00">ui_loader_xml_t</text>
</g>
<!-- ui_loader_xml_t&#45;&gt;ui_loader_t -->
<g id="edge3" class="edge"><title>ui_loader_xml_t&#45;&gt;ui_loader_t</title>
<path fill="none" stroke="black" stroke-dasharray="5,2" d="M204.151,-36.741C205.445,-50.2632 207.275,-69.3682 208.784,-85.1348"/>
<polygon fill="none" stroke="black" points="205.33,-85.7863 209.768,-95.4072 212.299,-85.1191 205.33,-85.7863"/>
</g>
<!-- ui_builder_default_t -->
<g id="node5" class="node"><title>ui_builder_default_t</title>
<polygon fill="none" stroke="black" points="274,-0.5 274,-36.5 411,-36.5 411,-0.5 274,-0.5"/>
<text text-anchor="middle" x="342.5" y="-16" font-family="Courier New" font-size="10.00">ui_builder_default_t</text>
</g>
<!-- ui_builder_default_t&#45;&gt;ui_builder_t -->
<g id="edge4" class="edge"><title>ui_builder_default_t&#45;&gt;ui_builder_t</title>
<path fill="none" stroke="black" stroke-dasharray="5,2" d="M342.5,-36.741C342.5,-44.2922 342.5,-53.5843 342.5,-63.0638"/>
<polygon fill="none" stroke="black" points="339,-63.3501 342.5,-73.3501 346,-63.3501 339,-63.3501"/>
</g>
<!-- ui_xml_writer_t -->
<g id="node6" class="node"><title>ui_xml_writer_t</title>
<polygon fill="none" stroke="black" points="429,-0.5 429,-36.5 536,-36.5 536,-0.5 429,-0.5"/>
<text text-anchor="middle" x="482.5" y="-16" font-family="Courier New" font-size="10.00">ui_xml_writer_t</text>
</g>
<!-- ui_xml_writer_t&#45;&gt;ui_builder_t -->
<g id="edge5" class="edge"><title>ui_xml_writer_t&#45;&gt;ui_builder_t</title>
<path fill="none" stroke="black" stroke-dasharray="5,2" d="M457.147,-36.5227C444.062,-45.3081 427.406,-56.4919 410.87,-67.5942"/>
<polygon fill="none" stroke="black" points="408.605,-64.8992 402.254,-73.3794 412.507,-70.7108 408.605,-64.8992"/>
</g>
<!-- ui_binary_writer_t -->
<g id="node7" class="node"><title>ui_binary_writer_t</title>
<polygon fill="none" stroke="black" points="554,-0.5 554,-36.5 679,-36.5 679,-0.5 554,-0.5"/>
<text text-anchor="middle" x="616.5" y="-16" font-family="Courier New" font-size="10.00">ui_binary_writer_t</text>
</g>
<!-- ui_binary_writer_t&#45;&gt;ui_builder_t -->
<g id="edge6" class="edge"><title>ui_binary_writer_t&#45;&gt;ui_builder_t</title>
<path fill="none" stroke="black" stroke-dasharray="5,2" d="M566.881,-36.5227C527.071,-50.1799 470.367,-69.6331 423.924,-85.5662"/>
<polygon fill="none" stroke="black" points="422.502,-82.3537 414.179,-88.9093 424.774,-88.9749 422.502,-82.3537"/>
</g>
</g>
</svg>
