<?xml version="1.0" encoding="UTF-8" standalone="no"?>
<!DOCTYPE svg PUBLIC "-//W3C//DTD SVG 1.1//EN"
 "http://www.w3.org/Graphics/SVG/1.1/DTD/svg11.dtd">
<!-- Generated by graphviz version 2.28.0 (20111028.1807)
 -->
<!-- Title: G Pages: 1 -->
<svg width="424pt" height="1253pt"
 viewBox="0.00 0.00 424.00 1253.00" xmlns="http://www.w3.org/2000/svg" xmlns:xlink="http://www.w3.org/1999/xlink">
<g id="graph1" class="graph" transform="scale(1 1) rotate(0) translate(4 1249)">
<title>G</title>
<polygon fill="white" stroke="white" points="-4,5 -4,-1249 421,-1249 421,5 -4,5"/>
<!-- edit_t -->
<g id="node1" class="node"><title>edit_t</title>
<a xlink:href="../manual/edit_t.md" xlink:title="\N">
<polygon fill="none" stroke="black" points="146.396,-27 146.396,-63 205.604,-63 205.604,-27 146.396,-27"/>
<text text-anchor="middle" x="176" y="-41.5" font-family="Courier New" font-size="12.00">edit_t</text>
</a>
</g>
<!-- widget_t -->
<g id="node31" class="node"><title>widget_t</title>
<polygon fill="none" stroke="black" points="0.195312,-522 0.195312,-558 73.8047,-558 73.8047,-522 0.195312,-522"/>
<text text-anchor="middle" x="37" y="-536.5" font-family="Courier New" font-size="12.00">widget_t</text>
</g>
<!-- edit_t&#45;&gt;widget_t -->
<g id="edge2" class="edge"><title>edit_t&#45;&gt;widget_t</title>
<path fill="none" stroke="black" d="M146.102,-50.744C133.13,-54.8042 118.797,-61.6299 110,-73 56.334,-142.361 42.0876,-421.615 38.8494,-511.779"/>
<polygon fill="none" stroke="black" points="35.3502,-511.697 38.5071,-521.81 42.3461,-511.935 35.3502,-511.697"/>
</g>
<!-- image_base_t -->
<g id="node2" class="node"><title>image_base_t</title>
<a xlink:href="../manual/image_base_t.md" xlink:title="\N">
<polygon fill="none" stroke="black" points="124.793,-1126 124.793,-1162 227.207,-1162 227.207,-1126 124.793,-1126"/>
<text text-anchor="middle" x="176" y="-1140.5" font-family="Courier New" font-size="12.00">image_base_t</text>
</a>
</g>
<!-- image_base_t&#45;&gt;widget_t -->
<g id="edge4" class="edge"><title>image_base_t&#45;&gt;widget_t</title>
<path fill="none" stroke="black" d="M164.159,-1125.64C149.516,-1099.98 123.681,-1051.54 110,-1007 60.5167,-845.886 44.0848,-642.587 39.525,-568.586"/>
<polygon fill="none" stroke="black" points="42.9973,-568.011 38.9138,-558.235 36.0095,-568.424 42.9973,-568.011"/>
</g>
<!-- window_base_t -->
<g id="node3" class="node"><title>window_base_t</title>
<a xlink:href="../manual/window_base_t.md" xlink:title="\N">
<polygon fill="none" stroke="black" points="121.192,-962 121.192,-998 230.808,-998 230.808,-962 121.192,-962"/>
<text text-anchor="middle" x="176" y="-976.5" font-family="Courier New" font-size="12.00">window_base_t</text>
</a>
</g>
<!-- window_base_t&#45;&gt;widget_t -->
<g id="edge6" class="edge"><title>window_base_t&#45;&gt;widget_t</title>
<path fill="none" stroke="black" d="M121.075,-962.29C116.912,-959.359 113.123,-955.953 110,-952 62.571,-891.953 44.4356,-651.523 39.5072,-568.424"/>
<polygon fill="none" stroke="black" points="43.0011,-568.215 38.9339,-558.432 36.0126,-568.617 43.0011,-568.215"/>
</g>
<!-- label_t -->
<g id="node4" class="node"><title>label_t</title>
<a xlink:href="../manual/label_t.md" xlink:title="\N">
<polygon fill="none" stroke="black" points="142.796,-907 142.796,-943 209.204,-943 209.204,-907 142.796,-907"/>
<text text-anchor="middle" x="176" y="-921.5" font-family="Courier New" font-size="12.00">label_t</text>
</a>
</g>
<!-- label_t&#45;&gt;widget_t -->
<g id="edge8" class="edge"><title>label_t&#45;&gt;widget_t</title>
<path fill="none" stroke="black" d="M142.655,-917.844C130.76,-913.654 118.205,-907.115 110,-897 68.7133,-846.104 47.0792,-643.535 40.3427,-568.312"/>
<polygon fill="none" stroke="black" points="43.8139,-567.829 39.4564,-558.171 36.8405,-568.438 43.8139,-567.829"/>
</g>
<!-- button_t -->
<g id="node5" class="node"><title>button_t</title>
<a xlink:href="../manual/button_t.md" xlink:title="\N">
<polygon fill="none" stroke="black" points="139.195,-852 139.195,-888 212.805,-888 212.805,-852 139.195,-852"/>
<text text-anchor="middle" x="176" y="-866.5" font-family="Courier New" font-size="12.00">button_t</text>
</a>
</g>
<!-- button_t&#45;&gt;widget_t -->
<g id="edge10" class="edge"><title>button_t&#45;&gt;widget_t</title>
<path fill="none" stroke="black" d="M139.123,-861.308C128.399,-857.095 117.511,-850.935 110,-842 74.8452,-800.182 50.2189,-635.227 41.4903,-568.37"/>
<polygon fill="none" stroke="black" points="44.924,-567.628 40.1813,-558.154 37.9808,-568.518 44.924,-567.628"/>
</g>
<!-- color_tile_t -->
<g id="node6" class="node"><title>color_tile_t</title>
<a xlink:href="../manual/color_tile_t.md" xlink:title="\N">
<polygon fill="none" stroke="black" points="124.793,-797 124.793,-833 227.207,-833 227.207,-797 124.793,-797"/>
<text text-anchor="middle" x="176" y="-811.5" font-family="Courier New" font-size="12.00">color_tile_t</text>
</a>
</g>
<!-- color_tile_t&#45;&gt;widget_t -->
<g id="edge12" class="edge"><title>color_tile_t&#45;&gt;widget_t</title>
<path fill="none" stroke="black" d="M124.695,-798.924C119.226,-795.631 114.15,-791.695 110,-787 53.917,-723.55 41.4129,-618.61 38.6995,-568.433"/>
<polygon fill="none" stroke="black" points="42.1902,-568.144 38.2471,-558.311 35.1972,-568.457 42.1902,-568.144"/>
</g>
<!-- combo_box_item_t -->
<g id="node7" class="node"><title>combo_box_item_t</title>
<a xlink:href="../manual/combo_box_item_t.md" xlink:title="\N">
<polygon fill="none" stroke="black" points="110.391,-742 110.391,-778 241.609,-778 241.609,-742 110.391,-742"/>
<text text-anchor="middle" x="176" y="-756.5" font-family="Courier New" font-size="12.00">combo_box_item_t</text>
</a>
</g>
<!-- combo_box_item_t&#45;&gt;widget_t -->
<g id="edge14" class="edge"><title>combo_box_item_t&#45;&gt;widget_t</title>
<path fill="none" stroke="black" d="M122.139,-741.845C117.702,-738.999 113.561,-735.736 110,-732 65.6949,-685.517 48.0792,-609.215 41.538,-568.193"/>
<polygon fill="none" stroke="black" points="44.9685,-567.466 40.0386,-558.088 38.0443,-568.493 44.9685,-567.466"/>
</g>
<!-- slider_t -->
<g id="node8" class="node"><title>slider_t</title>
<a xlink:href="../manual/slider_t.md" xlink:title="\N">
<polygon fill="none" stroke="black" points="139.195,-687 139.195,-723 212.805,-723 212.805,-687 139.195,-687"/>
<text text-anchor="middle" x="176" y="-701.5" font-family="Courier New" font-size="12.00">slider_t</text>
</a>
</g>
<!-- slider_t&#45;&gt;widget_t -->
<g id="edge16" class="edge"><title>slider_t&#45;&gt;widget_t</title>
<path fill="none" stroke="black" d="M139.027,-694.565C128.79,-690.329 118.205,-684.596 110,-677 77.4038,-646.826 56.8821,-598.493 46.433,-568.037"/>
<polygon fill="none" stroke="black" points="49.7264,-566.847 43.2727,-558.445 43.078,-569.038 49.7264,-566.847"/>
</g>
<!-- progress_bar_t -->
<g id="node9" class="node"><title>progress_bar_t</title>
<a xlink:href="../manual/progress_bar_t.md" xlink:title="\N">
<polygon fill="none" stroke="black" points="117.592,-632 117.592,-668 234.408,-668 234.408,-632 117.592,-632"/>
<text text-anchor="middle" x="176" y="-646.5" font-family="Courier New" font-size="12.00">progress_bar_t</text>
</a>
</g>
<!-- progress_bar_t&#45;&gt;widget_t -->
<g id="edge18" class="edge"><title>progress_bar_t&#45;&gt;widget_t</title>
<path fill="none" stroke="black" d="M126.463,-631.979C120.698,-629.012 115.069,-625.684 110,-622 88.7965,-606.589 69.4811,-583.884 56.2065,-566.27"/>
<polygon fill="none" stroke="black" points="58.9352,-564.073 50.1933,-558.087 53.2943,-568.218 58.9352,-564.073"/>
</g>
<!-- app_bar_t -->
<g id="node10" class="node"><title>app_bar_t</title>
<a xlink:href="../manual/app_bar_t.md" xlink:title="\N">
<polygon fill="none" stroke="black" points="135.595,-577 135.595,-613 216.405,-613 216.405,-577 135.595,-577"/>
<text text-anchor="middle" x="176" y="-591.5" font-family="Courier New" font-size="12.00">app_bar_t</text>
</a>
</g>
<!-- app_bar_t&#45;&gt;widget_t -->
<g id="edge20" class="edge"><title>app_bar_t&#45;&gt;widget_t</title>
<path fill="none" stroke="black" d="M135.374,-579.092C119.255,-572.621 100.525,-565.101 83.8231,-558.396"/>
<polygon fill="none" stroke="black" points="84.8425,-555.034 74.2584,-554.556 82.2346,-561.53 84.8425,-555.034"/>
</g>
<!-- row_t -->
<g id="node11" class="node"><title>row_t</title>
<a xlink:href="../manual/row_t.md" xlink:title="\N">
<polygon fill="none" stroke="black" points="149.997,-522 149.997,-558 202.003,-558 202.003,-522 149.997,-522"/>
<text text-anchor="middle" x="176" y="-536.5" font-family="Courier New" font-size="12.00">row_t</text>
</a>
</g>
<!-- row_t&#45;&gt;widget_t -->
<g id="edge22" class="edge"><title>row_t&#45;&gt;widget_t</title>
<path fill="none" stroke="black" d="M149.872,-540C131.467,-540 105.964,-540 83.9563,-540"/>
<polygon fill="none" stroke="black" points="83.805,-536.5 73.805,-540 83.805,-543.5 83.805,-536.5"/>
</g>
<!-- column_t -->
<g id="node12" class="node"><title>column_t</title>
<a xlink:href="../manual/column_t.md" xlink:title="\N">
<polygon fill="none" stroke="black" points="139.195,-467 139.195,-503 212.805,-503 212.805,-467 139.195,-467"/>
<text text-anchor="middle" x="176" y="-481.5" font-family="Courier New" font-size="12.00">column_t</text>
</a>
</g>
<!-- column_t&#45;&gt;widget_t -->
<g id="edge24" class="edge"><title>column_t&#45;&gt;widget_t</title>
<path fill="none" stroke="black" d="M139.005,-499.451C122.148,-506.218 101.873,-514.358 83.9253,-521.563"/>
<polygon fill="none" stroke="black" points="82.2065,-518.481 74.2304,-525.455 84.8145,-524.977 82.2065,-518.481"/>
</g>
<!-- grid_t -->
<g id="node13" class="node"><title>grid_t</title>
<a xlink:href="../manual/grid_t.md" xlink:title="\N">
<polygon fill="none" stroke="black" points="146.396,-412 146.396,-448 205.604,-448 205.604,-412 146.396,-412"/>
<text text-anchor="middle" x="176" y="-426.5" font-family="Courier New" font-size="12.00">grid_t</text>
</a>
</g>
<!-- grid_t&#45;&gt;widget_t -->
<g id="edge26" class="edge"><title>grid_t&#45;&gt;widget_t</title>
<path fill="none" stroke="black" d="M146.358,-439.18C134.472,-443.766 120.933,-450.054 110,-458 88.7965,-473.411 69.4811,-496.116 56.2065,-513.73"/>
<polygon fill="none" stroke="black" points="53.2943,-511.782 50.1933,-521.913 58.9352,-515.927 53.2943,-511.782"/>
</g>
<!-- grid_item_t -->
<g id="node14" class="node"><title>grid_item_t</title>
<a xlink:href="../manual/grid_item_t.md" xlink:title="\N">
<polygon fill="none" stroke="black" points="128.394,-357 128.394,-393 223.606,-393 223.606,-357 128.394,-357"/>
<text text-anchor="middle" x="176" y="-371.5" font-family="Courier New" font-size="12.00">grid_item_t</text>
</a>
</g>
<!-- grid_item_t&#45;&gt;widget_t -->
<g id="edge28" class="edge"><title>grid_item_t&#45;&gt;widget_t</title>
<path fill="none" stroke="black" d="M128.217,-390.475C121.64,-393.933 115.32,-398.075 110,-403 77.4038,-433.174 56.8821,-481.507 46.433,-511.963"/>
<polygon fill="none" stroke="black" points="43.078,-510.962 43.2727,-521.555 49.7264,-513.153 43.078,-510.962"/>
</g>
<!-- group_box_t -->
<g id="node15" class="node"><title>group_box_t</title>
<a xlink:href="../manual/group_box_t.md" xlink:title="\N">
<polygon fill="none" stroke="black" points="128.394,-302 128.394,-338 223.606,-338 223.606,-302 128.394,-302"/>
<text text-anchor="middle" x="176" y="-316.5" font-family="Courier New" font-size="12.00">group_box_t</text>
</a>
</g>
<!-- group_box_t&#45;&gt;widget_t -->
<g id="edge30" class="edge"><title>group_box_t&#45;&gt;widget_t</title>
<path fill="none" stroke="black" d="M128.314,-334.544C121.569,-338.145 115.171,-342.574 110,-348 65.6949,-394.483 48.0792,-470.785 41.538,-511.807"/>
<polygon fill="none" stroke="black" points="38.0443,-511.507 40.0386,-521.912 44.9685,-512.534 38.0443,-511.507"/>
</g>
<!-- view_t -->
<g id="node16" class="node"><title>view_t</title>
<a xlink:href="../manual/view_t.md" xlink:title="\N">
<polygon fill="none" stroke="black" points="146.396,-247 146.396,-283 205.604,-283 205.604,-247 146.396,-247"/>
<text text-anchor="middle" x="176" y="-261.5" font-family="Courier New" font-size="12.00">view_t</text>
</a>
</g>
<!-- view_t&#45;&gt;widget_t -->
<g id="edge32" class="edge"><title>view_t&#45;&gt;widget_t</title>
<path fill="none" stroke="black" d="M146.082,-271.49C133.425,-275.687 119.358,-282.413 110,-293 53.917,-356.45 41.4129,-461.39 38.6995,-511.567"/>
<polygon fill="none" stroke="black" points="35.1972,-511.543 38.2471,-521.689 42.1902,-511.856 35.1972,-511.543"/>
</g>
<!-- button_group_t -->
<g id="node17" class="node"><title>button_group_t</title>
<a xlink:href="../manual/button_group_t.md" xlink:title="\N">
<polygon fill="none" stroke="black" points="117.592,-192 117.592,-228 234.408,-228 234.408,-192 117.592,-192"/>
<text text-anchor="middle" x="176" y="-206.5" font-family="Courier New" font-size="12.00">button_group_t</text>
</a>
</g>
<!-- button_group_t&#45;&gt;widget_t -->
<g id="edge34" class="edge"><title>button_group_t&#45;&gt;widget_t</title>
<path fill="none" stroke="black" d="M121.019,-228.128C116.924,-230.968 113.163,-234.238 110,-238 74.8452,-279.818 50.2189,-444.773 41.4903,-511.63"/>
<polygon fill="none" stroke="black" points="37.9808,-511.482 40.1813,-521.846 44.924,-512.372 37.9808,-511.482"/>
</g>
<!-- dialog_title_t -->
<g id="node18" class="node"><title>dialog_title_t</title>
<a xlink:href="../manual/dialog_title_t.md" xlink:title="\N">
<polygon fill="none" stroke="black" points="117.592,-137 117.592,-173 234.408,-173 234.408,-137 117.592,-137"/>
<text text-anchor="middle" x="176" y="-151.5" font-family="Courier New" font-size="12.00">dialog_title_t</text>
</a>
</g>
<!-- dialog_title_t&#45;&gt;widget_t -->
<g id="edge36" class="edge"><title>dialog_title_t&#45;&gt;widget_t</title>
<path fill="none" stroke="black" d="M120.878,-173.011C116.812,-175.875 113.096,-179.183 110,-183 68.7133,-233.896 47.0792,-436.465 40.3427,-511.688"/>
<polygon fill="none" stroke="black" points="36.8405,-511.562 39.4564,-521.829 43.8139,-512.171 36.8405,-511.562"/>
</g>
<!-- dialog_client_t -->
<g id="node19" class="node"><title>dialog_client_t</title>
<a xlink:href="../manual/dialog_client_t.md" xlink:title="\N">
<polygon fill="none" stroke="black" points="113.991,-82 113.991,-118 238.009,-118 238.009,-82 113.991,-82"/>
<text text-anchor="middle" x="176" y="-96.5" font-family="Courier New" font-size="12.00">dialog_client_t</text>
</a>
</g>
<!-- dialog_client_t&#45;&gt;widget_t -->
<g id="edge38" class="edge"><title>dialog_client_t&#45;&gt;widget_t</title>
<path fill="none" stroke="black" d="M120.469,-118.143C116.544,-120.975 112.97,-124.24 110,-128 62.571,-188.047 44.4356,-428.477 39.5072,-511.576"/>
<polygon fill="none" stroke="black" points="36.0126,-511.383 38.9339,-521.568 43.0011,-511.785 36.0126,-511.383"/>
</g>
<!-- window_t -->
<g id="node20" class="node"><title>window_t</title>
<a xlink:href="../manual/window_t.md" xlink:title="\N">
<polygon fill="none" stroke="black" points="310.195,-1044 310.195,-1080 383.805,-1080 383.805,-1044 310.195,-1044"/>
<text text-anchor="middle" x="347" y="-1058.5" font-family="Courier New" font-size="12.00">window_t</text>
</a>
</g>
<!-- window_t&#45;&gt;window_base_t -->
<g id="edge40" class="edge"><title>window_t&#45;&gt;window_base_t</title>
<path fill="none" stroke="black" d="M310.062,-1047.99C299.627,-1043.71 288.277,-1038.85 278,-1034 257.939,-1024.54 236.183,-1013.07 218.019,-1003.14"/>
<polygon fill="none" stroke="black" points="219.323,-999.859 208.875,-998.102 215.947,-1005.99 219.323,-999.859"/>
</g>
<!-- popup_t -->
<g id="node21" class="node"><title>popup_t</title>
<a xlink:href="../manual/popup_t.md" xlink:title="\N">
<polygon fill="none" stroke="black" points="313.796,-989 313.796,-1025 380.204,-1025 380.204,-989 313.796,-989"/>
<text text-anchor="middle" x="347" y="-1003.5" font-family="Courier New" font-size="12.00">popup_t</text>
</a>
</g>
<!-- popup_t&#45;&gt;window_base_t -->
<g id="edge42" class="edge"><title>popup_t&#45;&gt;window_base_t</title>
<path fill="none" stroke="black" d="M313.415,-1001.79C292.93,-998.521 265.798,-994.187 241.13,-990.246"/>
<polygon fill="none" stroke="black" points="241.524,-986.764 231.097,-988.643 240.42,-993.677 241.524,-986.764"/>
</g>
<!-- dialog_t -->
<g id="node22" class="node"><title>dialog_t</title>
<a xlink:href="../manual/dialog_t.md" xlink:title="\N">
<polygon fill="none" stroke="black" points="310.195,-934 310.195,-970 383.805,-970 383.805,-934 310.195,-934"/>
<text text-anchor="middle" x="347" y="-948.5" font-family="Courier New" font-size="12.00">dialog_t</text>
</a>
</g>
<!-- dialog_t&#45;&gt;window_base_t -->
<g id="edge44" class="edge"><title>dialog_t&#45;&gt;window_base_t</title>
<path fill="none" stroke="black" d="M310.159,-957.938C290.067,-961.267 264.405,-965.519 240.983,-969.399"/>
<polygon fill="none" stroke="black" points="240.398,-965.948 231.105,-971.036 241.542,-972.854 240.398,-965.948"/>
</g>
<!-- calibration_win_t -->
<g id="node23" class="node"><title>calibration_win_t</title>
<a xlink:href="../manual/calibration_win_t.md" xlink:title="\N">
<polygon fill="none" stroke="black" points="277.79,-879 277.79,-915 416.21,-915 416.21,-879 277.79,-879"/>
<text text-anchor="middle" x="347" y="-893.5" font-family="Courier New" font-size="12.00">calibration_win_t</text>
</a>
</g>
<!-- calibration_win_t&#45;&gt;window_base_t -->
<g id="edge46" class="edge"><title>calibration_win_t&#45;&gt;window_base_t</title>
<path fill="none" stroke="black" d="M297.718,-915.095C290.965,-918.138 284.215,-921.466 278,-925 260.614,-934.886 259.305,-941.974 242,-952 238.781,-953.865 235.413,-955.681 231.978,-957.433"/>
<polygon fill="none" stroke="black" points="230.24,-954.386 222.782,-961.911 233.305,-960.68 230.24,-954.386"/>
</g>
<!-- system_bar_t -->
<g id="node24" class="node"><title>system_bar_t</title>
<a xlink:href="../manual/system_bar_t.md" xlink:title="\N">
<polygon fill="none" stroke="black" points="295.793,-824 295.793,-860 398.207,-860 398.207,-824 295.793,-824"/>
<text text-anchor="middle" x="347" y="-838.5" font-family="Courier New" font-size="12.00">system_bar_t</text>
</a>
</g>
<!-- system_bar_t&#45;&gt;window_base_t -->
<g id="edge48" class="edge"><title>system_bar_t&#45;&gt;window_base_t</title>
<path fill="none" stroke="black" d="M295.701,-857.417C289.244,-860.853 283.114,-865.003 278,-870 249.533,-897.818 270.242,-923.954 242,-952 240.594,-953.396 239.108,-954.727 237.556,-955.997"/>
<polygon fill="none" stroke="black" points="235.457,-953.194 229.329,-961.837 239.509,-958.902 235.457,-953.194"/>
</g>
<!-- image_t -->
<g id="node25" class="node"><title>image_t</title>
<a xlink:href="../manual/image_t.md" xlink:title="\N">
<polygon fill="none" stroke="black" points="313.796,-1209 313.796,-1245 380.204,-1245 380.204,-1209 313.796,-1209"/>
<text text-anchor="middle" x="347" y="-1223.5" font-family="Courier New" font-size="12.00">image_t</text>
</a>
</g>
<!-- image_t&#45;&gt;image_base_t -->
<g id="edge50" class="edge"><title>image_t&#45;&gt;image_base_t</title>
<path fill="none" stroke="black" d="M313.518,-1214.46C302.165,-1209.86 289.411,-1204.44 278,-1199 257.646,-1189.3 235.597,-1177.46 217.308,-1167.25"/>
<polygon fill="none" stroke="black" points="218.819,-1164.08 208.387,-1162.23 215.388,-1170.18 218.819,-1164.08"/>
</g>
<!-- gif_image_t -->
<g id="node26" class="node"><title>gif_image_t</title>
<a xlink:href="../manual/gif_image_t.md" xlink:title="\N">
<polygon fill="none" stroke="black" points="299.394,-1154 299.394,-1190 394.606,-1190 394.606,-1154 299.394,-1154"/>
<text text-anchor="middle" x="347" y="-1168.5" font-family="Courier New" font-size="12.00">gif_image_t</text>
</a>
</g>
<!-- gif_image_t&#45;&gt;image_base_t -->
<g id="edge52" class="edge"><title>gif_image_t&#45;&gt;image_base_t</title>
<path fill="none" stroke="black" d="M299.373,-1164.27C280.233,-1161.1 257.824,-1157.39 237.451,-1154.02"/>
<polygon fill="none" stroke="black" points="237.762,-1150.52 227.324,-1152.34 236.617,-1157.43 237.762,-1150.52"/>
</g>
<!-- svg_image_t -->
<g id="node27" class="node"><title>svg_image_t</title>
<a xlink:href="../manual/svg_image_t.md" xlink:title="\N">
<polygon fill="none" stroke="black" points="299.394,-1099 299.394,-1135 394.606,-1135 394.606,-1099 299.394,-1099"/>
<text text-anchor="middle" x="347" y="-1113.5" font-family="Courier New" font-size="12.00">svg_image_t</text>
</a>
</g>
<!-- svg_image_t&#45;&gt;image_base_t -->
<g id="edge54" class="edge"><title>svg_image_t&#45;&gt;image_base_t</title>
<path fill="none" stroke="black" d="M299.373,-1124.45C280.233,-1127.51 257.824,-1131.09 237.451,-1134.34"/>
<polygon fill="none" stroke="black" points="236.646,-1130.93 227.324,-1135.96 237.751,-1137.84 236.646,-1130.93"/>
</g>
<!-- combo_box_t -->
<g id="node28" class="node"><title>combo_box_t</title>
<a xlink:href="../manual/combo_box_t.md" xlink:title="\N">
<polygon fill="none" stroke="black" points="299.394,-55 299.394,-91 394.606,-91 394.606,-55 299.394,-55"/>
<text text-anchor="middle" x="347" y="-69.5" font-family="Courier New" font-size="12.00">combo_box_t</text>
</a>
</g>
<!-- combo_box_t&#45;&gt;edit_t -->
<g id="edge56" class="edge"><title>combo_box_t&#45;&gt;edit_t</title>
<path fill="none" stroke="black" d="M299.373,-65.2748C273.128,-60.9265 240.737,-55.56 215.874,-51.4406"/>
<polygon fill="none" stroke="black" points="216.156,-47.9398 205.719,-49.7581 215.012,-54.8457 216.156,-47.9398"/>
</g>
<!-- spin_box_t -->
<g id="node29" class="node"><title>spin_box_t</title>
<a xlink:href="../manual/spin_box_t.md" xlink:title="\N">
<polygon fill="none" stroke="black" points="302.994,-0 302.994,-36 391.006,-36 391.006,-0 302.994,-0"/>
<text text-anchor="middle" x="347" y="-14.5" font-family="Courier New" font-size="12.00">spin_box_t</text>
</a>
</g>
<!-- spin_box_t&#45;&gt;edit_t -->
<g id="edge58" class="edge"><title>spin_box_t&#45;&gt;edit_t</title>
<path fill="none" stroke="black" d="M302.917,-24.8831C275.981,-29.1865 241.585,-34.6817 215.551,-38.841"/>
<polygon fill="none" stroke="black" points="214.985,-35.3869 205.663,-40.4208 216.09,-42.2992 214.985,-35.3869"/>
</g>
</g>
</svg>
