<?xml version="1.0" encoding="UTF-8" standalone="no"?>
<!DOCTYPE svg PUBLIC "-//W3C//DTD SVG 1.1//EN"
 "http://www.w3.org/Graphics/SVG/1.1/DTD/svg11.dtd">
<!-- Generated by graphviz version 2.38.0 (20140413.2041)
 -->
<!-- Title: G Pages: 1 -->
<svg width="453pt" height="2712pt"
 viewBox="0.00 0.00 453.00 2712.00" xmlns="http://www.w3.org/2000/svg" xmlns:xlink="http://www.w3.org/1999/xlink">
<g id="graph0" class="graph" transform="scale(1 1) rotate(0) translate(4 2708)">
<title>G</title>
<polygon fill="white" stroke="none" points="-4,4 -4,-2708 449,-2708 449,4 -4,4"/>
<!-- edit_t -->
<g id="node1" class="node"><title>edit_t</title>
<polygon fill="none" stroke="black" points="158,-27.5 158,-63.5 220,-63.5 220,-27.5 158,-27.5"/>
<text text-anchor="middle" x="189" y="-42.4" font-family="Courier New" font-size="12.00">edit_t</text>
</g>
<!-- widget_t -->
<g id="node2" class="node"><title>widget_t</title>
<polygon fill="none" stroke="black" points="0,-1292.5 0,-1328.5 77,-1328.5 77,-1292.5 0,-1292.5"/>
<text text-anchor="middle" x="38.5" y="-1307.4" font-family="Courier New" font-size="12.00">widget_t</text>
</g>
<!-- edit_t&#45;&gt;widget_t -->
<g id="edge1" class="edge"><title>edit_t&#45;&gt;widget_t</title>
<path fill="none" stroke="black" d="M157.673,-48.9325C141.739,-52.4131 123.408,-59.4161 113,-73.5 38.9123,-173.755 38.7309,-1106.47 39.3597,-1282.07"/>
<polygon fill="none" stroke="black" points="35.8606,-1282.32 39.4006,-1292.31 42.8605,-1282.29 35.8606,-1282.32"/>
</g>
<!-- image_base_t -->
<g id="node3" class="node"><title>image_base_t</title>
<polygon fill="none" stroke="black" points="135.5,-2584.5 135.5,-2620.5 242.5,-2620.5 242.5,-2584.5 135.5,-2584.5"/>
<text text-anchor="middle" x="189" y="-2599.4" font-family="Courier New" font-size="12.00">image_base_t</text>
</g>
<!-- image_base_t&#45;&gt;widget_t -->
<g id="edge2" class="edge"><title>image_base_t&#45;&gt;widget_t</title>
<path fill="none" stroke="black" d="M176.882,-2584.13C159.668,-2554.64 127.084,-2494.36 113,-2438.5 58.1742,-2221.06 42.6613,-1492.92 39.9634,-1339.16"/>
<polygon fill="none" stroke="black" points="43.4553,-1338.66 39.7845,-1328.72 36.4563,-1338.78 43.4553,-1338.66"/>
</g>
<!-- window_base_t -->
<g id="node4" class="node"><title>window_base_t</title>
<polygon fill="none" stroke="black" points="132,-2392.5 132,-2428.5 246,-2428.5 246,-2392.5 132,-2392.5"/>
<text text-anchor="middle" x="189" y="-2407.4" font-family="Courier New" font-size="12.00">window_base_t</text>
</g>
<!-- window_base_t&#45;&gt;widget_t -->
<g id="edge3" class="edge"><title>window_base_t&#45;&gt;widget_t</title>
<path fill="none" stroke="black" d="M131.856,-2398.72C124.557,-2394.96 117.921,-2390.02 113,-2383.5 48.3063,-2297.83 40.531,-1500.22 39.6186,-1338.88"/>
<polygon fill="none" stroke="black" points="43.1182,-1338.76 39.566,-1328.78 36.1183,-1338.8 43.1182,-1338.76"/>
</g>
<!-- label_t -->
<g id="node5" class="node"><title>label_t</title>
<polygon fill="none" stroke="black" points="154.5,-2337.5 154.5,-2373.5 223.5,-2373.5 223.5,-2337.5 154.5,-2337.5"/>
<text text-anchor="middle" x="189" y="-2352.4" font-family="Courier New" font-size="12.00">label_t</text>
</g>
<!-- label_t&#45;&gt;widget_t -->
<g id="edge4" class="edge"><title>label_t&#45;&gt;widget_t</title>
<path fill="none" stroke="black" d="M154.329,-2351.68C139.288,-2348.15 122.782,-2341.4 113,-2328.5 51.649,-2247.57 41.2365,-1495.23 39.7303,-1338.88"/>
<polygon fill="none" stroke="black" points="43.2283,-1338.63 39.6366,-1328.67 36.2286,-1338.7 43.2283,-1338.63"/>
</g>
<!-- button_t -->
<g id="node6" class="node"><title>button_t</title>
<polygon fill="none" stroke="black" points="150.5,-2282.5 150.5,-2318.5 227.5,-2318.5 227.5,-2282.5 150.5,-2282.5"/>
<text text-anchor="middle" x="189" y="-2297.4" font-family="Courier New" font-size="12.00">button_t</text>
</g>
<!-- button_t&#45;&gt;widget_t -->
<g id="edge5" class="edge"><title>button_t&#45;&gt;widget_t</title>
<path fill="none" stroke="black" d="M150.47,-2295.68C136.544,-2291.93 121.97,-2285.28 113,-2273.5 55.0331,-2197.36 42.0017,-1491.23 39.8596,-1339.24"/>
<polygon fill="none" stroke="black" points="43.3546,-1338.84 39.7187,-1328.88 36.3552,-1338.93 43.3546,-1338.84"/>
</g>
<!-- color_tile_t -->
<g id="node7" class="node"><title>color_tile_t</title>
<polygon fill="none" stroke="black" points="135.5,-2227.5 135.5,-2263.5 242.5,-2263.5 242.5,-2227.5 135.5,-2227.5"/>
<text text-anchor="middle" x="189" y="-2242.4" font-family="Courier New" font-size="12.00">color_tile_t</text>
</g>
<!-- color_tile_t&#45;&gt;widget_t -->
<g id="edge6" class="edge"><title>color_tile_t&#45;&gt;widget_t</title>
<path fill="none" stroke="black" d="M135.315,-2235.3C126.689,-2231.38 118.718,-2225.97 113,-2218.5 58.3311,-2147.03 42.776,-1485.1 39.9954,-1338.96"/>
<polygon fill="none" stroke="black" points="43.4883,-1338.54 39.8036,-1328.61 36.4895,-1338.67 43.4883,-1338.54"/>
</g>
<!-- combo_box_item_t -->
<g id="node8" class="node"><title>combo_box_item_t</title>
<polygon fill="none" stroke="black" points="120.5,-2172.5 120.5,-2208.5 257.5,-2208.5 257.5,-2172.5 120.5,-2172.5"/>
<text text-anchor="middle" x="189" y="-2187.4" font-family="Courier New" font-size="12.00">combo_box_item_t</text>
</g>
<!-- combo_box_item_t&#45;&gt;widget_t -->
<g id="edge7" class="edge"><title>combo_box_item_t&#45;&gt;widget_t</title>
<path fill="none" stroke="black" d="M122.094,-2172.47C118.697,-2169.87 115.615,-2166.9 113,-2163.5 61.6635,-2096.75 43.6199,-1479.77 40.1538,-1339"/>
<polygon fill="none" stroke="black" points="43.6439,-1338.55 39.9039,-1328.63 36.646,-1338.71 43.6439,-1338.55"/>
</g>
<!-- slider_t -->
<g id="node9" class="node"><title>slider_t</title>
<polygon fill="none" stroke="black" points="150.5,-2117.5 150.5,-2153.5 227.5,-2153.5 227.5,-2117.5 150.5,-2117.5"/>
<text text-anchor="middle" x="189" y="-2132.4" font-family="Courier New" font-size="12.00">slider_t</text>
</g>
<!-- slider_t&#45;&gt;widget_t -->
<g id="edge8" class="edge"><title>slider_t&#45;&gt;widget_t</title>
<path fill="none" stroke="black" d="M150.173,-2130.5C136.379,-2126.72 121.977,-2120.1 113,-2108.5 64.9682,-2046.43 44.5049,-1473.75 40.3286,-1338.86"/>
<polygon fill="none" stroke="black" points="43.8173,-1338.43 40.0148,-1328.54 36.8206,-1338.65 43.8173,-1338.43"/>
</g>
<!-- progress_bar_t -->
<g id="node10" class="node"><title>progress_bar_t</title>
<polygon fill="none" stroke="black" points="128,-2062.5 128,-2098.5 250,-2098.5 250,-2062.5 128,-2062.5"/>
<text text-anchor="middle" x="189" y="-2077.4" font-family="Courier New" font-size="12.00">progress_bar_t</text>
</g>
<!-- progress_bar_t&#45;&gt;widget_t -->
<g id="edge9" class="edge"><title>progress_bar_t&#45;&gt;widget_t</title>
<path fill="none" stroke="black" d="M127.649,-2066.16C122.056,-2062.79 116.998,-2058.63 113,-2053.5 68.2933,-1996.12 45.4795,-1468.17 40.5364,-1338.95"/>
<polygon fill="none" stroke="black" points="44.0239,-1338.55 40.1496,-1328.68 37.0288,-1338.81 44.0239,-1338.55"/>
</g>
<!-- app_bar_t -->
<g id="node11" class="node"><title>app_bar_t</title>
<polygon fill="none" stroke="black" points="147,-2007.5 147,-2043.5 231,-2043.5 231,-2007.5 147,-2007.5"/>
<text text-anchor="middle" x="189" y="-2022.4" font-family="Courier New" font-size="12.00">app_bar_t</text>
</g>
<!-- app_bar_t&#45;&gt;widget_t -->
<g id="edge10" class="edge"><title>app_bar_t&#45;&gt;widget_t</title>
<path fill="none" stroke="black" d="M146.739,-2010.9C134.068,-2006.49 121.292,-2000.06 113,-1989.5 71.9437,-1937.23 46.9413,-1461.12 40.9207,-1338.89"/>
<polygon fill="none" stroke="black" points="44.4122,-1338.63 40.4275,-1328.82 37.4206,-1338.98 44.4122,-1338.63"/>
</g>
<!-- app_bar_t&#45;&gt;widget_t -->
<g id="edge35" class="edge"><title>app_bar_t&#45;&gt;widget_t</title>
<path fill="none" stroke="black" d="M146.739,-2027.92C134.068,-2024.49 121.292,-2018.06 113,-2007.5 71.2684,-1954.37 46.1232,-1463.34 40.6391,-1338.94"/>
<polygon fill="none" stroke="black" points="44.1251,-1338.54 40.1963,-1328.7 37.1317,-1338.84 44.1251,-1338.54"/>
</g>
<!-- row_t -->
<g id="node12" class="node"><title>row_t</title>
<polygon fill="none" stroke="black" points="162,-1952.5 162,-1988.5 216,-1988.5 216,-1952.5 162,-1952.5"/>
<text text-anchor="middle" x="189" y="-1967.4" font-family="Courier New" font-size="12.00">row_t</text>
</g>
<!-- row_t&#45;&gt;widget_t -->
<g id="edge11" class="edge"><title>row_t&#45;&gt;widget_t</title>
<path fill="none" stroke="black" d="M161.719,-1967.99C145.13,-1964.95 124.694,-1958.25 113,-1943.5 37.3297,-1848.07 37.4525,-1448.58 38.9694,-1338.62"/>
<polygon fill="none" stroke="black" points="42.4689,-1338.68 39.1228,-1328.62 35.4697,-1338.57 42.4689,-1338.68"/>
</g>
<!-- column_t -->
<g id="node13" class="node"><title>column_t</title>
<polygon fill="none" stroke="black" points="150.5,-1897.5 150.5,-1933.5 227.5,-1933.5 227.5,-1897.5 150.5,-1897.5"/>
<text text-anchor="middle" x="189" y="-1912.4" font-family="Courier New" font-size="12.00">column_t</text>
</g>
<!-- column_t&#45;&gt;widget_t -->
<g id="edge12" class="edge"><title>column_t&#45;&gt;widget_t</title>
<path fill="none" stroke="black" d="M150.379,-1910.34C136.612,-1906.54 122.177,-1899.94 113,-1888.5 43.9379,-1802.37 39.2119,-1442.91 39.3187,-1338.84"/>
<polygon fill="none" stroke="black" points="42.8188,-1338.79 39.3456,-1328.78 35.8188,-1338.77 42.8188,-1338.79"/>
</g>
<!-- grid_t -->
<g id="node14" class="node"><title>grid_t</title>
<polygon fill="none" stroke="black" points="158,-1842.5 158,-1878.5 220,-1878.5 220,-1842.5 158,-1842.5"/>
<text text-anchor="middle" x="189" y="-1857.4" font-family="Courier New" font-size="12.00">grid_t</text>
</g>
<!-- grid_t&#45;&gt;widget_t -->
<g id="edge13" class="edge"><title>grid_t&#45;&gt;widget_t</title>
<path fill="none" stroke="black" d="M157.752,-1857.07C142.047,-1853.68 123.91,-1846.92 113,-1833.5 50.4972,-1756.59 41.1428,-1436.65 39.745,-1338.96"/>
<polygon fill="none" stroke="black" points="43.2413,-1338.63 39.6162,-1328.68 36.2419,-1338.72 43.2413,-1338.63"/>
</g>
<!-- grid_item_t -->
<g id="node15" class="node"><title>grid_item_t</title>
<polygon fill="none" stroke="black" points="139.5,-1787.5 139.5,-1823.5 238.5,-1823.5 238.5,-1787.5 139.5,-1787.5"/>
<text text-anchor="middle" x="189" y="-1802.4" font-family="Courier New" font-size="12.00">grid_item_t</text>
</g>
<!-- grid_item_t&#45;&gt;widget_t -->
<g id="edge14" class="edge"><title>grid_item_t&#45;&gt;widget_t</title>
<path fill="none" stroke="black" d="M139.229,-1796.41C129.277,-1792.43 119.787,-1786.71 113,-1778.5 56.9354,-1710.64 43.2406,-1429.08 40.2577,-1338.62"/>
<polygon fill="none" stroke="black" points="43.7542,-1338.45 39.945,-1328.56 36.7576,-1338.66 43.7542,-1338.45"/>
</g>
<!-- group_box_t -->
<g id="node16" class="node"><title>group_box_t</title>
<polygon fill="none" stroke="black" points="139.5,-1732.5 139.5,-1768.5 238.5,-1768.5 238.5,-1732.5 139.5,-1732.5"/>
<text text-anchor="middle" x="189" y="-1747.4" font-family="Courier New" font-size="12.00">group_box_t</text>
</g>
<!-- group_box_t&#45;&gt;widget_t -->
<g id="edge15" class="edge"><title>group_box_t&#45;&gt;widget_t</title>
<path fill="none" stroke="black" d="M139.351,-1732.55C129.393,-1728.33 119.87,-1722.65 113,-1714.5 64.2429,-1656.69 46.2222,-1420.88 41.1562,-1338.72"/>
<polygon fill="none" stroke="black" points="44.6425,-1338.38 40.5506,-1328.61 37.6551,-1338.8 44.6425,-1338.38"/>
</g>
<!-- group_box_t&#45;&gt;widget_t -->
<g id="edge34" class="edge"><title>group_box_t&#45;&gt;widget_t</title>
<path fill="none" stroke="black" d="M139.351,-1750.06C129.393,-1746.33 119.87,-1740.65 113,-1732.5 62.7312,-1672.9 45.1343,-1424.09 40.7218,-1339"/>
<polygon fill="none" stroke="black" points="44.2063,-1338.6 40.2159,-1328.78 37.2149,-1338.94 44.2063,-1338.6"/>
</g>
<!-- view_t -->
<g id="node17" class="node"><title>view_t</title>
<polygon fill="none" stroke="black" points="158,-1677.5 158,-1713.5 220,-1713.5 220,-1677.5 158,-1677.5"/>
<text text-anchor="middle" x="189" y="-1692.4" font-family="Courier New" font-size="12.00">view_t</text>
</g>
<!-- view_t&#45;&gt;widget_t -->
<g id="edge16" class="edge"><title>view_t&#45;&gt;widget_t</title>
<path fill="none" stroke="black" d="M157.705,-1691.71C142.183,-1688.21 124.236,-1681.47 113,-1668.5 69.9386,-1618.79 48.4204,-1414.83 41.7923,-1339.04"/>
<polygon fill="none" stroke="black" points="45.258,-1338.48 40.9216,-1328.82 38.2833,-1339.08 45.258,-1338.48"/>
</g>
<!-- button_group_t -->
<g id="node18" class="node"><title>button_group_t</title>
<polygon fill="none" stroke="black" points="128,-1622.5 128,-1658.5 250,-1658.5 250,-1622.5 128,-1622.5"/>
<text text-anchor="middle" x="189" y="-1637.4" font-family="Courier New" font-size="12.00">button_group_t</text>
</g>
<!-- button_group_t&#45;&gt;widget_t -->
<g id="edge17" class="edge"><title>button_group_t&#45;&gt;widget_t</title>
<path fill="none" stroke="black" d="M127.98,-1625.36C122.399,-1622.14 117.253,-1618.24 113,-1613.5 76.3468,-1572.68 51.6546,-1406.51 42.9635,-1339.11"/>
<polygon fill="none" stroke="black" points="46.388,-1338.29 41.6614,-1328.81 39.4433,-1339.17 46.388,-1338.29"/>
</g>
<!-- dialog_title_t -->
<g id="node19" class="node"><title>dialog_title_t</title>
<polygon fill="none" stroke="black" points="128,-1567.5 128,-1603.5 250,-1603.5 250,-1567.5 128,-1567.5"/>
<text text-anchor="middle" x="189" y="-1582.4" font-family="Courier New" font-size="12.00">dialog_title_t</text>
</g>
<!-- dialog_title_t&#45;&gt;widget_t -->
<g id="edge18" class="edge"><title>dialog_title_t&#45;&gt;widget_t</title>
<path fill="none" stroke="black" d="M127.851,-1569.94C122.365,-1566.8 117.275,-1563.03 113,-1558.5 54.408,-1496.44 42.3033,-1389.84 39.955,-1339.04"/>
<polygon fill="none" stroke="black" points="43.4437,-1338.66 39.5812,-1328.8 36.4484,-1338.92 43.4437,-1338.66"/>
</g>
<!-- dialog_client_t -->
<g id="node20" class="node"><title>dialog_client_t</title>
<polygon fill="none" stroke="black" points="124.5,-1512.5 124.5,-1548.5 253.5,-1548.5 253.5,-1512.5 124.5,-1512.5"/>
<text text-anchor="middle" x="189" y="-1527.4" font-family="Courier New" font-size="12.00">dialog_client_t</text>
</g>
<!-- dialog_client_t&#45;&gt;widget_t -->
<g id="edge19" class="edge"><title>dialog_client_t&#45;&gt;widget_t</title>
<path fill="none" stroke="black" d="M124.55,-1512.46C120.369,-1509.86 116.456,-1506.89 113,-1503.5 66.6354,-1457.98 49.0812,-1380.19 42.7821,-1338.63"/>
<polygon fill="none" stroke="black" points="46.2368,-1338.06 41.3813,-1328.64 39.3047,-1339.03 46.2368,-1338.06"/>
</g>
<!-- window_t -->
<g id="node21" class="node"><title>window_t</title>
<polygon fill="none" stroke="black" points="334.5,-2502.5 334.5,-2538.5 411.5,-2538.5 411.5,-2502.5 334.5,-2502.5"/>
<text text-anchor="middle" x="373" y="-2517.4" font-family="Courier New" font-size="12.00">window_t</text>
</g>
<!-- window_t&#45;&gt;window_base_t -->
<g id="edge20" class="edge"><title>window_t&#45;&gt;window_base_t</title>
<path fill="none" stroke="black" d="M334.275,-2508.38C323.263,-2504.25 311.4,-2499.22 301,-2493.5 270.898,-2476.95 239.85,-2453.05 218.272,-2435.14"/>
<polygon fill="none" stroke="black" points="220.395,-2432.35 210.488,-2428.6 215.892,-2437.71 220.395,-2432.35"/>
</g>
<!-- popup_t -->
<g id="node22" class="node"><title>popup_t</title>
<polygon fill="none" stroke="black" points="338.5,-2447.5 338.5,-2483.5 407.5,-2483.5 407.5,-2447.5 338.5,-2447.5"/>
<text text-anchor="middle" x="373" y="-2462.4" font-family="Courier New" font-size="12.00">popup_t</text>
</g>
<!-- popup_t&#45;&gt;window_base_t -->
<g id="edge21" class="edge"><title>popup_t&#45;&gt;window_base_t</title>
<path fill="none" stroke="black" d="M338.194,-2455.28C315.113,-2448.31 283.776,-2438.84 255.863,-2430.4"/>
<polygon fill="none" stroke="black" points="256.737,-2427.01 246.152,-2427.47 254.712,-2433.71 256.737,-2427.01"/>
</g>
<!-- dialog_t -->
<g id="node23" class="node"><title>dialog_t</title>
<polygon fill="none" stroke="black" points="334.5,-2392.5 334.5,-2428.5 411.5,-2428.5 411.5,-2392.5 334.5,-2392.5"/>
<text text-anchor="middle" x="373" y="-2407.4" font-family="Courier New" font-size="12.00">dialog_t</text>
</g>
<!-- dialog_t&#45;&gt;window_base_t -->
<g id="edge22" class="edge"><title>dialog_t&#45;&gt;window_base_t</title>
<path fill="none" stroke="black" d="M334.289,-2410.5C311.862,-2410.5 282.766,-2410.5 256.582,-2410.5"/>
<polygon fill="none" stroke="black" points="256.332,-2407 246.332,-2410.5 256.332,-2414 256.332,-2407"/>
</g>
<!-- calibration_win_t -->
<g id="node24" class="node"><title>calibration_win_t</title>
<polygon fill="none" stroke="black" points="301,-2337.5 301,-2373.5 445,-2373.5 445,-2337.5 301,-2337.5"/>
<text text-anchor="middle" x="373" y="-2352.4" font-family="Courier New" font-size="12.00">calibration_win_t</text>
</g>
<!-- calibration_win_t&#45;&gt;window_base_t -->
<g id="edge23" class="edge"><title>calibration_win_t&#45;&gt;window_base_t</title>
<path fill="none" stroke="black" d="M312.406,-2373.51C294.304,-2378.98 274.311,-2385.02 255.824,-2390.61"/>
<polygon fill="none" stroke="black" points="254.581,-2387.33 246.021,-2393.57 256.606,-2394.03 254.581,-2387.33"/>
</g>
<!-- system_bar_t -->
<g id="node25" class="node"><title>system_bar_t</title>
<polygon fill="none" stroke="black" points="319.5,-2282.5 319.5,-2318.5 426.5,-2318.5 426.5,-2282.5 319.5,-2282.5"/>
<text text-anchor="middle" x="373" y="-2297.4" font-family="Courier New" font-size="12.00">system_bar_t</text>
</g>
<!-- system_bar_t&#45;&gt;window_base_t -->
<g id="edge24" class="edge"><title>system_bar_t&#45;&gt;window_base_t</title>
<path fill="none" stroke="black" d="M319.142,-2317.03C312.679,-2320.27 306.445,-2324.07 301,-2328.5 278.346,-2346.95 287.929,-2365.39 265,-2383.5 261.911,-2385.94 258.584,-2388.17 255.108,-2390.21"/>
<polygon fill="none" stroke="black" points="253.435,-2387.13 246.215,-2394.89 256.694,-2393.33 253.435,-2387.13"/>
</g>
<!-- overlay_t -->
<g id="node26" class="node"><title>overlay_t</title>
<polygon fill="none" stroke="black" points="331,-2227.5 331,-2263.5 415,-2263.5 415,-2227.5 331,-2227.5"/>
<text text-anchor="middle" x="373" y="-2242.4" font-family="Courier New" font-size="12.00">overlay_t</text>
</g>
<!-- overlay_t&#45;&gt;window_base_t -->
<g id="edge25" class="edge"><title>overlay_t&#45;&gt;window_base_t</title>
<path fill="none" stroke="black" d="M330.733,-2254.88C319.885,-2259.05 308.997,-2265.01 301,-2273.5 265.721,-2310.94 300.838,-2346.6 265,-2383.5 262.017,-2386.57 258.66,-2389.29 255.062,-2391.71"/>
<polygon fill="none" stroke="black" points="253.185,-2388.75 246.295,-2396.8 256.7,-2394.81 253.185,-2388.75"/>
</g>
<!-- image_t -->
<g id="node27" class="node"><title>image_t</title>
<polygon fill="none" stroke="black" points="338.5,-2667.5 338.5,-2703.5 407.5,-2703.5 407.5,-2667.5 338.5,-2667.5"/>
<text text-anchor="middle" x="373" y="-2682.4" font-family="Courier New" font-size="12.00">image_t</text>
</g>
<!-- image_t&#45;&gt;image_base_t -->
<g id="edge26" class="edge"><title>image_t&#45;&gt;image_base_t</title>
<path fill="none" stroke="black" d="M338.48,-2673.57C326.54,-2669.1 313.066,-2663.82 301,-2658.5 278.051,-2648.38 253.065,-2635.91 232.62,-2625.31"/>
<polygon fill="none" stroke="black" points="234.054,-2622.11 223.569,-2620.58 230.814,-2628.31 234.054,-2622.11"/>
</g>
<!-- gif_image_t -->
<g id="node28" class="node"><title>gif_image_t</title>
<polygon fill="none" stroke="black" points="323.5,-2612.5 323.5,-2648.5 422.5,-2648.5 422.5,-2612.5 323.5,-2612.5"/>
<text text-anchor="middle" x="373" y="-2627.4" font-family="Courier New" font-size="12.00">gif_image_t</text>
</g>
<!-- gif_image_t&#45;&gt;image_base_t -->
<g id="edge27" class="edge"><title>gif_image_t&#45;&gt;image_base_t</title>
<path fill="none" stroke="black" d="M323.227,-2623C301.581,-2619.67 275.839,-2615.71 252.78,-2612.16"/>
<polygon fill="none" stroke="black" points="253.157,-2608.68 242.741,-2610.61 252.093,-2615.59 253.157,-2608.68"/>
</g>
<!-- svg_image_t -->
<g id="node29" class="node"><title>svg_image_t</title>
<polygon fill="none" stroke="black" points="323.5,-2557.5 323.5,-2593.5 422.5,-2593.5 422.5,-2557.5 323.5,-2557.5"/>
<text text-anchor="middle" x="373" y="-2572.4" font-family="Courier New" font-size="12.00">svg_image_t</text>
</g>
<!-- svg_image_t&#45;&gt;image_base_t -->
<g id="edge28" class="edge"><title>svg_image_t&#45;&gt;image_base_t</title>
<path fill="none" stroke="black" d="M323.227,-2582.74C301.581,-2585.95 275.839,-2589.77 252.78,-2593.19"/>
<polygon fill="none" stroke="black" points="252.119,-2589.75 242.741,-2594.68 253.147,-2596.67 252.119,-2589.75"/>
</g>
<!-- combo_box_t -->
<g id="node30" class="node"><title>combo_box_t</title>
<polygon fill="none" stroke="black" points="323.5,-55.5 323.5,-91.5 422.5,-91.5 422.5,-55.5 323.5,-55.5"/>
<text text-anchor="middle" x="373" y="-70.4" font-family="Courier New" font-size="12.00">combo_box_t</text>
</g>
<!-- combo_box_t&#45;&gt;edit_t -->
<g id="edge29" class="edge"><title>combo_box_t&#45;&gt;edit_t</title>
<path fill="none" stroke="black" d="M323.227,-65.9965C294.097,-61.5149 257.549,-55.8921 230.104,-51.6699"/>
<polygon fill="none" stroke="black" points="230.482,-48.1869 220.066,-50.1256 229.418,-55.1055 230.482,-48.1869"/>
</g>
<!-- spin_box_t -->
<g id="node31" class="node"><title>spin_box_t</title>
<polygon fill="none" stroke="black" points="327,-0.5 327,-36.5 419,-36.5 419,-0.5 327,-0.5"/>
<text text-anchor="middle" x="373" y="-15.4" font-family="Courier New" font-size="12.00">spin_box_t</text>
</g>
<!-- spin_box_t&#45;&gt;edit_t -->
<g id="edge30" class="edge"><title>spin_box_t&#45;&gt;edit_t</title>
<path fill="none" stroke="black" d="M326.543,-25.2436C296.911,-29.6395 258.599,-35.3232 230.103,-39.5507"/>
<polygon fill="none" stroke="black" points="229.46,-36.1076 220.082,-41.0372 230.488,-43.0318 229.46,-36.1076"/>
</g>
<!-- tab_control_t -->
<g id="node32" class="node"><title>tab_control_t</title>
<polygon fill="none" stroke="black" points="132,-1457.5 132,-1493.5 246,-1493.5 246,-1457.5 132,-1457.5"/>
<text text-anchor="middle" x="189" y="-1472.4" font-family="Courier New" font-size="12.00">tab_control_t</text>
</g>
<!-- tab_control_t&#45;&gt;widget_t -->
<g id="edge31" class="edge"><title>tab_control_t&#45;&gt;widget_t</title>
<path fill="none" stroke="black" d="M131.774,-1460.55C125.01,-1457.27 118.546,-1453.3 113,-1448.5 78.8873,-1418.97 58.0875,-1369.61 47.6934,-1338.62"/>
<polygon fill="none" stroke="black" points="50.9523,-1337.32 44.5631,-1328.87 44.2873,-1339.46 50.9523,-1337.32"/>
</g>
<!-- tab_button_t -->
<g id="node33" class="node"><title>tab_button_t</title>
<polygon fill="none" stroke="black" points="135.5,-1402.5 135.5,-1438.5 242.5,-1438.5 242.5,-1402.5 135.5,-1402.5"/>
<text text-anchor="middle" x="189" y="-1417.4" font-family="Courier New" font-size="12.00">tab_button_t</text>
</g>
<!-- tab_button_t&#45;&gt;widget_t -->
<g id="edge32" class="edge"><title>tab_button_t&#45;&gt;widget_t</title>
<path fill="none" stroke="black" d="M135.121,-1405.28C127.385,-1401.99 119.758,-1398.08 113,-1393.5 90.8207,-1378.46 71.0274,-1355.23 57.5845,-1337.17"/>
<polygon fill="none" stroke="black" points="60.2094,-1334.83 51.5127,-1328.78 54.5377,-1338.93 60.2094,-1334.83"/>
</g>
<!-- tab_button_group_t -->
<g id="node34" class="node"><title>tab_button_group_t</title>
<polygon fill="none" stroke="black" points="113,-1347.5 113,-1383.5 265,-1383.5 265,-1347.5 113,-1347.5"/>
<text text-anchor="middle" x="189" y="-1362.4" font-family="Courier New" font-size="12.00">tab_button_group_t</text>
</g>
<!-- tab_button_group_t&#45;&gt;widget_t -->
<g id="edge33" class="edge"><title>tab_button_group_t&#45;&gt;widget_t</title>
<path fill="none" stroke="black" d="M137.525,-1347.47C129.318,-1344.5 120.916,-1341.43 113,-1338.5 104.443,-1335.33 95.3447,-1331.91 86.571,-1328.58"/>
<polygon fill="none" stroke="black" points="87.8101,-1325.31 77.219,-1325.02 85.3213,-1331.85 87.8101,-1325.31"/>
</g>
<!-- canvas_widget_t -->
<g id="node35" class="node"><title>canvas_widget_t</title>
<polygon fill="none" stroke="black" points="124.5,-1292.5 124.5,-1328.5 253.5,-1328.5 253.5,-1292.5 124.5,-1292.5"/>
<text text-anchor="middle" x="189" y="-1307.4" font-family="Courier New" font-size="12.00">canvas_widget_t</text>
</g>
<!-- canvas_widget_t&#45;&gt;widget_t -->
<g id="edge36" class="edge"><title>canvas_widget_t&#45;&gt;widget_t</title>
<path fill="none" stroke="black" d="M124.161,-1310.5C111.758,-1310.5 98.9589,-1310.5 87.1864,-1310.5"/>
<polygon fill="none" stroke="black" points="87.1408,-1307 77.1408,-1310.5 87.1407,-1314 87.1408,-1307"/>
</g>
<!-- color_picker_t -->
<g id="node36" class="node"><title>color_picker_t</title>
<polygon fill="none" stroke="black" points="128,-1237.5 128,-1273.5 250,-1273.5 250,-1237.5 128,-1237.5"/>
<text text-anchor="middle" x="189" y="-1252.4" font-family="Courier New" font-size="12.00">color_picker_t</text>
</g>
<!-- color_picker_t&#45;&gt;widget_t -->
<g id="edge37" class="edge"><title>color_picker_t&#45;&gt;widget_t</title>
<path fill="none" stroke="black" d="M139.376,-1273.51C122.547,-1279.74 103.716,-1286.72 86.9799,-1292.91"/>
<polygon fill="none" stroke="black" points="85.561,-1289.71 77.3991,-1296.46 87.9923,-1296.27 85.561,-1289.71"/>
</g>
<!-- guage_t -->
<g id="node37" class="node"><title>guage_t</title>
<polygon fill="none" stroke="black" points="154.5,-1182.5 154.5,-1218.5 223.5,-1218.5 223.5,-1182.5 154.5,-1182.5"/>
<text text-anchor="middle" x="189" y="-1197.4" font-family="Courier New" font-size="12.00">guage_t</text>
</g>
<!-- guage_t&#45;&gt;widget_t -->
<g id="edge38" class="edge"><title>guage_t&#45;&gt;widget_t</title>
<path fill="none" stroke="black" d="M154.216,-1209.27C140.686,-1213.74 125.4,-1220.04 113,-1228.5 91.1486,-1243.41 71.4475,-1266.15 57.9552,-1283.91"/>
<polygon fill="none" stroke="black" points="54.9788,-1282.05 51.8483,-1292.17 60.6075,-1286.21 54.9788,-1282.05"/>
</g>
<!-- guage_pointer_t -->
<g id="node38" class="node"><title>guage_pointer_t</title>
<polygon fill="none" stroke="black" points="124.5,-1127.5 124.5,-1163.5 253.5,-1163.5 253.5,-1127.5 124.5,-1127.5"/>
<text text-anchor="middle" x="189" y="-1142.4" font-family="Courier New" font-size="12.00">guage_pointer_t</text>
</g>
<!-- guage_pointer_t&#45;&gt;widget_t -->
<g id="edge39" class="edge"><title>guage_pointer_t&#45;&gt;widget_t</title>
<path fill="none" stroke="black" d="M127.237,-1163.64C122.133,-1166.49 117.292,-1169.75 113,-1173.5 79.2082,-1203.01 58.3126,-1251.95 47.8118,-1282.65"/>
<polygon fill="none" stroke="black" points="44.435,-1281.72 44.6455,-1292.31 51.0867,-1283.9 44.435,-1281.72"/>
</g>
<!-- image_animation_t -->
<g id="node39" class="node"><title>image_animation_t</title>
<polygon fill="none" stroke="black" points="117,-1072.5 117,-1108.5 261,-1108.5 261,-1072.5 117,-1072.5"/>
<text text-anchor="middle" x="189" y="-1087.4" font-family="Courier New" font-size="12.00">image_animation_t</text>
</g>
<!-- image_animation_t&#45;&gt;widget_t -->
<g id="edge40" class="edge"><title>image_animation_t&#45;&gt;widget_t</title>
<path fill="none" stroke="black" d="M125.988,-1108.52C121.265,-1111.38 116.849,-1114.68 113,-1118.5 67.0728,-1164.05 49.3367,-1241.33 42.894,-1282.58"/>
<polygon fill="none" stroke="black" points="39.4282,-1282.1 41.4571,-1292.5 46.3558,-1283.1 39.4282,-1282.1"/>
</g>
<!-- image_value_t -->
<g id="node40" class="node"><title>image_value_t</title>
<polygon fill="none" stroke="black" points="132,-1017.5 132,-1053.5 246,-1053.5 246,-1017.5 132,-1017.5"/>
<text text-anchor="middle" x="189" y="-1032.4" font-family="Courier New" font-size="12.00">image_value_t</text>
</g>
<!-- image_value_t&#45;&gt;widget_t -->
<g id="edge41" class="edge"><title>image_value_t&#45;&gt;widget_t</title>
<path fill="none" stroke="black" d="M131.925,-1049.65C124.891,-1053.27 118.313,-1057.81 113,-1063.5 54.9552,-1125.64 42.5853,-1231.65 40.0639,-1282.14"/>
<polygon fill="none" stroke="black" points="36.5593,-1282.19 39.6539,-1292.32 43.5537,-1282.47 36.5593,-1282.19"/>
</g>
<!-- keyboard_t -->
<g id="node41" class="node"><title>keyboard_t</title>
<polygon fill="none" stroke="black" points="143,-962.5 143,-998.5 235,-998.5 235,-962.5 143,-962.5"/>
<text text-anchor="middle" x="189" y="-977.4" font-family="Courier New" font-size="12.00">keyboard_t</text>
</g>
<!-- keyboard_t&#45;&gt;widget_t -->
<g id="edge42" class="edge"><title>keyboard_t&#45;&gt;widget_t</title>
<path fill="none" stroke="black" d="M142.814,-989.465C131.747,-993.612 120.844,-999.666 113,-1008.5 76.6853,-1049.4 51.7955,-1214.89 43.0075,-1282.01"/>
<polygon fill="none" stroke="black" points="39.4926,-1281.9 41.6903,-1292.27 46.4356,-1282.79 39.4926,-1281.9"/>
</g>
<!-- progress_circle_t -->
<g id="node42" class="node"><title>progress_circle_t</title>
<polygon fill="none" stroke="black" points="117,-907.5 117,-943.5 261,-943.5 261,-907.5 117,-907.5"/>
<text text-anchor="middle" x="189" y="-922.4" font-family="Courier New" font-size="12.00">progress_circle_t</text>
</g>
<!-- progress_circle_t&#45;&gt;widget_t -->
<g id="edge43" class="edge"><title>progress_circle_t&#45;&gt;widget_t</title>
<path fill="none" stroke="black" d="M124.244,-943.575C120.077,-946.415 116.255,-949.7 113,-953.5 70.3323,-1003.32 48.5702,-1206.55 41.835,-1282.07"/>
<polygon fill="none" stroke="black" points="38.3292,-1281.99 40.9496,-1292.25 45.3029,-1282.59 38.3292,-1281.99"/>
</g>
<!-- rich_text_t -->
<g id="node43" class="node"><title>rich_text_t</title>
<polygon fill="none" stroke="black" points="139.5,-852.5 139.5,-888.5 238.5,-888.5 238.5,-852.5 139.5,-852.5"/>
<text text-anchor="middle" x="189" y="-867.4" font-family="Courier New" font-size="12.00">rich_text_t</text>
</g>
<!-- rich_text_t&#45;&gt;widget_t -->
<g id="edge44" class="edge"><title>rich_text_t&#45;&gt;widget_t</title>
<path fill="none" stroke="black" d="M139.326,-880.369C129.369,-884.472 119.853,-890.28 113,-898.5 63.9056,-957.38 45.8068,-1199.14 40.9627,-1282.27"/>
<polygon fill="none" stroke="black" points="37.4558,-1282.3 40.3888,-1292.48 44.4448,-1282.69 37.4558,-1282.3"/>
</g>
<!-- slide_menu_t -->
<g id="node44" class="node"><title>slide_menu_t</title>
<polygon fill="none" stroke="black" points="135.5,-797.5 135.5,-833.5 242.5,-833.5 242.5,-797.5 135.5,-797.5"/>
<text text-anchor="middle" x="189" y="-812.4" font-family="Courier New" font-size="12.00">slide_menu_t</text>
</g>
<!-- slide_menu_t&#45;&gt;widget_t -->
<g id="edge45" class="edge"><title>slide_menu_t&#45;&gt;widget_t</title>
<path fill="none" stroke="black" d="M135.354,-826.956C126.834,-830.932 118.89,-836.287 113,-843.5 57.44,-911.536 43.406,-1192.28 40.2984,-1282.47"/>
<polygon fill="none" stroke="black" points="36.7993,-1282.39 39.9715,-1292.5 43.7956,-1282.61 36.7993,-1282.39"/>
</g>
<!-- slide_view_t -->
<g id="node45" class="node"><title>slide_view_t</title>
<polygon fill="none" stroke="black" points="135.5,-742.5 135.5,-778.5 242.5,-778.5 242.5,-742.5 135.5,-742.5"/>
<text text-anchor="middle" x="189" y="-757.4" font-family="Courier New" font-size="12.00">slide_view_t</text>
</g>
<!-- slide_view_t&#45;&gt;widget_t -->
<g id="edge46" class="edge"><title>slide_view_t&#45;&gt;widget_t</title>
<path fill="none" stroke="black" d="M135.258,-771.878C126.748,-775.862 118.831,-781.24 113,-788.5 51.0564,-865.621 41.3168,-1184.7 39.7856,-1282.12"/>
<polygon fill="none" stroke="black" points="36.2825,-1282.32 39.6426,-1292.37 43.2819,-1282.42 36.2825,-1282.32"/>
</g>
<!-- switch_t -->
<g id="node46" class="node"><title>switch_t</title>
<polygon fill="none" stroke="black" points="150.5,-687.5 150.5,-723.5 227.5,-723.5 227.5,-687.5 150.5,-687.5"/>
<text text-anchor="middle" x="189" y="-702.4" font-family="Courier New" font-size="12.00">switch_t</text>
</g>
<!-- switch_t&#45;&gt;widget_t -->
<g id="edge47" class="edge"><title>switch_t&#45;&gt;widget_t</title>
<path fill="none" stroke="black" d="M150.351,-711.181C136.581,-715.168 122.15,-721.953 113,-733.5 44.5526,-819.879 39.393,-1178.43 39.3588,-1282.23"/>
<polygon fill="none" stroke="black" points="35.8587,-1282.27 39.3718,-1292.27 42.8587,-1282.27 35.8587,-1282.27"/>
</g>
<!-- text_selector_t -->
<g id="node47" class="node"><title>text_selector_t</title>
<polygon fill="none" stroke="black" points="124.5,-632.5 124.5,-668.5 253.5,-668.5 253.5,-632.5 124.5,-632.5"/>
<text text-anchor="middle" x="189" y="-647.4" font-family="Courier New" font-size="12.00">text_selector_t</text>
</g>
<!-- text_selector_t&#45;&gt;widget_t -->
<g id="edge48" class="edge"><title>text_selector_t&#45;&gt;widget_t</title>
<path fill="none" stroke="black" d="M124.211,-668.027C119.993,-670.989 116.172,-674.452 113,-678.5 38.0759,-774.121 37.641,-1171.95 39.0046,-1282.11"/>
<polygon fill="none" stroke="black" points="35.5092,-1282.47 39.1485,-1292.42 42.5085,-1282.37 35.5092,-1282.47"/>
</g>
<!-- time_clock_t -->
<g id="node48" class="node"><title>time_clock_t</title>
<polygon fill="none" stroke="black" points="135.5,-577.5 135.5,-613.5 242.5,-613.5 242.5,-577.5 135.5,-577.5"/>
<text text-anchor="middle" x="189" y="-592.4" font-family="Courier New" font-size="12.00">time_clock_t</text>
</g>
<!-- time_clock_t&#45;&gt;widget_t -->
<g id="edge49" class="edge"><title>time_clock_t&#45;&gt;widget_t</title>
<path fill="none" stroke="black" d="M135.44,-606.543C126.803,-610.559 118.795,-616.034 113,-623.5 71.9491,-676.39 46.5974,-1159.55 40.7846,-1282.26"/>
<polygon fill="none" stroke="black" points="37.2831,-1282.21 40.3118,-1292.37 44.2755,-1282.54 37.2831,-1282.21"/>
</g>
<!-- digit_clock_t -->
<g id="node49" class="node"><title>digit_clock_t</title>
<polygon fill="none" stroke="black" points="132,-522.5 132,-558.5 246,-558.5 246,-522.5 132,-522.5"/>
<text text-anchor="middle" x="189" y="-537.4" font-family="Courier New" font-size="12.00">digit_clock_t</text>
</g>
<!-- digit_clock_t&#45;&gt;widget_t -->
<g id="edge50" class="edge"><title>digit_clock_t&#45;&gt;widget_t</title>
<path fill="none" stroke="black" d="M131.63,-553.376C124.457,-557.182 117.918,-562.113 113,-568.5 68.6866,-626.058 45.5764,-1153.1 40.5543,-1282.1"/>
<polygon fill="none" stroke="black" points="37.0473,-1282.22 40.1612,-1292.35 44.0422,-1282.49 37.0473,-1282.22"/>
</g>
<!-- list_view_t -->
<g id="node50" class="node"><title>list_view_t</title>
<polygon fill="none" stroke="black" points="139.5,-467.5 139.5,-503.5 238.5,-503.5 238.5,-467.5 139.5,-467.5"/>
<text text-anchor="middle" x="189" y="-482.4" font-family="Courier New" font-size="12.00">list_view_t</text>
</g>
<!-- list_view_t&#45;&gt;widget_t -->
<g id="edge51" class="edge"><title>list_view_t&#45;&gt;widget_t</title>
<path fill="none" stroke="black" d="M139.195,-494.795C129.119,-498.924 119.584,-504.888 113,-513.5 65.3894,-575.776 44.6047,-1147.52 40.3464,-1282.19"/>
<polygon fill="none" stroke="black" points="36.8387,-1282.38 40.0262,-1292.49 43.8353,-1282.6 36.8387,-1282.38"/>
</g>
<!-- list_view_h_t -->
<g id="node51" class="node"><title>list_view_h_t</title>
<polygon fill="none" stroke="black" points="132,-412.5 132,-448.5 246,-448.5 246,-412.5 132,-412.5"/>
<text text-anchor="middle" x="189" y="-427.4" font-family="Courier New" font-size="12.00">list_view_h_t</text>
</g>
<!-- list_view_h_t&#45;&gt;widget_t -->
<g id="edge52" class="edge"><title>list_view_h_t&#45;&gt;widget_t</title>
<path fill="none" stroke="black" d="M131.929,-443.124C124.619,-446.964 117.961,-451.971 113,-458.5 62.1126,-525.471 43.723,-1141.5 40.1716,-1282.04"/>
<polygon fill="none" stroke="black" points="36.6639,-1282.31 39.9153,-1292.4 43.6618,-1282.49 36.6639,-1282.31"/>
</g>
<!-- list_item_t -->
<g id="node52" class="node"><title>list_item_t</title>
<polygon fill="none" stroke="black" points="139.5,-357.5 139.5,-393.5 238.5,-393.5 238.5,-357.5 139.5,-357.5"/>
<text text-anchor="middle" x="189" y="-372.4" font-family="Courier New" font-size="12.00">list_item_t</text>
</g>
<!-- list_item_t&#45;&gt;widget_t -->
<g id="edge53" class="edge"><title>list_item_t&#45;&gt;widget_t</title>
<path fill="none" stroke="black" d="M139.125,-384.742C129.052,-388.873 119.536,-394.851 113,-403.5 58.8082,-475.206 42.8819,-1136.17 40.013,-1282.08"/>
<polygon fill="none" stroke="black" points="36.5073,-1282.35 39.8149,-1292.42 43.506,-1282.49 36.5073,-1282.35"/>
</g>
<!-- scroll_bar_t -->
<g id="node53" class="node"><title>scroll_bar_t</title>
<polygon fill="none" stroke="black" points="135.5,-302.5 135.5,-338.5 242.5,-338.5 242.5,-302.5 135.5,-302.5"/>
<text text-anchor="middle" x="189" y="-317.4" font-family="Courier New" font-size="12.00">scroll_bar_t</text>
</g>
<!-- scroll_bar_t&#45;&gt;widget_t -->
<g id="edge54" class="edge"><title>scroll_bar_t&#45;&gt;widget_t</title>
<path fill="none" stroke="black" d="M135.255,-331.402C126.636,-335.431 118.681,-340.947 113,-348.5 55.5379,-424.898 42.111,-1130.03 39.8774,-1281.81"/>
<polygon fill="none" stroke="black" points="36.373,-1282.09 39.7302,-1292.14 43.3723,-1282.19 36.373,-1282.09"/>
</g>
<!-- scroll_view_t -->
<g id="node54" class="node"><title>scroll_view_t</title>
<polygon fill="none" stroke="black" points="132,-247.5 132,-283.5 246,-283.5 246,-247.5 132,-247.5"/>
<text text-anchor="middle" x="189" y="-262.4" font-family="Courier New" font-size="12.00">scroll_view_t</text>
</g>
<!-- scroll_view_t&#45;&gt;widget_t -->
<g id="edge55" class="edge"><title>scroll_view_t&#45;&gt;widget_t</title>
<path fill="none" stroke="black" d="M131.848,-278.063C124.549,-281.911 117.916,-286.936 113,-293.5 52.1823,-374.706 41.348,-1126.03 39.7477,-1282.16"/>
<polygon fill="none" stroke="black" points="36.2461,-1282.33 39.6479,-1292.36 43.2457,-1282.39 36.2461,-1282.33"/>
</g>
<!-- mledit_t -->
<g id="node55" class="node"><title>mledit_t</title>
<polygon fill="none" stroke="black" points="150.5,-192.5 150.5,-228.5 227.5,-228.5 227.5,-192.5 150.5,-192.5"/>
<text text-anchor="middle" x="189" y="-207.4" font-family="Courier New" font-size="12.00">mledit_t</text>
</g>
<!-- mledit_t&#45;&gt;widget_t -->
<g id="edge56" class="edge"><title>mledit_t&#45;&gt;widget_t</title>
<path fill="none" stroke="black" d="M150.392,-215.801C136.454,-219.733 121.893,-226.58 113,-238.5 48.8676,-324.462 40.6452,-1121.04 39.636,-1282.16"/>
<polygon fill="none" stroke="black" points="36.1357,-1282.23 39.5773,-1292.25 43.1356,-1282.27 36.1357,-1282.23"/>
</g>
<!-- slide_indicator_t -->
<g id="node56" class="node"><title>slide_indicator_t</title>
<polygon fill="none" stroke="black" points="117,-137.5 117,-173.5 261,-173.5 261,-137.5 117,-137.5"/>
<text text-anchor="middle" x="189" y="-152.4" font-family="Courier New" font-size="12.00">slide_indicator_t</text>
</g>
<!-- slide_indicator_t&#45;&gt;widget_t -->
<g id="edge57" class="edge"><title>slide_indicator_t&#45;&gt;widget_t</title>
<path fill="none" stroke="black" d="M122.978,-173.594C119.213,-176.429 115.819,-179.708 113,-183.5 45.5999,-274.157 39.9855,-1114.9 39.5362,-1281.78"/>
<polygon fill="none" stroke="black" points="36.0353,-1282.19 39.5127,-1292.2 43.0353,-1282.21 36.0353,-1282.19"/>
</g>
<!-- line_number_t -->
<g id="node57" class="node"><title>line_number_t</title>
<polygon fill="none" stroke="black" points="132,-82.5 132,-118.5 246,-118.5 246,-82.5 132,-82.5"/>
<text text-anchor="middle" x="189" y="-97.4" font-family="Courier New" font-size="12.00">line_number_t</text>
</g>
<!-- line_number_t&#45;&gt;widget_t -->
<g id="edge58" class="edge"><title>line_number_t&#45;&gt;widget_t</title>
<path fill="none" stroke="black" d="M131.789,-113.02C124.498,-116.873 117.883,-121.912 113,-128.5 42.2478,-223.966 39.3417,-1110.88 39.4435,-1282"/>
<polygon fill="none" stroke="black" points="35.9436,-1282.23 39.4538,-1292.22 42.9436,-1282.22 35.9436,-1282.23"/>
</g>
</g>
</svg>
